SplineFontDB: 3.2
FontName: KAAlmouziosMain-Regular
FullName: KA Almouzios Main Regular
FamilyName: KA Almouzios Main
Weight: Book
Copyright: SIL OPEN FONT LICENSE Version 1.1
Version: 1.000
ItalicAngle: 0
UnderlinePosition: -100
UnderlineWidth: 50
Ascent: 800
Descent: 200
InvalidEm: 0
sfntRevision: 0x00010000
LayerCount: 2
Layer: 0 1 "Back" 1
Layer: 1 1 "Fore" 0
XUID: [1021 596 -667042339 13515240]
StyleMap: 0x0040
FSType: 8
OS2Version: 3
OS2_WeightWidthSlopeOnly: 0
OS2_UseTypoMetrics: 0
CreationTime: 1487363816
ModificationTime: 1725024789
PfmFamily: 81
TTFWeight: 400
TTFWidth: 5
LineGap: 0
VLineGap: 0
Panose: 0 0 5 0 0 0 0 0 0 0
OS2TypoAscent: 800
OS2TypoAOffset: 0
OS2TypoDescent: -200
OS2TypoDOffset: 0
OS2TypoLinegap: 200
OS2WinAscent: 1000
OS2WinAOffset: 0
OS2WinDescent: 200
OS2WinDOffset: 0
HheadAscent: 1000
HheadAOffset: 0
HheadDescent: -200
HheadDOffset: 0
OS2SubXSize: 650
OS2SubYSize: 600
OS2SubXOff: 0
OS2SubYOff: 75
OS2SupXSize: 650
OS2SupYSize: 600
OS2SupXOff: 0
OS2SupYOff: 350
OS2StrikeYSize: 50
OS2StrikeYPos: 300
OS2CapHeight: 700
OS2XHeight: 500
OS2Vendor: 'UKWN'
OS2CodePages: 00000001.00000000
OS2UnicodeRanges: 00000001.00000000.00000000.00000000
DEI: 91125
ShortTable: maxp 16
  1
  0
  110
  185
  10
  248
  4
  1
  2
  30
  6
  0
  100
  0
  2
  3
EndShort
LangName: 1033 "" "" "" "1.000;UKWN;KAAlmouziosMain-Regular" "" "Version 1.000" "" "" "" "Trevor Bullock" "" "" "" "This Font Software is licensed under the SIL Open Font License, Version 1.1. This license is available with a FAQ at: http://scripts.sil.org/OFL" "http://scripts.sil.org/OFL"
Encoding: UnicodeBmp
Compacted: 1
UnicodeInterp: none
NameList: AGL For New Fonts
DisplaySize: -128
AntiAlias: 1
FitToEm: 1
WinInfo: 0 14 6
BeginChars: 65542 110

StartChar: .notdef
Encoding: 65536 -1 0
Width: 500
GlyphClass: 1
Flags: W
LayerCount: 2
Fore
SplineSet
410 -200 m 1,0,-1
 93 -200 l 1,1,-1
 93 800 l 1,2,-1
 410 800 l 1,3,-1
 410 -200 l 1,0,-1
168 733 m 1,4,-1
 168 700 l 1,5,-1
 233 700 l 1,6,-1
 233 663 l 1,7,-1
 167 663 l 1,8,-1
 167 630 l 1,9,-1
 333 630 l 1,10,-1
 333 663 l 1,11,-1
 267 663 l 1,12,-1
 267 700 l 1,13,-1
 333 700 l 1,14,-1
 333 733 l 1,15,-1
 168 733 l 1,4,-1
167 604 m 1,16,-1
 167 500 l 1,17,-1
 333 500 l 1,18,-1
 333 534 l 1,19,-1
 267 534 l 1,20,-1
 267 604 l 1,21,-1
 167 604 l 1,16,-1
233 534 m 1,22,-1
 200 534 l 1,23,-1
 200 570 l 1,24,-1
 233 570 l 1,25,-1
 233 534 l 1,22,-1
167 473 m 1,26,-1
 167 440 l 1,27,-1
 233 440 l 1,28,-1
 233 403 l 1,29,-1
 167 403 l 1,30,-1
 167 370 l 1,31,-1
 267 370 l 1,32,-1
 267 440 l 1,33,-1
 333 440 l 1,34,-1
 333 473 l 1,35,-1
 167 473 l 1,26,-1
300 413 m 1,36,-1
 300 347 l 1,37,-1
 167 347 l 1,38,-1
 167 313 l 1,39,-1
 333 313 l 1,40,-1
 333 413 l 1,41,-1
 300 413 l 1,36,-1
233 291 m 1,42,-1
 233 235 l 1,43,-1
 267 235 l 1,44,-1
 267 258 l 1,45,-1
 300 258 l 1,46,-1
 300 211 l 1,47,-1
 200 211 l 1,48,-1
 200 291 l 1,49,-1
 167 291 l 1,50,-1
 167 178 l 1,51,-1
 333 178 l 1,52,-1
 333 291 l 1,53,-1
 233 291 l 1,42,-1
167 118 m 1,54,-1
 167 5 l 1,55,-1
 333 5 l 1,56,-1
 333 118 l 1,57,-1
 167 118 l 1,54,-1
300 38 m 1,58,-1
 200 38 l 1,59,-1
 200 85 l 1,60,-1
 300 85 l 1,61,-1
 300 38 l 1,58,-1
167 -18 m 1,62,-1
 167 -51 l 1,63,-1
 237 -51 l 1,64,-1
 167 -98 l 1,65,-1
 167 -131 l 1,66,-1
 333 -131 l 1,67,-1
 333 -98 l 1,68,-1
 231 -98 l 1,69,-1
 301 -51 l 1,70,-1
 333 -51 l 1,71,-1
 333 -18 l 1,72,-1
 167 -18 l 1,62,-1
EndSplineSet
EndChar

StartChar: A
Encoding: 65 65 2
Width: 0
GlyphClass: 1
Flags: W
LayerCount: 2
Fore
SplineSet
-428 -241 m 0,1,2
 -383 -241 -383 -241 -367 -238 c 128,-1,3
 -351 -235 -351 -235 -340 -224 c 0,4,5
 -324 -208 -324 -208 -324 -181 c 0,6,7
 -324 -168 -324 -168 -329 -151 c 0,8,9
 -336 -132 -336 -132 -366 -122 c 128,-1,10
 -396 -112 -396 -112 -445 -112 c 0,11,12
 -514 -112 -514 -112 -514 -133 c 0,13,14
 -514 -144 -514 -144 -494 -161 c 0,15,16
 -480 -172 -480 -172 -480 -180 c 0,17,18
 -480 -186 -480 -186 -494 -186 c 0,19,20
 -513 -186 -513 -186 -552 -175 c 128,-1,21
 -591 -164 -591 -164 -640 -144 c 0,22,23
 -660 -135 -660 -135 -677 -129 c 128,-1,24
 -694 -123 -694 -123 -701 -123 c 0,25,26
 -712 -123 -712 -123 -712 -134 c 0,27,28
 -712 -141 -712 -141 -709 -151 c 0,29,30
 -702 -179 -702 -179 -658 -201 c 128,-1,31
 -614 -223 -614 -223 -539 -233 c 0,32,0
 -480 -241 -480 -241 -428 -241 c 0,1,2
EndSplineSet
EndChar

StartChar: C
Encoding: 67 67 3
Width: 1256
GlyphClass: 1
Flags: W
LayerCount: 2
Fore
SplineSet
235 171.5 m 128,-1,1
 243 170 243 170 246.5 170 c 128,-1,2
 250 170 250 170 252 171 c 0,3,4
 259 174 259 174 262.5 185 c 128,-1,5
 266 196 266 196 261 200 c 0,6,7
 258 205 258 205 241 208 c 0,8,9
 198 215 198 215 175.5 232 c 128,-1,10
 153 249 153 249 153 271 c 0,11,12
 153 308 153 308 204.5 328 c 128,-1,13
 256 348 256 348 350 348 c 0,14,15
 540 348 540 348 606 275 c 0,16,17
 617 262 617 262 621.5 255 c 128,-1,18
 626 248 626 248 626 242 c 0,19,20
 626 217 626 217 586 215 c 0,21,22
 568 213 568 213 560.5 211 c 128,-1,23
 553 209 553 209 550 205 c 2,24,-1
 548 200 l 2,25,26
 548 195 548 195 557 189 c 0,27,28
 567 182 567 182 619.5 175 c 128,-1,29
 672 168 672 168 695 171 c 0,30,31
 729 176 729 176 743 179.5 c 128,-1,32
 757 183 757 183 763 191.5 c 128,-1,33
 769 200 769 200 769 219 c 0,34,35
 769 243 769 243 763 258.5 c 128,-1,36
 757 274 757 274 741 289 c 0,37,38
 681 349 681 349 514 371 c 0,39,40
 394 387 394 387 327 387 c 0,41,42
 275 387 275 387 224 378.5 c 128,-1,43
 173 370 173 370 111 350 c 0,44,45
 73 338 73 338 56 326 c 128,-1,46
 39 314 39 314 34 296 c 0,47,48
 31 286 31 286 31 274 c 256,49,50
 31 262 31 262 34 256 c 0,51,52
 44 229 44 229 88 208 c 128,-1,53
 132 187 132 187 209 176 c 0,54,0
 227 173 227 173 235 171.5 c 128,-1,1
957 175 m 0,56,57
 981 175 981 175 988 178 c 0,58,59
 998 182 998 182 998 190 c 256,60,61
 998 198 998 198 987 203 c 0,62,63
 977 206 977 206 970 220.5 c 128,-1,64
 963 235 963 235 948 284 c 0,65,66
 938 317 938 317 929 333 c 128,-1,67
 920 349 920 349 907 356.5 c 128,-1,68
 894 364 894 364 869 367 c 0,69,70
 851 370 851 370 835 370 c 0,71,72
 816 370 816 370 803.5 366.5 c 128,-1,73
 791 363 791 363 788 357 c 2,74,-1
 788 355 l 2,75,76
 788 348 788 348 801 343 c 0,77,78
 813 339 813 339 820 325 c 128,-1,79
 827 311 827 311 843 259 c 0,80,81
 854 224 854 224 867 206 c 128,-1,82
 880 188 880 188 901 181 c 0,83,55
 922 175 922 175 957 175 c 0,56,57
1137 175 m 0,85,86
 1161 175 1161 175 1168 178 c 0,87,88
 1178 182 1178 182 1178 190 c 256,89,90
 1178 198 1178 198 1167 203 c 0,91,92
 1157 206 1157 206 1150.5 220 c 128,-1,93
 1144 234 1144 234 1128 284 c 0,94,95
 1118 317 1118 317 1109 333 c 128,-1,96
 1100 349 1100 349 1087 356 c 128,-1,97
 1074 363 1074 363 1049 367 c 0,98,99
 1031 370 1031 370 1015 370 c 0,100,101
 996 370 996 370 983.5 366.5 c 128,-1,102
 971 363 971 363 968 357 c 2,103,-1
 968 355 l 2,104,105
 968 348 968 348 981 343 c 0,106,107
 993 339 993 339 1000 325 c 128,-1,108
 1007 311 1007 311 1023 259 c 0,109,110
 1034 224 1034 224 1047 206 c 128,-1,111
 1060 188 1060 188 1081 181 c 0,112,84
 1102 175 1102 175 1137 175 c 0,85,86
395 162 m 0,114,115
 420 162 420 162 446 165.5 c 128,-1,116
 472 169 472 169 483 175 c 0,117,118
 505 187 505 187 505 204 c 0,119,120
 505 220 505 220 487.5 237.5 c 128,-1,121
 470 255 470 255 439 268 c 0,122,123
 410 281 410 281 354.5 294.5 c 128,-1,124
 299 308 299 308 277 308 c 0,125,126
 265 308 265 308 257 303 c 128,-1,127
 249 298 249 298 249 290 c 0,128,129
 249 284 249 284 254 279 c 0,130,131
 257 276 257 276 271.5 272 c 128,-1,132
 286 268 286 268 304 266 c 0,133,134
 349 260 349 260 371.5 247.5 c 128,-1,135
 394 235 394 235 395 215 c 2,136,-1
 396 205 l 2,137,138
 396 197 396 197 392 195 c 128,-1,139
 388 193 388 193 375 191 c 0,140,141
 364 190 364 190 357 185.5 c 128,-1,142
 350 181 350 181 350 175 c 0,143,144
 350 167 350 167 364 164 c 0,145,113
 372 162 372 162 395 162 c 0,114,115
1214 -52 m 0,147,148
 1220 -52 1220 -52 1223 -46.5 c 128,-1,149
 1226 -41 1226 -41 1226 -32 c 0,150,151
 1226 -9 1226 -9 1211 3 c 0,152,153
 1111 88 1111 88 981 107 c 0,154,155
 957 110 957 110 856 110 c 0,156,157
 740 110 740 110 610 107 c 0,158,159
 479 104 479 104 371 104 c 0,160,161
 259 104 259 104 226 108 c 0,162,163
 90 125 90 125 57 145 c 0,164,165
 53 148 53 148 47 148 c 0,166,167
 38 148 38 148 33.5 139.5 c 128,-1,168
 29 131 29 131 31 118 c 0,169,170
 38 80 38 80 88 51 c 128,-1,171
 138 22 138 22 223 7 c 0,172,173
 318 -9 318 -9 426 -9 c 2,174,-1
 463 -9 l 2,175,176
 583 -6 583 -6 850 -6 c 0,177,178
 971 -6 971 -6 987 -7 c 0,179,180
 1089 -14 1089 -14 1145 -28 c 0,181,182
 1163 -32 1163 -32 1182 -38.5 c 128,-1,183
 1201 -45 1201 -45 1206 -49 c 0,184,146
 1211 -52 1211 -52 1214 -52 c 0,147,148
EndSplineSet
EndChar

StartChar: D
Encoding: 68 68 4
Width: 0
GlyphClass: 1
Flags: W
LayerCount: 2
Fore
SplineSet
-289 -220.5 m 128,-1,1
 -271 -223 -271 -223 -246 -223 c 0,2,3
 -214 -223 -214 -223 -202.5 -221.5 c 128,-1,4
 -191 -220 -191 -220 -185.5 -213.5 c 128,-1,5
 -180 -207 -180 -207 -172 -189 c 0,6,7
 -166 -175 -166 -175 -156.5 -161.5 c 128,-1,8
 -147 -148 -147 -148 -140 -144 c 0,9,10
 -130 -138 -130 -138 -140 -136 c 128,-1,11
 -150 -134 -150 -134 -189 -133 c 0,12,13
 -225 -133 -225 -133 -237.5 -134.5 c 128,-1,14
 -250 -136 -250 -136 -255.5 -141.5 c 128,-1,15
 -261 -147 -261 -147 -266 -163 c 0,16,17
 -271 -176 -271 -176 -278 -186.5 c 128,-1,18
 -285 -197 -285 -197 -292 -199 c 0,19,20
 -298 -201 -298 -201 -302.5 -205.5 c 128,-1,21
 -307 -210 -307 -210 -307 -214 c 256,22,0
 -307 -218 -307 -218 -289 -220.5 c 128,-1,1
EndSplineSet
EndChar

StartChar: F
Encoding: 70 70 6
Width: 0
GlyphClass: 1
Flags: W
LayerCount: 2
Fore
SplineSet
-381 -220.5 m 128,-1,1
 -363 -223 -363 -223 -338 -223 c 0,2,3
 -306 -223 -306 -223 -294.5 -221.5 c 128,-1,4
 -283 -220 -283 -220 -277.5 -213.5 c 128,-1,5
 -272 -207 -272 -207 -264 -189 c 0,6,7
 -258 -175 -258 -175 -248.5 -161.5 c 128,-1,8
 -239 -148 -239 -148 -232 -144 c 0,9,10
 -222 -138 -222 -138 -232 -136 c 128,-1,11
 -242 -134 -242 -134 -281 -133 c 0,12,13
 -317 -133 -317 -133 -329.5 -134.5 c 128,-1,14
 -342 -136 -342 -136 -347.5 -141.5 c 128,-1,15
 -353 -147 -353 -147 -358 -163 c 0,16,17
 -363 -176 -363 -176 -370 -186.5 c 128,-1,18
 -377 -197 -377 -197 -384 -199 c 0,19,20
 -390 -201 -390 -201 -394.5 -205.5 c 128,-1,21
 -399 -210 -399 -210 -399 -214 c 256,22,0
 -399 -218 -399 -218 -381 -220.5 c 128,-1,1
-217 -220.5 m 128,-1,24
 -199 -223 -199 -223 -174 -223 c 0,25,26
 -142 -223 -142 -223 -130.5 -221.5 c 128,-1,27
 -119 -220 -119 -220 -113.5 -213.5 c 128,-1,28
 -108 -207 -108 -207 -100 -189 c 0,29,30
 -94 -175 -94 -175 -84.5 -161.5 c 128,-1,31
 -75 -148 -75 -148 -68 -144 c 0,32,33
 -58 -138 -58 -138 -68 -136 c 128,-1,34
 -78 -134 -78 -134 -117 -133 c 0,35,36
 -153 -133 -153 -133 -165.5 -134.5 c 128,-1,37
 -178 -136 -178 -136 -183.5 -141.5 c 128,-1,38
 -189 -147 -189 -147 -194 -163 c 0,39,40
 -199 -176 -199 -176 -206 -186.5 c 128,-1,41
 -213 -197 -213 -197 -220 -199 c 0,42,43
 -226 -201 -226 -201 -230.5 -205.5 c 128,-1,44
 -235 -210 -235 -210 -235 -214 c 256,45,23
 -235 -218 -235 -218 -217 -220.5 c 128,-1,24
EndSplineSet
EndChar

StartChar: G
Encoding: 71 71 7
Width: 0
GlyphClass: 1
Flags: W
LayerCount: 2
Fore
SplineSet
-456 -220.5 m 128,-1,1
 -438 -223 -438 -223 -413 -223 c 0,2,3
 -381 -223 -381 -223 -369.5 -221.5 c 128,-1,4
 -358 -220 -358 -220 -352.5 -213.5 c 128,-1,5
 -347 -207 -347 -207 -339 -189 c 0,6,7
 -333 -175 -333 -175 -323.5 -161.5 c 128,-1,8
 -314 -148 -314 -148 -307 -144 c 0,9,10
 -297 -138 -297 -138 -307 -136 c 128,-1,11
 -317 -134 -317 -134 -356 -133 c 0,12,13
 -392 -133 -392 -133 -404.5 -134.5 c 128,-1,14
 -417 -136 -417 -136 -422.5 -141.5 c 128,-1,15
 -428 -147 -428 -147 -433 -163 c 0,16,17
 -438 -176 -438 -176 -445 -186.5 c 128,-1,18
 -452 -197 -452 -197 -459 -199 c 0,19,20
 -465 -201 -465 -201 -469.5 -205.5 c 128,-1,21
 -474 -210 -474 -210 -474 -214 c 256,22,0
 -474 -218 -474 -218 -456 -220.5 c 128,-1,1
-287 -220.5 m 128,-1,24
 -269 -223 -269 -223 -244 -223 c 0,25,26
 -212 -223 -212 -223 -200.5 -221.5 c 128,-1,27
 -189 -220 -189 -220 -183.5 -213.5 c 128,-1,28
 -178 -207 -178 -207 -170 -189 c 0,29,30
 -164 -175 -164 -175 -154.5 -161.5 c 128,-1,31
 -145 -148 -145 -148 -138 -144 c 0,32,33
 -128 -138 -128 -138 -138 -136 c 128,-1,34
 -148 -134 -148 -134 -187 -133 c 0,35,36
 -223 -133 -223 -133 -235.5 -134.5 c 128,-1,37
 -248 -136 -248 -136 -253.5 -141.5 c 128,-1,38
 -259 -147 -259 -147 -264 -163 c 0,39,40
 -269 -176 -269 -176 -276 -186.5 c 128,-1,41
 -283 -197 -283 -197 -290 -199 c 0,42,43
 -296 -201 -296 -201 -300.5 -205.5 c 128,-1,44
 -305 -210 -305 -210 -305 -214 c 256,45,23
 -305 -218 -305 -218 -287 -220.5 c 128,-1,24
-118 -220.5 m 128,-1,47
 -100 -223 -100 -223 -75 -223 c 0,48,49
 -43 -223 -43 -223 -31.5 -221.5 c 128,-1,50
 -20 -220 -20 -220 -14.5 -213.5 c 128,-1,51
 -9 -207 -9 -207 -1 -189 c 0,52,53
 5 -175 5 -175 14.5 -161.5 c 128,-1,54
 24 -148 24 -148 31 -144 c 0,55,56
 41 -138 41 -138 31 -136 c 128,-1,57
 21 -134 21 -134 -18 -133 c 0,58,59
 -54 -133 -54 -133 -66.5 -134.5 c 128,-1,60
 -79 -136 -79 -136 -84.5 -141.5 c 128,-1,61
 -90 -147 -90 -147 -95 -163 c 0,62,63
 -100 -176 -100 -176 -107 -186.5 c 128,-1,64
 -114 -197 -114 -197 -121 -199 c 0,65,66
 -127 -201 -127 -201 -131.5 -205.5 c 128,-1,67
 -136 -210 -136 -210 -136 -214 c 256,68,46
 -136 -218 -136 -218 -118 -220.5 c 128,-1,47
EndSplineSet
EndChar

StartChar: H
Encoding: 72 72 8
Width: 0
GlyphClass: 1
Flags: W
LayerCount: 2
Fore
SplineSet
-325 -220.5 m 128,-1,1
 -307 -223 -307 -223 -282 -223 c 0,2,3
 -250 -223 -250 -223 -238.5 -221.5 c 128,-1,4
 -227 -220 -227 -220 -221.5 -213.5 c 128,-1,5
 -216 -207 -216 -207 -208 -189 c 0,6,7
 -202 -175 -202 -175 -192.5 -161.5 c 128,-1,8
 -183 -148 -183 -148 -176 -144 c 0,9,10
 -166 -138 -166 -138 -176 -136 c 128,-1,11
 -186 -134 -186 -134 -225 -133 c 0,12,13
 -261 -133 -261 -133 -273.5 -134.5 c 128,-1,14
 -286 -136 -286 -136 -291.5 -141.5 c 128,-1,15
 -297 -147 -297 -147 -302 -163 c 0,16,17
 -307 -176 -307 -176 -314 -186.5 c 128,-1,18
 -321 -197 -321 -197 -328 -199 c 0,19,20
 -334 -201 -334 -201 -338.5 -205.5 c 128,-1,21
 -343 -210 -343 -210 -343 -214 c 256,22,0
 -343 -218 -343 -218 -325 -220.5 c 128,-1,1
-157 -220.5 m 128,-1,24
 -139 -223 -139 -223 -114 -223 c 0,25,26
 -82 -223 -82 -223 -70.5 -221.5 c 128,-1,27
 -59 -220 -59 -220 -53.5 -213.5 c 128,-1,28
 -48 -207 -48 -207 -40 -189 c 0,29,30
 -34 -175 -34 -175 -24.5 -161.5 c 128,-1,31
 -15 -148 -15 -148 -8 -144 c 0,32,33
 2 -138 2 -138 -8 -136 c 128,-1,34
 -18 -134 -18 -134 -57 -133 c 0,35,36
 -93 -133 -93 -133 -105.5 -134.5 c 128,-1,37
 -118 -136 -118 -136 -123.5 -141.5 c 128,-1,38
 -129 -147 -129 -147 -134 -163 c 0,39,40
 -139 -176 -139 -176 -146 -186.5 c 128,-1,41
 -153 -197 -153 -197 -160 -199 c 0,42,43
 -166 -201 -166 -201 -170.5 -205.5 c 128,-1,44
 -175 -210 -175 -210 -175 -214 c 256,45,23
 -175 -218 -175 -218 -157 -220.5 c 128,-1,24
11 -220.5 m 128,-1,47
 29 -223 29 -223 54 -223 c 0,48,49
 86 -223 86 -223 97.5 -221.5 c 128,-1,50
 109 -220 109 -220 114.5 -213.5 c 128,-1,51
 120 -207 120 -207 128 -189 c 0,52,53
 134 -175 134 -175 143.5 -161.5 c 128,-1,54
 153 -148 153 -148 160 -144 c 0,55,56
 170 -138 170 -138 160 -136 c 128,-1,57
 150 -134 150 -134 111 -133 c 0,58,59
 75 -133 75 -133 62.5 -134.5 c 128,-1,60
 50 -136 50 -136 44.5 -141.5 c 128,-1,61
 39 -147 39 -147 34 -163 c 0,62,63
 29 -176 29 -176 22 -186.5 c 128,-1,64
 15 -197 15 -197 8 -199 c 0,65,66
 2 -201 2 -201 -2.5 -205.5 c 128,-1,67
 -7 -210 -7 -210 -7 -214 c 256,68,46
 -7 -218 -7 -218 11 -220.5 c 128,-1,47
-493 -221.5 m 128,-1,70
 -475 -224 -475 -224 -450 -224 c 0,71,72
 -418 -224 -418 -224 -406.5 -222.5 c 128,-1,73
 -395 -221 -395 -221 -389.5 -214.5 c 128,-1,74
 -384 -208 -384 -208 -376 -190 c 0,75,76
 -370 -176 -370 -176 -360.5 -162.5 c 128,-1,77
 -351 -149 -351 -149 -344 -145 c 0,78,79
 -334 -139 -334 -139 -344 -137 c 128,-1,80
 -354 -135 -354 -135 -393 -134 c 0,81,82
 -429 -134 -429 -134 -441.5 -135.5 c 128,-1,83
 -454 -137 -454 -137 -459.5 -142.5 c 128,-1,84
 -465 -148 -465 -148 -470 -164 c 0,85,86
 -475 -177 -475 -177 -482 -187.5 c 128,-1,87
 -489 -198 -489 -198 -496 -200 c 0,88,89
 -502 -202 -502 -202 -506.5 -206.5 c 128,-1,90
 -511 -211 -511 -211 -511 -215 c 256,91,69
 -511 -219 -511 -219 -493 -221.5 c 128,-1,70
EndSplineSet
EndChar

StartChar: J
Encoding: 74 74 10
Width: 0
GlyphClass: 1
Flags: W
LayerCount: 2
Fore
SplineSet
-23 -479 m 0,1,2
 7 -479 7 -479 25 -470 c 0,3,4
 37 -463 37 -463 45 -443.5 c 128,-1,5
 53 -424 53 -424 53 -403 c 0,6,7
 53 -391 53 -391 50 -380 c 0,8,9
 43 -359 43 -359 -1 -338 c 128,-1,10
 -45 -317 -45 -317 -113 -302 c 0,11,12
 -160 -293 -160 -293 -233.5 -289.5 c 128,-1,13
 -307 -286 -307 -286 -470 -286 c 0,14,15
 -715 -286 -715 -286 -852.5 -299.5 c 128,-1,16
 -990 -313 -990 -313 -990 -336 c 0,17,18
 -990 -344 -990 -344 -979 -347.5 c 128,-1,19
 -968 -351 -968 -351 -937 -351 c 0,20,21
 -928 -351 -928 -351 -874 -349 c 2,22,-1
 -838 -347 l 2,23,24
 -736 -341 -736 -341 -586 -341 c 0,25,26
 -424 -341 -424 -341 -283 -347.5 c 128,-1,27
 -142 -354 -142 -354 -112 -363 c 0,28,29
 -76 -374 -76 -374 -51.5 -390 c 128,-1,30
 -27 -406 -27 -406 -27 -416 c 0,31,32
 -27 -423 -27 -423 -42 -423 c 0,33,34
 -50 -423 -50 -423 -55 -422 c 0,35,36
 -73 -420 -73 -420 -83.5 -426 c 128,-1,37
 -94 -432 -94 -432 -94 -443 c 0,38,39
 -94 -456 -94 -456 -80 -466 c 0,40,0
 -63 -479 -63 -479 -23 -479 c 0,1,2
EndSplineSet
EndChar

StartChar: N
Encoding: 78 78 14
Width: 0
GlyphClass: 1
Flags: W
LayerCount: 2
Fore
SplineSet
-647 -547 m 256,1,2
 -619 -547 -619 -547 -569 -545 c 0,3,4
 -499 -541 -499 -541 -440.5 -523.5 c 128,-1,5
 -382 -506 -382 -506 -316 -469 c 128,-1,6
 -250 -432 -250 -432 -157 -365 c 0,7,8
 -90 -316 -90 -316 -8 -264 c 0,9,10
 24 -244 24 -244 40 -227 c 128,-1,11
 56 -210 56 -210 48 -203 c 0,12,13
 43 -198 43 -198 -1 -198 c 0,14,15
 -32 -198 -32 -198 -68 -201 c 128,-1,16
 -104 -204 -104 -204 -125 -208 c 0,17,18
 -171 -218 -171 -218 -196 -227 c 128,-1,19
 -221 -236 -221 -236 -235 -251 c 0,20,21
 -255 -271 -255 -271 -307 -311.5 c 128,-1,22
 -359 -352 -359 -352 -396 -375 c 0,23,24
 -495 -437 -495 -437 -574 -464 c 0,25,26
 -631 -483 -631 -483 -696 -483 c 0,27,28
 -794 -483 -794 -483 -915 -440 c 0,29,30
 -925 -437 -925 -437 -951.5 -427.5 c 128,-1,31
 -978 -418 -978 -418 -986 -418 c 0,32,33
 -995 -418 -995 -418 -999 -425 c 0,34,35
 -1002 -430 -1002 -430 -1002 -434 c 0,36,37
 -1002 -451 -1002 -451 -944 -476 c 0,38,39
 -822 -532 -822 -532 -683 -546 c 0,40,0
 -675 -547 -675 -547 -647 -547 c 256,1,2
EndSplineSet
EndChar

StartChar: S
Encoding: 83 83 19
Width: 0
GlyphClass: 1
Flags: W
LayerCount: 2
Fore
SplineSet
-408 -291 m 0,1,2
 -363 -291 -363 -291 -347 -288 c 128,-1,3
 -331 -285 -331 -285 -320 -274 c 0,4,5
 -304 -258 -304 -258 -304 -231 c 0,6,7
 -304 -218 -304 -218 -309 -201 c 0,8,9
 -316 -182 -316 -182 -346 -172 c 128,-1,10
 -376 -162 -376 -162 -425 -162 c 0,11,12
 -494 -162 -494 -162 -494 -183 c 0,13,14
 -494 -194 -494 -194 -474 -211 c 0,15,16
 -460 -222 -460 -222 -460 -230 c 0,17,18
 -460 -236 -460 -236 -474 -236 c 0,19,20
 -493 -236 -493 -236 -532 -225 c 128,-1,21
 -571 -214 -571 -214 -620 -194 c 0,22,23
 -640 -185 -640 -185 -657 -179 c 128,-1,24
 -674 -173 -674 -173 -681 -173 c 0,25,26
 -692 -173 -692 -173 -692 -184 c 0,27,28
 -692 -191 -692 -191 -689 -201 c 0,29,30
 -682 -229 -682 -229 -638 -251 c 128,-1,31
 -594 -273 -594 -273 -519 -283 c 0,32,0
 -460 -291 -460 -291 -408 -291 c 0,1,2
EndSplineSet
EndChar

StartChar: V
Encoding: 86 86 22
Width: 1654
GlyphClass: 1
Flags: W
LayerCount: 2
Fore
SplineSet
270 196 m 0,1,2
 314 196 314 196 349 207 c 0,3,4
 407 226 407 226 407 255 c 0,5,6
 407 273 407 273 388 292 c 0,7,8
 369 312 369 312 311 333.5 c 128,-1,9
 253 355 253 355 185.5 369 c 128,-1,10
 118 383 118 383 75 383 c 0,11,12
 36 383 36 383 32 371 c 0,13,14
 29 364 29 364 29 357 c 0,15,16
 29 344 29 344 47.5 338 c 128,-1,17
 66 332 66 332 115 329 c 0,18,19
 178 325 178 325 211 316.5 c 128,-1,20
 244 308 244 308 258 292 c 0,21,22
 271 278 271 278 271 266 c 0,23,24
 271 249 271 249 240 243 c 0,25,26
 224 240 224 240 215 233.5 c 128,-1,27
 206 227 206 227 206 219 c 0,28,29
 206 210 206 210 220 203 c 0,30,0
 235 196 235 196 270 196 c 0,1,2
623 182 m 0,32,33
 632 182 632 182 636 184.5 c 128,-1,34
 640 187 640 187 642 193 c 0,35,36
 646 204 646 204 638.5 210.5 c 128,-1,37
 631 217 631 217 607 221 c 0,38,39
 578 226 578 226 560 242 c 128,-1,40
 542 258 542 258 542 277 c 0,41,42
 542 313 542 313 585.5 330.5 c 128,-1,43
 629 348 629 348 722 348 c 0,44,45
 819 348 819 348 878.5 330.5 c 128,-1,46
 938 313 938 313 972 274 c 0,47,48
 987 258 987 258 987 247 c 0,49,50
 987 238 987 238 976 232.5 c 128,-1,51
 965 227 965 227 937 221 c 0,52,53
 926 219 926 219 919 216 c 128,-1,54
 912 213 912 213 912 209 c 0,55,56
 912 198 912 198 951.5 190 c 128,-1,57
 991 182 991 182 1034 182 c 0,58,59
 1073 182 1073 182 1091 189 c 256,60,61
 1109 196 1109 196 1113 202 c 128,-1,62
 1117 208 1117 208 1119 230 c 0,63,64
 1122 283 1122 283 1066 317 c 128,-1,65
 1010 351 1010 351 885 371 c 0,66,67
 777 388 777 388 711 388 c 0,68,69
 651 388 651 388 592 376 c 0,70,71
 503 358 503 358 464 336 c 128,-1,72
 425 314 425 314 425 281 c 0,73,74
 425 277 425 277 427 267 c 0,75,76
 432 242 432 242 471 221.5 c 128,-1,77
 510 201 510 201 575 188 c 0,78,31
 611 182 611 182 623 182 c 0,32,33
1327 175 m 0,80,81
 1351 175 1351 175 1358 178 c 0,82,83
 1368 182 1368 182 1368 190 c 256,84,85
 1368 198 1368 198 1357 203 c 0,86,87
 1347 206 1347 206 1340 220.5 c 128,-1,88
 1333 235 1333 235 1318 284 c 0,89,90
 1308 317 1308 317 1299 333 c 128,-1,91
 1290 349 1290 349 1277 356.5 c 128,-1,92
 1264 364 1264 364 1239 367 c 0,93,94
 1221 370 1221 370 1205 370 c 0,95,96
 1186 370 1186 370 1173.5 366.5 c 128,-1,97
 1161 363 1161 363 1158 357 c 2,98,-1
 1158 355 l 2,99,100
 1158 348 1158 348 1171 343 c 0,101,102
 1183 339 1183 339 1190 325 c 128,-1,103
 1197 311 1197 311 1213 259 c 0,104,105
 1224 224 1224 224 1237 206 c 128,-1,106
 1250 188 1250 188 1271 181 c 0,107,79
 1292 175 1292 175 1327 175 c 0,80,81
1507 175 m 0,109,110
 1531 175 1531 175 1538 178 c 0,111,112
 1548 182 1548 182 1548 190 c 256,113,114
 1548 198 1548 198 1537 203 c 0,115,116
 1527 206 1527 206 1520.5 220 c 128,-1,117
 1514 234 1514 234 1498 284 c 0,118,119
 1488 317 1488 317 1479 333 c 128,-1,120
 1470 349 1470 349 1457 356 c 128,-1,121
 1444 363 1444 363 1419 367 c 0,122,123
 1401 370 1401 370 1385 370 c 0,124,125
 1366 370 1366 370 1353.5 366.5 c 128,-1,126
 1341 363 1341 363 1338 357 c 2,127,-1
 1338 355 l 2,128,129
 1338 348 1338 348 1351 343 c 0,130,131
 1363 339 1363 339 1370 325 c 128,-1,132
 1377 311 1377 311 1393 259 c 0,133,134
 1404 224 1404 224 1417 206 c 128,-1,135
 1430 188 1430 188 1451 181 c 0,136,108
 1472 175 1472 175 1507 175 c 0,109,110
1613 -52 m 0,138,139
 1619 -52 1619 -52 1622 -46.5 c 128,-1,140
 1625 -41 1625 -41 1625 -32 c 0,141,142
 1625 -9 1625 -9 1610 3 c 0,143,144
 1510 88 1510 88 1380 107 c 0,145,146
 1356 110 1356 110 1255 110 c 0,147,148
 1140 110 1140 110 1009 107 c 0,149,150
 879 104 879 104 770 104 c 0,151,152
 658 104 658 104 625 108 c 0,153,154
 489 125 489 125 456 145 c 0,155,156
 452 148 452 148 446 148 c 0,157,158
 437 148 437 148 432.5 139.5 c 128,-1,159
 428 131 428 131 430 118 c 0,160,161
 437 80 437 80 487 51 c 128,-1,162
 537 22 537 22 622 7 c 0,163,164
 717 -9 717 -9 825 -9 c 2,165,-1
 862 -9 l 2,166,167
 982 -6 982 -6 1249 -6 c 0,168,169
 1370 -6 1370 -6 1386 -7 c 0,170,171
 1488 -14 1488 -14 1544 -28 c 0,172,173
 1562 -32 1562 -32 1581 -38.5 c 128,-1,174
 1600 -45 1600 -45 1605 -49 c 0,175,137
 1610 -52 1610 -52 1613 -52 c 0,138,139
EndSplineSet
EndChar

StartChar: X
Encoding: 88 88 24
Width: 1256
GlyphClass: 1
Flags: W
LayerCount: 2
Fore
SplineSet
400 186 m 0,1,2
 471 186 471 186 522 201 c 0,3,4
 611 228 611 228 611 266 c 0,5,6
 611 287 611 287 582 314 c 256,7,8
 553 341 553 341 463.5 369.5 c 128,-1,9
 374 398 374 398 270 417 c 128,-1,10
 166 436 166 436 100 436 c 0,11,12
 41 436 41 436 34 419 c 0,13,14
 30 410 30 410 30 401 c 0,15,16
 30 383 30 383 58.5 375.5 c 128,-1,17
 87 368 87 368 162 364 c 0,18,19
 259 359 259 359 309.5 347.5 c 128,-1,20
 360 336 360 336 382 314 c 0,21,22
 402 294 402 294 402 279 c 0,23,24
 402 257 402 257 354 249 c 0,25,26
 329 245 329 245 315 236 c 128,-1,27
 301 227 301 227 301 217 c 0,28,29
 301 205 301 205 323 196 c 0,30,0
 346 186 346 186 400 186 c 0,1,2
908 182 m 0,32,33
 935 182 935 182 943 186 c 0,34,35
 954 190 954 190 954 199 c 0,36,37
 954 209 954 209 942 213 c 0,38,39
 931 217 931 217 923 233 c 128,-1,40
 915 249 915 249 899 303 c 0,41,42
 888 340 888 340 878 358 c 128,-1,43
 868 376 868 376 853 384 c 128,-1,44
 838 392 838 392 811 396 c 0,45,46
 791 399 791 399 774 399 c 0,47,48
 753 399 753 399 738.5 395 c 128,-1,49
 724 391 724 391 721 384 c 2,50,-1
 721 382 l 2,51,52
 721 379 721 379 725 375 c 128,-1,53
 729 371 729 371 736 369 c 0,54,55
 749 364 749 364 757 348 c 128,-1,56
 765 332 765 332 782 276 c 0,57,58
 794 236 794 236 808.5 216 c 128,-1,59
 823 196 823 196 847 189 c 0,60,31
 868 182 868 182 908 182 c 0,32,33
1108 182 m 0,62,63
 1135 182 1135 182 1143 186 c 0,64,65
 1154 190 1154 190 1154 199 c 0,66,67
 1154 209 1154 209 1142 213 c 0,68,69
 1131 217 1131 217 1123.5 232.5 c 128,-1,70
 1116 248 1116 248 1099 303 c 0,71,72
 1088 339 1088 339 1078 357 c 128,-1,73
 1068 375 1068 375 1053 383.5 c 128,-1,74
 1038 392 1038 392 1011 396 c 0,75,76
 992 399 992 399 974 399 c 0,77,78
 953 399 953 399 938.5 395 c 128,-1,79
 924 391 924 391 921 384 c 2,80,-1
 921 382 l 2,81,82
 921 379 921 379 925 375 c 128,-1,83
 929 371 929 371 936 369 c 0,84,85
 949 364 949 364 957 348 c 128,-1,86
 965 332 965 332 982 276 c 0,87,88
 994 236 994 236 1008.5 216 c 128,-1,89
 1023 196 1023 196 1047 189 c 0,90,61
 1068 182 1068 182 1108 182 c 0,62,63
1214 -52 m 0,92,93
 1220 -52 1220 -52 1223 -46.5 c 128,-1,94
 1226 -41 1226 -41 1226 -32 c 0,95,96
 1226 -9 1226 -9 1211 3 c 0,97,98
 1111 88 1111 88 981 107 c 0,99,100
 957 110 957 110 856 110 c 0,101,102
 740 110 740 110 610 107 c 0,103,104
 479 104 479 104 371 104 c 0,105,106
 259 104 259 104 226 108 c 0,107,108
 90 125 90 125 57 145 c 0,109,110
 53 148 53 148 47 148 c 0,111,112
 38 148 38 148 33.5 139.5 c 128,-1,113
 29 131 29 131 31 118 c 0,114,115
 38 80 38 80 88 51 c 128,-1,116
 138 22 138 22 223 7 c 0,117,118
 318 -9 318 -9 426 -9 c 2,119,-1
 463 -9 l 2,120,121
 583 -6 583 -6 850 -6 c 0,122,123
 971 -6 971 -6 987 -7 c 0,124,125
 1089 -14 1089 -14 1145 -28 c 0,126,127
 1163 -32 1163 -32 1182 -38.5 c 128,-1,128
 1201 -45 1201 -45 1206 -49 c 0,129,91
 1211 -52 1211 -52 1214 -52 c 0,92,93
EndSplineSet
EndChar

StartChar: a
Encoding: 97 97 27
Width: 0
GlyphClass: 1
Flags: W
LayerCount: 2
Fore
SplineSet
-508 199 m 0,1,2
 -463 199 -463 199 -447 202 c 128,-1,3
 -431 205 -431 205 -420 216 c 0,4,5
 -404 232 -404 232 -404 259 c 0,6,7
 -404 272 -404 272 -409 289 c 0,8,9
 -416 308 -416 308 -446 318 c 128,-1,10
 -476 328 -476 328 -525 328 c 0,11,12
 -594 328 -594 328 -594 307 c 0,13,14
 -594 296 -594 296 -574 279 c 0,15,16
 -560 268 -560 268 -560 260 c 0,17,18
 -560 254 -560 254 -574 254 c 0,19,20
 -593 254 -593 254 -632 265 c 128,-1,21
 -671 276 -671 276 -720 296 c 0,22,23
 -740 305 -740 305 -757 311 c 128,-1,24
 -774 317 -774 317 -781 317 c 0,25,26
 -792 317 -792 317 -792 306 c 0,27,28
 -792 300 -792 300 -789 289 c 0,29,30
 -782 261 -782 261 -738 239 c 128,-1,31
 -694 217 -694 217 -619 207 c 0,32,0
 -560 199 -560 199 -508 199 c 0,1,2
EndSplineSet
EndChar

StartChar: aring
Encoding: 229 229 28
Width: 0
GlyphClass: 1
Flags: W
LayerCount: 2
Fore
SplineSet
-498 249 m 0,1,2
 -453 249 -453 249 -437 252 c 128,-1,3
 -421 255 -421 255 -410 266 c 0,4,5
 -394 282 -394 282 -394 309 c 0,6,7
 -394 322 -394 322 -399 339 c 0,8,9
 -406 358 -406 358 -436 368 c 128,-1,10
 -466 378 -466 378 -515 378 c 0,11,12
 -584 378 -584 378 -584 357 c 0,13,14
 -584 346 -584 346 -564 329 c 0,15,16
 -550 318 -550 318 -550 310 c 0,17,18
 -550 304 -550 304 -564 304 c 0,19,20
 -583 304 -583 304 -622 315 c 128,-1,21
 -661 326 -661 326 -710 346 c 0,22,23
 -730 355 -730 355 -747 361 c 128,-1,24
 -764 367 -764 367 -771 367 c 0,25,26
 -782 367 -782 367 -782 356 c 0,27,28
 -782 350 -782 350 -779 339 c 0,29,30
 -772 311 -772 311 -728 289 c 128,-1,31
 -684 267 -684 267 -609 257 c 0,32,0
 -550 249 -550 249 -498 249 c 0,1,2
EndSplineSet
EndChar

StartChar: b
Encoding: 98 98 29
Width: 1362
GlyphClass: 1
Flags: W
LayerCount: 2
Fore
SplineSet
498.5 204.5 m 128,-1,1
 512 223 512 223 514 243 c 0,2,3
 514 246 514 246 524 246 c 0,4,5
 537 246 537 246 549 245 c 0,6,7
 614 242 614 242 652 241 c 0,8,9
 740 239 740 239 770 237 c 128,-1,10
 800 235 800 235 815 229 c 0,11,12
 836 222 836 222 841 222 c 0,13,14
 854 222 854 222 854 239 c 0,15,16
 854 264 854 264 807.5 275.5 c 128,-1,17
 761 287 761 287 643 292 c 0,18,19
 599 294 599 294 564 297 c 128,-1,20
 529 300 529 300 518 302 c 0,21,22
 516 302 516 302 516 305 c 0,23,24
 516 309 516 309 519 321 c 0,25,26
 521 330 521 330 525.5 331.5 c 128,-1,27
 530 333 530 333 532 337 c 0,28,29
 537 347 537 347 537 351 c 0,30,31
 537 373 537 373 476 373 c 0,32,33
 438 373 438 373 438 328 c 0,34,35
 438 322 438 322 437.5 315 c 128,-1,36
 437 308 437 308 435 308 c 0,37,38
 412 308 412 308 404 310 c 0,39,40
 350 318 350 318 311.5 351 c 128,-1,41
 273 384 273 384 259 434 c 0,42,43
 247 478 247 478 210 506 c 128,-1,44
 173 534 173 534 116 543 c 0,45,46
 70 550 70 550 57 550 c 0,47,48
 43 550 43 550 36.5 546.5 c 128,-1,49
 30 543 30 543 30 536 c 256,50,51
 30 529 30 529 34 521 c 0,52,53
 39 510 39 510 46 506.5 c 128,-1,54
 53 503 53 503 72 503 c 0,55,56
 100 503 100 503 118 484.5 c 128,-1,57
 136 466 136 466 154 414 c 0,58,59
 173 362 173 362 204 333 c 128,-1,60
 235 304 235 304 289 285 c 0,61,62
 310 278 310 278 336 272.5 c 128,-1,63
 362 267 362 267 376 265 c 2,64,-1
 402 262 l 2,65,66
 415 261 415 261 422 259.5 c 128,-1,67
 429 258 429 258 429 256 c 0,68,69
 429 248 429 248 423 232 c 0,70,71
 411 207 411 207 411 201 c 0,72,73
 411 197 411 197 415.5 194.5 c 128,-1,74
 420 192 420 192 425 191 c 128,-1,75
 430 190 430 190 432 189 c 0,76,77
 453 184 453 184 473 185 c 0,78,0
 485 186 485 186 498.5 204.5 c 128,-1,1
1057 175 m 0,80,81
 1081 175 1081 175 1088 178 c 0,82,83
 1098 182 1098 182 1098 190 c 256,84,85
 1098 198 1098 198 1087 203 c 0,86,87
 1077 206 1077 206 1070 220.5 c 128,-1,88
 1063 235 1063 235 1048 284 c 0,89,90
 1038 317 1038 317 1029 333 c 128,-1,91
 1020 349 1020 349 1007 356.5 c 128,-1,92
 994 364 994 364 969 367 c 0,93,94
 951 370 951 370 935 370 c 0,95,96
 916 370 916 370 903.5 366.5 c 128,-1,97
 891 363 891 363 888 357 c 2,98,-1
 888 355 l 2,99,100
 888 348 888 348 901 343 c 0,101,102
 913 339 913 339 920 325 c 128,-1,103
 927 311 927 311 943 259 c 0,104,105
 954 224 954 224 967 206 c 128,-1,106
 980 188 980 188 1001 181 c 0,107,79
 1022 175 1022 175 1057 175 c 0,80,81
1237 175 m 0,109,110
 1261 175 1261 175 1268 178 c 0,111,112
 1278 182 1278 182 1278 190 c 256,113,114
 1278 198 1278 198 1267 203 c 0,115,116
 1257 206 1257 206 1250.5 220 c 128,-1,117
 1244 234 1244 234 1228 284 c 0,118,119
 1218 317 1218 317 1209 333 c 128,-1,120
 1200 349 1200 349 1187 356 c 128,-1,121
 1174 363 1174 363 1149 367 c 0,122,123
 1131 370 1131 370 1115 370 c 0,124,125
 1096 370 1096 370 1083.5 366.5 c 128,-1,126
 1071 363 1071 363 1068 357 c 2,127,-1
 1068 355 l 2,128,129
 1068 348 1068 348 1081 343 c 0,130,131
 1093 339 1093 339 1100 325 c 128,-1,132
 1107 311 1107 311 1123 259 c 0,133,134
 1134 224 1134 224 1147 206 c 128,-1,135
 1160 188 1160 188 1181 181 c 0,136,108
 1202 175 1202 175 1237 175 c 0,109,110
1320 -52 m 0,138,139
 1326 -52 1326 -52 1329 -46.5 c 128,-1,140
 1332 -41 1332 -41 1332 -32 c 0,141,142
 1332 -9 1332 -9 1317 3 c 0,143,144
 1217 88 1217 88 1087 107 c 0,145,146
 1063 110 1063 110 962 110 c 0,147,148
 847 110 847 110 716 107 c 0,149,150
 586 104 586 104 477 104 c 0,151,152
 365 104 365 104 332 108 c 0,153,154
 196 125 196 125 163 145 c 0,155,156
 159 148 159 148 153 148 c 0,157,158
 144 148 144 148 139.5 139.5 c 128,-1,159
 135 131 135 131 137 118 c 0,160,161
 144 80 144 80 194 51 c 128,-1,162
 244 22 244 22 329 7 c 0,163,164
 424 -9 424 -9 532 -9 c 2,165,-1
 569 -9 l 2,166,167
 689 -6 689 -6 956 -6 c 0,168,169
 1077 -6 1077 -6 1093 -7 c 0,170,171
 1195 -14 1195 -14 1251 -28 c 0,172,173
 1269 -32 1269 -32 1288 -38.5 c 128,-1,174
 1307 -45 1307 -45 1312 -49 c 0,175,137
 1317 -52 1317 -52 1320 -52 c 0,138,139
EndSplineSet
EndChar

StartChar: c
Encoding: 99 99 30
Width: 1258
GlyphClass: 1
Flags: W
LayerCount: 2
Fore
SplineSet
235 171.5 m 128,-1,1
 243 170 243 170 246.5 170 c 128,-1,2
 250 170 250 170 252 171 c 0,3,4
 259 174 259 174 262.5 185 c 128,-1,5
 266 196 266 196 261 200 c 0,6,7
 258 205 258 205 241 208 c 0,8,9
 198 215 198 215 175.5 232 c 128,-1,10
 153 249 153 249 153 271 c 0,11,12
 153 308 153 308 204.5 328 c 128,-1,13
 256 348 256 348 350 348 c 0,14,15
 540 348 540 348 606 275 c 0,16,17
 617 262 617 262 621.5 255 c 128,-1,18
 626 248 626 248 626 242 c 0,19,20
 626 217 626 217 586 215 c 0,21,22
 568 213 568 213 560.5 211 c 128,-1,23
 553 209 553 209 550 205 c 2,24,-1
 548 200 l 2,25,26
 548 195 548 195 557 189 c 0,27,28
 567 182 567 182 619.5 175 c 128,-1,29
 672 168 672 168 695 171 c 0,30,31
 729 176 729 176 743 179.5 c 128,-1,32
 757 183 757 183 763 191.5 c 128,-1,33
 769 200 769 200 769 219 c 0,34,35
 769 243 769 243 763 258.5 c 128,-1,36
 757 274 757 274 741 289 c 0,37,38
 681 349 681 349 514 371 c 0,39,40
 394 387 394 387 327 387 c 0,41,42
 275 387 275 387 224 378.5 c 128,-1,43
 173 370 173 370 111 350 c 0,44,45
 73 338 73 338 56 326 c 128,-1,46
 39 314 39 314 34 296 c 0,47,48
 31 286 31 286 31 274 c 256,49,50
 31 262 31 262 34 256 c 0,51,52
 44 229 44 229 88 208 c 128,-1,53
 132 187 132 187 209 176 c 0,54,0
 227 173 227 173 235 171.5 c 128,-1,1
957 175 m 0,56,57
 981 175 981 175 988 178 c 0,58,59
 998 182 998 182 998 190 c 256,60,61
 998 198 998 198 987 203 c 0,62,63
 977 206 977 206 970 220.5 c 128,-1,64
 963 235 963 235 948 284 c 0,65,66
 938 317 938 317 929 333 c 128,-1,67
 920 349 920 349 907 356.5 c 128,-1,68
 894 364 894 364 869 367 c 0,69,70
 851 370 851 370 835 370 c 0,71,72
 816 370 816 370 803.5 366.5 c 128,-1,73
 791 363 791 363 788 357 c 2,74,-1
 788 355 l 2,75,76
 788 348 788 348 801 343 c 0,77,78
 813 339 813 339 820 325 c 128,-1,79
 827 311 827 311 843 259 c 0,80,81
 854 224 854 224 867 206 c 128,-1,82
 880 188 880 188 901 181 c 0,83,55
 922 175 922 175 957 175 c 0,56,57
1137 175 m 0,85,86
 1161 175 1161 175 1168 178 c 0,87,88
 1178 182 1178 182 1178 190 c 256,89,90
 1178 198 1178 198 1167 203 c 0,91,92
 1157 206 1157 206 1150.5 220 c 128,-1,93
 1144 234 1144 234 1128 284 c 0,94,95
 1118 317 1118 317 1109 333 c 128,-1,96
 1100 349 1100 349 1087 356 c 128,-1,97
 1074 363 1074 363 1049 367 c 0,98,99
 1031 370 1031 370 1015 370 c 0,100,101
 996 370 996 370 983.5 366.5 c 128,-1,102
 971 363 971 363 968 357 c 2,103,-1
 968 355 l 2,104,105
 968 348 968 348 981 343 c 0,106,107
 993 339 993 339 1000 325 c 128,-1,108
 1007 311 1007 311 1023 259 c 0,109,110
 1034 224 1034 224 1047 206 c 128,-1,111
 1060 188 1060 188 1081 181 c 0,112,84
 1102 175 1102 175 1137 175 c 0,85,86
1216 -52 m 0,114,115
 1222 -52 1222 -52 1225 -46.5 c 128,-1,116
 1228 -41 1228 -41 1228 -32 c 0,117,118
 1228 -9 1228 -9 1213 3 c 0,119,120
 1113 88 1113 88 983 107 c 0,121,122
 959 110 959 110 858 110 c 0,123,124
 743 110 743 110 612 107 c 0,125,126
 482 104 482 104 373 104 c 0,127,128
 261 104 261 104 228 108 c 0,129,130
 92 125 92 125 59 145 c 0,131,132
 54 148 54 148 49 148 c 0,133,134
 40 148 40 148 35.5 139.5 c 128,-1,135
 31 131 31 131 33 118 c 0,136,137
 40 80 40 80 90 51 c 128,-1,138
 140 22 140 22 225 7 c 0,139,140
 320 -9 320 -9 428 -9 c 2,141,-1
 465 -9 l 2,142,143
 585 -6 585 -6 852 -6 c 0,144,145
 973 -6 973 -6 989 -7 c 0,146,147
 1091 -14 1091 -14 1147 -28 c 0,148,149
 1165 -32 1165 -32 1184 -38.5 c 128,-1,150
 1203 -45 1203 -45 1208 -49 c 0,151,113
 1213 -52 1213 -52 1216 -52 c 0,114,115
EndSplineSet
EndChar

StartChar: d
Encoding: 100 100 31
Width: 0
GlyphClass: 1
Flags: W
LayerCount: 2
Fore
SplineSet
-408 209 m 0,1,2
 -363 209 -363 209 -347 212 c 128,-1,3
 -331 215 -331 215 -320 226 c 0,4,5
 -304 242 -304 242 -304 269 c 0,6,7
 -304 282 -304 282 -309 299 c 0,8,9
 -316 318 -316 318 -346 328 c 128,-1,10
 -376 338 -376 338 -425 338 c 0,11,12
 -494 338 -494 338 -494 317 c 0,13,14
 -494 306 -494 306 -474 289 c 0,15,16
 -460 278 -460 278 -460 270 c 0,17,18
 -460 264 -460 264 -474 264 c 0,19,20
 -493 264 -493 264 -532 275 c 128,-1,21
 -571 286 -571 286 -620 306 c 0,22,23
 -640 315 -640 315 -657 321 c 128,-1,24
 -674 327 -674 327 -681 327 c 0,25,26
 -692 327 -692 327 -692 316 c 0,27,28
 -692 310 -692 310 -689 299 c 0,29,30
 -682 271 -682 271 -638 249 c 128,-1,31
 -594 227 -594 227 -519 217 c 0,32,0
 -460 209 -460 209 -408 209 c 0,1,2
EndSplineSet
EndChar

StartChar: i
Encoding: 105 105 36
Width: 1218
GlyphClass: 1
Flags: W
LayerCount: 2
Fore
SplineSet
306 212 m 0,1,2
 325 212 325 212 323 224 c 0,3,4
 322 234 322 234 282.5 256 c 128,-1,5
 243 278 243 278 205 289 c 2,6,-1
 162 302 l 1,7,-1
 196 309 l 2,8,9
 256 322 256 322 312 364 c 128,-1,10
 368 406 368 406 386 452 c 0,11,12
 390 463 390 463 395 501 c 128,-1,13
 400 539 400 539 402 581 c 0,14,15
 406 655 406 655 416.5 689 c 128,-1,16
 427 723 427 723 450 736 c 0,17,18
 462 744 462 744 462 765 c 0,19,20
 462 779 462 779 456.5 792.5 c 128,-1,21
 451 806 451 806 441 813 c 0,22,23
 423 827 423 827 402 827 c 0,24,25
 383 827 383 827 358 814 c 0,26,27
 326 797 326 797 307 749.5 c 128,-1,28
 288 702 288 702 281 613 c 0,29,30
 272 509 272 509 247.5 457.5 c 128,-1,31
 223 406 223 406 168 374 c 0,32,33
 146 361 146 361 119 350.5 c 128,-1,34
 92 340 92 340 74 337 c 2,35,-1
 30 330 l 1,36,-1
 215 241 l 2,37,0
 278 212 278 212 306 212 c 0,1,2
1032 212 m 0,39,40
 1051 212 1051 212 1049 224 c 0,41,42
 1048 234 1048 234 1008.5 256 c 128,-1,43
 969 278 969 278 931 289 c 2,44,-1
 888 302 l 1,45,-1
 922 309 l 2,46,47
 982 322 982 322 1038 364 c 128,-1,48
 1094 406 1094 406 1112 452 c 0,49,50
 1116 463 1116 463 1121 501 c 128,-1,51
 1126 539 1126 539 1128 581 c 0,52,53
 1132 655 1132 655 1142.5 689 c 128,-1,54
 1153 723 1153 723 1176 736 c 0,55,56
 1188 744 1188 744 1188 765 c 0,57,58
 1188 779 1188 779 1182.5 792.5 c 128,-1,59
 1177 806 1177 806 1167 813 c 0,60,61
 1149 827 1149 827 1128 827 c 0,62,63
 1109 827 1109 827 1084 814 c 0,64,65
 1052 797 1052 797 1033 749.5 c 128,-1,66
 1014 702 1014 702 1007 613 c 0,67,68
 998 509 998 509 973.5 457.5 c 128,-1,69
 949 406 949 406 894 374 c 0,70,71
 872 361 872 361 845 350.5 c 128,-1,72
 818 340 818 340 800 337 c 2,73,-1
 756 330 l 1,74,-1
 941 241 l 2,75,38
 1004 212 1004 212 1032 212 c 0,39,40
1047 -10.5 m 128,-1,77
 1087 8 1087 8 1094 25 c 0,78,79
 1100 40 1100 40 1100 53 c 0,80,81
 1100 92 1100 92 1046 119 c 128,-1,82
 992 146 992 146 876 166 c 0,83,84
 820 176 820 176 801 176 c 0,85,86
 784 176 784 176 779 168 c 0,87,88
 772 158 772 158 772 153 c 0,89,90
 772 146 772 146 783.5 141.5 c 128,-1,91
 795 137 795 137 834 126 c 0,92,93
 883 112 883 112 906 96.5 c 128,-1,94
 929 81 929 81 929 60 c 0,95,96
 929 17 929 17 855.5 -6 c 128,-1,97
 782 -29 782 -29 652 -29 c 0,98,99
 631 -29 631 -29 583 -27 c 0,100,101
 507 -25 507 -25 461.5 -19 c 128,-1,102
 416 -13 416 -13 380 -1 c 0,103,104
 315 20 315 20 278.5 44.5 c 128,-1,105
 242 69 242 69 242 90 c 0,106,107
 242 115 242 115 292 125 c 0,108,109
 311 129 311 129 327 134 c 128,-1,110
 343 139 343 139 346 142 c 0,111,112
 354 151 354 151 329 158.5 c 128,-1,113
 304 166 304 166 260 171 c 128,-1,114
 216 176 216 176 172 176 c 0,115,116
 113 176 113 176 85 168 c 0,117,118
 49 158 49 158 39.5 150 c 128,-1,119
 30 142 30 142 30 120 c 0,120,121
 30 77 30 77 78 38.5 c 128,-1,122
 126 0 126 0 210 -24 c 0,123,124
 299 -49 299 -49 409.5 -62.5 c 128,-1,125
 520 -76 520 -76 634 -76 c 0,126,127
 814 -76 814 -76 945 -44 c 0,128,76
 1007 -29 1007 -29 1047 -10.5 c 128,-1,77
EndSplineSet
EndChar

StartChar: j
Encoding: 106 106 37
Width: 0
GlyphClass: 1
Flags: W
LayerCount: 2
Fore
SplineSet
-23 -309 m 0,1,2
 7 -309 7 -309 25 -300 c 0,3,4
 37 -293 37 -293 45 -273.5 c 128,-1,5
 53 -254 53 -254 53 -233 c 0,6,7
 53 -221 53 -221 50 -210 c 0,8,9
 43 -189 43 -189 -1 -168 c 128,-1,10
 -45 -147 -45 -147 -113 -132 c 0,11,12
 -160 -123 -160 -123 -233.5 -119.5 c 128,-1,13
 -307 -116 -307 -116 -470 -116 c 0,14,15
 -715 -116 -715 -116 -852.5 -129.5 c 128,-1,16
 -990 -143 -990 -143 -990 -166 c 0,17,18
 -990 -174 -990 -174 -979 -177.5 c 128,-1,19
 -968 -181 -968 -181 -937 -181 c 0,20,21
 -928 -181 -928 -181 -874 -179 c 2,22,-1
 -838 -177 l 2,23,24
 -736 -171 -736 -171 -586 -171 c 0,25,26
 -424 -171 -424 -171 -283 -177.5 c 128,-1,27
 -142 -184 -142 -184 -112 -193 c 0,28,29
 -76 -204 -76 -204 -51.5 -220 c 128,-1,30
 -27 -236 -27 -236 -27 -246 c 0,31,32
 -27 -253 -27 -253 -42 -253 c 0,33,34
 -50 -253 -50 -253 -55 -252 c 0,35,36
 -73 -250 -73 -250 -83.5 -256 c 128,-1,37
 -94 -262 -94 -262 -94 -273 c 0,38,39
 -94 -286 -94 -286 -80 -296 c 0,40,0
 -63 -309 -63 -309 -23 -309 c 0,1,2
EndSplineSet
EndChar

StartChar: k
Encoding: 107 107 38
Width: 0
GlyphClass: 1
Flags: W
LayerCount: 2
Fore
SplineSet
-23 -309 m 0,1,2
 7 -309 7 -309 25 -300 c 0,3,4
 37 -293 37 -293 45 -273.5 c 128,-1,5
 53 -254 53 -254 53 -233 c 0,6,7
 53 -221 53 -221 50 -210 c 0,8,9
 43 -189 43 -189 -1 -168 c 128,-1,10
 -45 -147 -45 -147 -113 -132 c 0,11,12
 -160 -123 -160 -123 -233.5 -119.5 c 128,-1,13
 -307 -116 -307 -116 -470 -116 c 0,14,15
 -715 -116 -715 -116 -852.5 -129.5 c 128,-1,16
 -990 -143 -990 -143 -990 -166 c 0,17,18
 -990 -174 -990 -174 -979 -177.5 c 128,-1,19
 -968 -181 -968 -181 -937 -181 c 0,20,21
 -928 -181 -928 -181 -874 -179 c 2,22,-1
 -838 -177 l 2,23,24
 -736 -171 -736 -171 -586 -171 c 0,25,26
 -424 -171 -424 -171 -283 -177.5 c 128,-1,27
 -142 -184 -142 -184 -112 -193 c 0,28,29
 -76 -204 -76 -204 -51.5 -220 c 128,-1,30
 -27 -236 -27 -236 -27 -246 c 0,31,32
 -27 -253 -27 -253 -42 -253 c 0,33,34
 -50 -253 -50 -253 -55 -252 c 0,35,36
 -73 -250 -73 -250 -83.5 -256 c 128,-1,37
 -94 -262 -94 -262 -94 -273 c 0,38,39
 -94 -286 -94 -286 -80 -296 c 0,40,0
 -63 -309 -63 -309 -23 -309 c 0,1,2
-579 -317.5 m 128,-1,42
 -561 -320 -561 -320 -536 -320 c 0,43,44
 -504 -320 -504 -320 -492.5 -318.5 c 128,-1,45
 -481 -317 -481 -317 -475.5 -310.5 c 128,-1,46
 -470 -304 -470 -304 -462 -286 c 0,47,48
 -456 -272 -456 -272 -446.5 -258.5 c 128,-1,49
 -437 -245 -437 -245 -430 -241 c 0,50,51
 -420 -235 -420 -235 -430 -233 c 128,-1,52
 -440 -231 -440 -231 -479 -230 c 0,53,54
 -515 -230 -515 -230 -527.5 -231.5 c 128,-1,55
 -540 -233 -540 -233 -545.5 -238.5 c 128,-1,56
 -551 -244 -551 -244 -556 -260 c 0,57,58
 -561 -273 -561 -273 -568 -283.5 c 128,-1,59
 -575 -294 -575 -294 -582 -296 c 0,60,61
 -588 -298 -588 -298 -592.5 -302.5 c 128,-1,62
 -597 -307 -597 -307 -597 -311 c 256,63,41
 -597 -315 -597 -315 -579 -317.5 c 128,-1,42
EndSplineSet
EndChar

StartChar: l
Encoding: 108 108 39
Width: 0
GlyphClass: 1
Flags: W
LayerCount: 2
Fore
SplineSet
175 -309 m 0,1,2
 205 -309 205 -309 223 -300 c 0,3,4
 235 -293 235 -293 243 -273.5 c 128,-1,5
 251 -254 251 -254 251 -233 c 0,6,7
 251 -221 251 -221 248 -210 c 0,8,9
 241 -189 241 -189 196.5 -167 c 128,-1,10
 152 -145 152 -145 85 -132 c 0,11,12
 34 -122 34 -122 -12 -119 c 128,-1,13
 -58 -116 -58 -116 -212 -116 c 0,14,15
 -449 -116 -449 -116 -566 -128.5 c 128,-1,16
 -683 -141 -683 -141 -683 -164 c 0,17,18
 -683 -173 -683 -173 -672 -177 c 128,-1,19
 -661 -181 -661 -181 -629 -181 c 0,20,21
 -590 -181 -590 -181 -530 -177 c 0,22,23
 -446 -172 -446 -172 -304 -172 c 0,24,25
 -168 -172 -168 -172 -56 -178 c 128,-1,26
 56 -184 56 -184 86 -193 c 0,27,28
 122 -204 122 -204 146.5 -220 c 128,-1,29
 171 -236 171 -236 171 -246 c 0,30,31
 171 -253 171 -253 156 -253 c 0,32,33
 148 -253 148 -253 143 -252 c 0,34,35
 125 -250 125 -250 114.5 -256 c 128,-1,36
 104 -262 104 -262 104 -273 c 0,37,38
 104 -286 104 -286 118 -296 c 0,39,0
 135 -309 135 -309 175 -309 c 0,1,2
-289 -317.5 m 128,-1,41
 -271 -320 -271 -320 -246 -320 c 0,42,43
 -214 -320 -214 -320 -202.5 -318.5 c 128,-1,44
 -191 -317 -191 -317 -185.5 -310.5 c 128,-1,45
 -180 -304 -180 -304 -172 -286 c 0,46,47
 -166 -272 -166 -272 -156.5 -258.5 c 128,-1,48
 -147 -245 -147 -245 -140 -241 c 0,49,50
 -130 -235 -130 -235 -140 -233 c 128,-1,51
 -150 -231 -150 -231 -189 -230 c 0,52,53
 -225 -230 -225 -230 -237.5 -231.5 c 128,-1,54
 -250 -233 -250 -233 -255.5 -238.5 c 128,-1,55
 -261 -244 -261 -244 -266 -260 c 0,56,57
 -271 -273 -271 -273 -278 -283.5 c 128,-1,58
 -285 -294 -285 -294 -292 -296 c 0,59,60
 -298 -298 -298 -298 -302.5 -302.5 c 128,-1,61
 -307 -307 -307 -307 -307 -311 c 256,62,40
 -307 -315 -307 -315 -289 -317.5 c 128,-1,41
EndSplineSet
EndChar

StartChar: n
Encoding: 110 110 41
Width: 0
GlyphClass: 1
Flags: W
LayerCount: 2
Fore
SplineSet
-607 -441 m 2,1,-1
 -575 -441 l 2,2,3
 -505 -439 -505 -439 -446 -424 c 128,-1,4
 -387 -409 -387 -409 -319.5 -374.5 c 128,-1,5
 -252 -340 -252 -340 -157 -276 c 0,6,7
 -71 -219 -71 -219 -4 -180 c 0,8,9
 29 -161 29 -161 45 -144.5 c 128,-1,10
 61 -128 61 -128 54 -121 c 0,11,12
 51 -118 51 -118 28.5 -116 c 128,-1,13
 6 -114 6 -114 -24 -114 c 0,14,15
 -85 -114 -85 -114 -119 -120 c 0,16,17
 -166 -128 -166 -128 -191 -136.5 c 128,-1,18
 -216 -145 -216 -145 -231 -159 c 0,19,20
 -252 -179 -252 -179 -305.5 -217 c 128,-1,21
 -359 -255 -359 -255 -396 -277 c 0,22,23
 -497 -336 -497 -336 -577 -360 c 0,24,25
 -630 -375 -630 -375 -685 -375 c 0,26,27
 -787 -375 -787 -375 -917 -324 c 0,28,29
 -978 -300 -978 -300 -988 -300 c 0,30,31
 -996 -300 -996 -300 -1000 -306 c 0,32,33
 -1004 -310 -1004 -310 -1004 -315 c 0,34,35
 -1004 -324 -1004 -324 -991 -333.5 c 128,-1,36
 -978 -343 -978 -343 -947 -359 c 0,37,38
 -827 -420 -827 -420 -689 -438 c 0,39,0
 -665 -441 -665 -441 -607 -441 c 2,1,-1
EndSplineSet
EndChar

StartChar: o
Encoding: 111 111 42
Width: 1218
GlyphClass: 1
Flags: W
LayerCount: 2
Fore
SplineSet
656 337 m 0,1,2
 675 337 675 337 673 349 c 0,3,4
 672 359 672 359 632.5 381 c 128,-1,5
 593 403 593 403 555 414 c 2,6,-1
 512 427 l 1,7,-1
 546 434 l 2,8,9
 606 447 606 447 662 489 c 128,-1,10
 718 531 718 531 736 577 c 0,11,12
 740 588 740 588 745 626 c 128,-1,13
 750 664 750 664 752 706 c 0,14,15
 756 780 756 780 766.5 814 c 128,-1,16
 777 848 777 848 800 861 c 0,17,18
 812 869 812 869 812 890 c 0,19,20
 812 904 812 904 806.5 917.5 c 128,-1,21
 801 931 801 931 791 938 c 0,22,23
 773 952 773 952 752 952 c 0,24,25
 733 952 733 952 708 939 c 0,26,27
 676 922 676 922 657 874.5 c 128,-1,28
 638 827 638 827 631 738 c 0,29,30
 622 634 622 634 597.5 582.5 c 128,-1,31
 573 531 573 531 518 499 c 0,32,33
 496 486 496 486 469 475.5 c 128,-1,34
 442 465 442 465 424 462 c 2,35,-1
 380 455 l 1,36,-1
 565 366 l 2,37,0
 628 337 628 337 656 337 c 0,1,2
1032 212 m 0,39,40
 1051 212 1051 212 1049 224 c 0,41,42
 1048 234 1048 234 1008.5 256 c 128,-1,43
 969 278 969 278 931 289 c 2,44,-1
 888 302 l 1,45,-1
 922 309 l 2,46,47
 982 322 982 322 1038 364 c 128,-1,48
 1094 406 1094 406 1112 452 c 0,49,50
 1116 463 1116 463 1121 501 c 128,-1,51
 1126 539 1126 539 1128 581 c 0,52,53
 1132 655 1132 655 1142.5 689 c 128,-1,54
 1153 723 1153 723 1176 736 c 0,55,56
 1188 744 1188 744 1188 765 c 0,57,58
 1188 779 1188 779 1182.5 792.5 c 128,-1,59
 1177 806 1177 806 1167 813 c 0,60,61
 1149 827 1149 827 1128 827 c 0,62,63
 1109 827 1109 827 1084 814 c 0,64,65
 1052 797 1052 797 1033 749.5 c 128,-1,66
 1014 702 1014 702 1007 613 c 0,67,68
 998 509 998 509 973.5 457.5 c 128,-1,69
 949 406 949 406 894 374 c 0,70,71
 872 361 872 361 845 350.5 c 128,-1,72
 818 340 818 340 800 337 c 2,73,-1
 756 330 l 1,74,-1
 941 241 l 2,75,38
 1004 212 1004 212 1032 212 c 0,39,40
608 102 m 0,77,78
 635 102 635 102 643 106 c 0,79,80
 654 110 654 110 654 119 c 0,81,82
 654 129 654 129 642 133 c 0,83,84
 631 137 631 137 623 153 c 128,-1,85
 615 169 615 169 599 223 c 0,86,87
 588 260 588 260 578 278 c 128,-1,88
 568 296 568 296 553 304 c 128,-1,89
 538 312 538 312 511 316 c 0,90,91
 492 319 492 319 474 319 c 0,92,93
 453 319 453 319 438.5 315 c 128,-1,94
 424 311 424 311 421 304 c 2,95,-1
 421 302 l 2,96,97
 421 299 421 299 425 295 c 128,-1,98
 429 291 429 291 436 289 c 0,99,100
 449 284 449 284 457 268 c 128,-1,101
 465 252 465 252 482 196 c 0,102,103
 494 156 494 156 508.5 136 c 128,-1,104
 523 116 523 116 547 109 c 0,105,76
 568 102 568 102 608 102 c 0,77,78
1047 -10.5 m 128,-1,107
 1087 8 1087 8 1094 25 c 0,108,109
 1100 40 1100 40 1100 53 c 0,110,111
 1100 92 1100 92 1046 119 c 128,-1,112
 992 146 992 146 876 166 c 0,113,114
 820 176 820 176 801 176 c 0,115,116
 784 176 784 176 779 168 c 0,117,118
 772 158 772 158 772 153 c 0,119,120
 772 146 772 146 783.5 141.5 c 128,-1,121
 795 137 795 137 834 126 c 0,122,123
 883 112 883 112 906 96.5 c 128,-1,124
 929 81 929 81 929 60 c 0,125,126
 929 17 929 17 855.5 -6 c 128,-1,127
 782 -29 782 -29 652 -29 c 0,128,129
 631 -29 631 -29 583 -27 c 0,130,131
 507 -25 507 -25 461.5 -19 c 128,-1,132
 416 -13 416 -13 380 -1 c 0,133,134
 315 20 315 20 278.5 44.5 c 128,-1,135
 242 69 242 69 242 90 c 0,136,137
 242 115 242 115 292 125 c 0,138,139
 311 129 311 129 327 134 c 128,-1,140
 343 139 343 139 346 142 c 0,141,142
 354 151 354 151 329 158.5 c 128,-1,143
 304 166 304 166 260 171 c 128,-1,144
 216 176 216 176 172 176 c 0,145,146
 113 176 113 176 85 168 c 0,147,148
 49 158 49 158 39.5 150 c 128,-1,149
 30 142 30 142 30 120 c 0,150,151
 30 77 30 77 78 38.5 c 128,-1,152
 126 0 126 0 210 -24 c 0,153,154
 299 -49 299 -49 409.5 -62.5 c 128,-1,155
 520 -76 520 -76 634 -76 c 0,156,157
 814 -76 814 -76 945 -44 c 0,158,106
 1007 -29 1007 -29 1047 -10.5 c 128,-1,107
EndSplineSet
EndChar

StartChar: q
Encoding: 113 113 44
Width: 1130
GlyphClass: 1
Flags: W
LayerCount: 2
Fore
SplineSet
1047 -10.5 m 128,-1,1
 1087 8 1087 8 1094 25 c 0,2,3
 1100 40 1100 40 1100 53 c 0,4,5
 1100 92 1100 92 1046 119 c 128,-1,6
 992 146 992 146 876 166 c 0,7,8
 820 176 820 176 801 176 c 0,9,10
 784 176 784 176 779 168 c 0,11,12
 772 158 772 158 772 153 c 0,13,14
 772 146 772 146 783.5 141.5 c 128,-1,15
 795 137 795 137 834 126 c 0,16,17
 883 112 883 112 906 96.5 c 128,-1,18
 929 81 929 81 929 60 c 0,19,20
 929 17 929 17 855.5 -6 c 128,-1,21
 782 -29 782 -29 652 -29 c 0,22,23
 631 -29 631 -29 583 -27 c 0,24,25
 507 -25 507 -25 461.5 -19 c 128,-1,26
 416 -13 416 -13 380 -1 c 0,27,28
 315 20 315 20 278.5 44.5 c 128,-1,29
 242 69 242 69 242 90 c 0,30,31
 242 115 242 115 292 125 c 0,32,33
 311 129 311 129 327 134 c 128,-1,34
 343 139 343 139 346 142 c 0,35,36
 354 151 354 151 329 158.5 c 128,-1,37
 304 166 304 166 260 171 c 128,-1,38
 216 176 216 176 172 176 c 0,39,40
 113 176 113 176 85 168 c 0,41,42
 49 158 49 158 39.5 150 c 128,-1,43
 30 142 30 142 30 120 c 0,44,45
 30 77 30 77 78 38.5 c 128,-1,46
 126 0 126 0 210 -24 c 0,47,48
 299 -49 299 -49 409.5 -62.5 c 128,-1,49
 520 -76 520 -76 634 -76 c 0,50,51
 814 -76 814 -76 945 -44 c 0,52,0
 1007 -29 1007 -29 1047 -10.5 c 128,-1,1
EndSplineSet
EndChar

StartChar: r
Encoding: 114 114 45
Width: 1218
GlyphClass: 1
Flags: W
LayerCount: 2
Fore
SplineSet
1032 212 m 0,1,2
 1051 212 1051 212 1049 224 c 0,3,4
 1048 234 1048 234 1008.5 256 c 128,-1,5
 969 278 969 278 931 289 c 2,6,-1
 888 302 l 1,7,-1
 922 309 l 2,8,9
 982 322 982 322 1038 364 c 128,-1,10
 1094 406 1094 406 1112 452 c 0,11,12
 1116 463 1116 463 1121 501 c 128,-1,13
 1126 539 1126 539 1128 581 c 0,14,15
 1132 655 1132 655 1142.5 689 c 128,-1,16
 1153 723 1153 723 1176 736 c 0,17,18
 1188 744 1188 744 1188 765 c 0,19,20
 1188 779 1188 779 1182.5 792.5 c 128,-1,21
 1177 806 1177 806 1167 813 c 0,22,23
 1149 827 1149 827 1128 827 c 0,24,25
 1109 827 1109 827 1084 814 c 0,26,27
 1052 797 1052 797 1033 749.5 c 128,-1,28
 1014 702 1014 702 1007 613 c 0,29,30
 998 509 998 509 973.5 457.5 c 128,-1,31
 949 406 949 406 894 374 c 0,32,33
 872 361 872 361 845 350.5 c 128,-1,34
 818 340 818 340 800 337 c 2,35,-1
 756 330 l 1,36,-1
 941 241 l 2,37,0
 1004 212 1004 212 1032 212 c 0,1,2
1047 -10.5 m 128,-1,39
 1087 8 1087 8 1094 25 c 0,40,41
 1100 40 1100 40 1100 53 c 0,42,43
 1100 92 1100 92 1046 119 c 128,-1,44
 992 146 992 146 876 166 c 0,45,46
 820 176 820 176 801 176 c 0,47,48
 784 176 784 176 779 168 c 0,49,50
 772 158 772 158 772 153 c 0,51,52
 772 146 772 146 783.5 141.5 c 128,-1,53
 795 137 795 137 834 126 c 0,54,55
 883 112 883 112 906 96.5 c 128,-1,56
 929 81 929 81 929 60 c 0,57,58
 929 17 929 17 855.5 -6 c 128,-1,59
 782 -29 782 -29 652 -29 c 0,60,61
 631 -29 631 -29 583 -27 c 0,62,63
 507 -25 507 -25 461.5 -19 c 128,-1,64
 416 -13 416 -13 380 -1 c 0,65,66
 315 20 315 20 278.5 44.5 c 128,-1,67
 242 69 242 69 242 90 c 0,68,69
 242 115 242 115 292 125 c 0,70,71
 311 129 311 129 327 134 c 128,-1,72
 343 139 343 139 346 142 c 0,73,74
 354 151 354 151 329 158.5 c 128,-1,75
 304 166 304 166 260 171 c 128,-1,76
 216 176 216 176 172 176 c 0,77,78
 113 176 113 176 85 168 c 0,79,80
 49 158 49 158 39.5 150 c 128,-1,81
 30 142 30 142 30 120 c 0,82,83
 30 77 30 77 78 38.5 c 128,-1,84
 126 0 126 0 210 -24 c 0,85,86
 299 -49 299 -49 409.5 -62.5 c 128,-1,87
 520 -76 520 -76 634 -76 c 0,88,89
 814 -76 814 -76 945 -44 c 0,90,38
 1007 -29 1007 -29 1047 -10.5 c 128,-1,39
EndSplineSet
EndChar

StartChar: s
Encoding: 115 115 46
Width: 0
GlyphClass: 1
Flags: W
LayerCount: 2
Fore
SplineSet
-268 215 m 0,1,2
 -219 215 -219 215 -197.5 230.5 c 128,-1,3
 -176 246 -176 246 -176 281 c 0,4,5
 -176 313 -176 313 -198.5 327.5 c 128,-1,6
 -221 342 -221 342 -277 345 c 0,7,8
 -288 346 -288 346 -308 346 c 0,9,10
 -360 346 -360 346 -360 330 c 0,11,12
 -360 321 -360 321 -341 299 c 2,13,-1
 -314 270 l 1,14,-1
 -343 270 l 2,15,16
 -365 270 -365 270 -414 286 c 128,-1,17
 -463 302 -463 302 -510 324 c 0,18,19
 -535 335 -535 335 -544 335 c 0,20,21
 -555 335 -555 335 -555 322 c 0,22,23
 -555 316 -555 316 -552 305 c 0,24,25
 -546 280 -546 280 -506 260.5 c 128,-1,26
 -466 241 -466 241 -396 229 c 0,27,0
 -314 215 -314 215 -268 215 c 0,1,2
EndSplineSet
EndChar

StartChar: t
Encoding: 116 116 47
Width: 1130
GlyphClass: 1
Flags: W
LayerCount: 2
Fore
SplineSet
306 212 m 0,1,2
 325 212 325 212 323 224 c 0,3,4
 322 234 322 234 282.5 256 c 128,-1,5
 243 278 243 278 205 289 c 2,6,-1
 162 302 l 1,7,-1
 196 309 l 2,8,9
 256 322 256 322 312 364 c 128,-1,10
 368 406 368 406 386 452 c 0,11,12
 390 463 390 463 395 501 c 128,-1,13
 400 539 400 539 402 581 c 0,14,15
 406 655 406 655 416.5 689 c 128,-1,16
 427 723 427 723 450 736 c 0,17,18
 462 744 462 744 462 765 c 0,19,20
 462 779 462 779 456.5 792.5 c 128,-1,21
 451 806 451 806 441 813 c 0,22,23
 423 827 423 827 402 827 c 0,24,25
 383 827 383 827 358 814 c 0,26,27
 326 797 326 797 307 749.5 c 128,-1,28
 288 702 288 702 281 613 c 0,29,30
 272 509 272 509 247.5 457.5 c 128,-1,31
 223 406 223 406 168 374 c 0,32,33
 146 361 146 361 119 350.5 c 128,-1,34
 92 340 92 340 74 337 c 2,35,-1
 30 330 l 1,36,-1
 215 241 l 2,37,0
 278 212 278 212 306 212 c 0,1,2
1047 -10.5 m 128,-1,39
 1087 8 1087 8 1094 25 c 0,40,41
 1100 40 1100 40 1100 53 c 0,42,43
 1100 92 1100 92 1046 119 c 128,-1,44
 992 146 992 146 876 166 c 0,45,46
 820 176 820 176 801 176 c 0,47,48
 784 176 784 176 779 168 c 0,49,50
 772 158 772 158 772 153 c 0,51,52
 772 146 772 146 783.5 141.5 c 128,-1,53
 795 137 795 137 834 126 c 0,54,55
 883 112 883 112 906 96.5 c 128,-1,56
 929 81 929 81 929 60 c 0,57,58
 929 17 929 17 855.5 -6 c 128,-1,59
 782 -29 782 -29 652 -29 c 0,60,61
 631 -29 631 -29 583 -27 c 0,62,63
 507 -25 507 -25 461.5 -19 c 128,-1,64
 416 -13 416 -13 380 -1 c 0,65,66
 315 20 315 20 278.5 44.5 c 128,-1,67
 242 69 242 69 242 90 c 0,68,69
 242 115 242 115 292 125 c 0,70,71
 311 129 311 129 327 134 c 128,-1,72
 343 139 343 139 346 142 c 0,73,74
 354 151 354 151 329 158.5 c 128,-1,75
 304 166 304 166 260 171 c 128,-1,76
 216 176 216 176 172 176 c 0,77,78
 113 176 113 176 85 168 c 0,79,80
 49 158 49 158 39.5 150 c 128,-1,81
 30 142 30 142 30 120 c 0,82,83
 30 77 30 77 78 38.5 c 128,-1,84
 126 0 126 0 210 -24 c 0,85,86
 299 -49 299 -49 409.5 -62.5 c 128,-1,87
 520 -76 520 -76 634 -76 c 0,88,89
 814 -76 814 -76 945 -44 c 0,90,38
 1007 -29 1007 -29 1047 -10.5 c 128,-1,39
EndSplineSet
EndChar

StartChar: u
Encoding: 117 117 48
Width: 1130
GlyphClass: 1
Flags: W
LayerCount: 2
Fore
SplineSet
656 337 m 0,1,2
 675 337 675 337 673 349 c 0,3,4
 672 359 672 359 632.5 381 c 128,-1,5
 593 403 593 403 555 414 c 2,6,-1
 512 427 l 1,7,-1
 546 434 l 2,8,9
 606 447 606 447 662 489 c 128,-1,10
 718 531 718 531 736 577 c 0,11,12
 740 588 740 588 745 626 c 128,-1,13
 750 664 750 664 752 706 c 0,14,15
 756 780 756 780 766.5 814 c 128,-1,16
 777 848 777 848 800 861 c 0,17,18
 812 869 812 869 812 890 c 0,19,20
 812 904 812 904 806.5 917.5 c 128,-1,21
 801 931 801 931 791 938 c 0,22,23
 773 952 773 952 752 952 c 0,24,25
 733 952 733 952 708 939 c 0,26,27
 676 922 676 922 657 874.5 c 128,-1,28
 638 827 638 827 631 738 c 0,29,30
 622 634 622 634 597.5 582.5 c 128,-1,31
 573 531 573 531 518 499 c 0,32,33
 496 486 496 486 469 475.5 c 128,-1,34
 442 465 442 465 424 462 c 2,35,-1
 380 455 l 1,36,-1
 565 366 l 2,37,0
 628 337 628 337 656 337 c 0,1,2
608 102 m 0,39,40
 635 102 635 102 643 106 c 0,41,42
 654 110 654 110 654 119 c 0,43,44
 654 129 654 129 642 133 c 0,45,46
 631 137 631 137 623 153 c 128,-1,47
 615 169 615 169 599 223 c 0,48,49
 588 260 588 260 578 278 c 128,-1,50
 568 296 568 296 553 304 c 128,-1,51
 538 312 538 312 511 316 c 0,52,53
 492 319 492 319 474 319 c 0,54,55
 453 319 453 319 438.5 315 c 128,-1,56
 424 311 424 311 421 304 c 2,57,-1
 421 302 l 2,58,59
 421 299 421 299 425 295 c 128,-1,60
 429 291 429 291 436 289 c 0,61,62
 449 284 449 284 457 268 c 128,-1,63
 465 252 465 252 482 196 c 0,64,65
 494 156 494 156 508.5 136 c 128,-1,66
 523 116 523 116 547 109 c 0,67,38
 568 102 568 102 608 102 c 0,39,40
1047 -10.5 m 128,-1,69
 1087 8 1087 8 1094 25 c 0,70,71
 1100 40 1100 40 1100 53 c 0,72,73
 1100 92 1100 92 1046 119 c 128,-1,74
 992 146 992 146 876 166 c 0,75,76
 820 176 820 176 801 176 c 0,77,78
 784 176 784 176 779 168 c 0,79,80
 772 158 772 158 772 153 c 0,81,82
 772 146 772 146 783.5 141.5 c 128,-1,83
 795 137 795 137 834 126 c 0,84,85
 883 112 883 112 906 96.5 c 128,-1,86
 929 81 929 81 929 60 c 0,87,88
 929 17 929 17 855.5 -6 c 128,-1,89
 782 -29 782 -29 652 -29 c 0,90,91
 631 -29 631 -29 583 -27 c 0,92,93
 507 -25 507 -25 461.5 -19 c 128,-1,94
 416 -13 416 -13 380 -1 c 0,95,96
 315 20 315 20 278.5 44.5 c 128,-1,97
 242 69 242 69 242 90 c 0,98,99
 242 115 242 115 292 125 c 0,100,101
 311 129 311 129 327 134 c 128,-1,102
 343 139 343 139 346 142 c 0,103,104
 354 151 354 151 329 158.5 c 128,-1,105
 304 166 304 166 260 171 c 128,-1,106
 216 176 216 176 172 176 c 0,107,108
 113 176 113 176 85 168 c 0,109,110
 49 158 49 158 39.5 150 c 128,-1,111
 30 142 30 142 30 120 c 0,112,113
 30 77 30 77 78 38.5 c 128,-1,114
 126 0 126 0 210 -24 c 0,115,116
 299 -49 299 -49 409.5 -62.5 c 128,-1,117
 520 -76 520 -76 634 -76 c 0,118,119
 814 -76 814 -76 945 -44 c 0,120,68
 1007 -29 1007 -29 1047 -10.5 c 128,-1,69
EndSplineSet
EndChar

StartChar: v
Encoding: 118 118 49
Width: 1256
GlyphClass: 1
Flags: W
LayerCount: 2
Fore
SplineSet
287 173 m 128,-1,1
 317 171 317 171 347 171 c 256,2,3
 377 171 377 171 391.5 175.5 c 128,-1,4
 406 180 406 180 417 191 c 0,5,6
 427 201 427 201 430.5 210 c 128,-1,7
 434 219 434 219 434 238 c 256,8,9
 434 257 434 257 431 296 c 1,10,11
 431 290 431 290 427 334 c 2,12,-1
 425 359 l 2,13,14
 425 371 425 371 431.5 375.5 c 128,-1,15
 438 380 438 380 456 380 c 0,16,17
 472 380 472 380 478.5 382.5 c 128,-1,18
 485 385 485 385 485 392 c 0,19,20
 485 402 485 402 479.5 407 c 128,-1,21
 474 412 474 412 457 414 c 128,-1,22
 440 416 440 416 402 418 c 0,23,24
 388 419 388 419 364 419 c 0,25,26
 324 419 324 419 310.5 409 c 128,-1,27
 297 399 297 399 297 366 c 0,28,29
 297 348 297 348 300 321 c 0,30,31
 302 287 302 287 302 278 c 0,32,33
 302 243 302 243 291 231.5 c 128,-1,34
 280 220 280 220 249 220 c 0,35,36
 229 220 229 220 222.5 216.5 c 128,-1,37
 216 213 216 213 218 203 c 0,38,39
 220 196 220 196 228 189 c 128,-1,40
 236 182 236 182 246 179 c 0,41,0
 257 175 257 175 287 173 c 128,-1,1
860 182 m 0,43,44
 887 182 887 182 895 186 c 0,45,46
 906 190 906 190 906 199 c 0,47,48
 906 209 906 209 894 213 c 0,49,50
 883 217 883 217 875 233 c 128,-1,51
 867 249 867 249 851 303 c 0,52,53
 840 340 840 340 830 358 c 128,-1,54
 820 376 820 376 805 384 c 128,-1,55
 790 392 790 392 763 396 c 0,56,57
 743 399 743 399 726 399 c 0,58,59
 705 399 705 399 690.5 395 c 128,-1,60
 676 391 676 391 673 384 c 2,61,-1
 673 382 l 2,62,63
 673 379 673 379 677 375 c 128,-1,64
 681 371 681 371 688 369 c 0,65,66
 701 364 701 364 709 348 c 128,-1,67
 717 332 717 332 734 276 c 0,68,69
 746 236 746 236 760.5 216 c 128,-1,70
 775 196 775 196 799 189 c 0,71,42
 820 182 820 182 860 182 c 0,43,44
1060 182 m 0,73,74
 1087 182 1087 182 1095 186 c 0,75,76
 1106 190 1106 190 1106 199 c 0,77,78
 1106 209 1106 209 1094 213 c 0,79,80
 1083 217 1083 217 1075.5 232.5 c 128,-1,81
 1068 248 1068 248 1051 303 c 0,82,83
 1040 339 1040 339 1030 357 c 128,-1,84
 1020 375 1020 375 1005 383.5 c 128,-1,85
 990 392 990 392 963 396 c 0,86,87
 944 399 944 399 926 399 c 0,88,89
 905 399 905 399 890.5 395 c 128,-1,90
 876 391 876 391 873 384 c 2,91,-1
 873 382 l 2,92,93
 873 379 873 379 877 375 c 128,-1,94
 881 371 881 371 888 369 c 0,95,96
 901 364 901 364 909 348 c 128,-1,97
 917 332 917 332 934 276 c 0,98,99
 946 236 946 236 960.5 216 c 128,-1,100
 975 196 975 196 999 189 c 0,101,72
 1020 182 1020 182 1060 182 c 0,73,74
1214 -52 m 0,103,104
 1220 -52 1220 -52 1223 -46.5 c 128,-1,105
 1226 -41 1226 -41 1226 -32 c 0,106,107
 1226 -9 1226 -9 1211 3 c 0,108,109
 1111 88 1111 88 981 107 c 0,110,111
 957 110 957 110 856 110 c 0,112,113
 740 110 740 110 610 107 c 0,114,115
 479 104 479 104 371 104 c 0,116,117
 259 104 259 104 226 108 c 0,118,119
 90 125 90 125 57 145 c 0,120,121
 53 148 53 148 47 148 c 0,122,123
 38 148 38 148 33.5 139.5 c 128,-1,124
 29 131 29 131 31 118 c 0,125,126
 38 80 38 80 88 51 c 128,-1,127
 138 22 138 22 223 7 c 0,128,129
 318 -9 318 -9 426 -9 c 2,130,-1
 463 -9 l 2,131,132
 583 -6 583 -6 850 -6 c 0,133,134
 971 -6 971 -6 987 -7 c 0,135,136
 1089 -14 1089 -14 1145 -28 c 0,137,138
 1163 -32 1163 -32 1182 -38.5 c 128,-1,139
 1201 -45 1201 -45 1206 -49 c 0,140,102
 1211 -52 1211 -52 1214 -52 c 0,103,104
EndSplineSet
EndChar

StartChar: x
Encoding: 120 120 51
Width: 1256
GlyphClass: 1
Flags: W
LayerCount: 2
Fore
SplineSet
706 184 m 0,1,2
 716 184 716 184 719.5 189 c 128,-1,3
 723 194 723 194 723 205 c 0,4,5
 723 242 723 242 643.5 265 c 128,-1,6
 564 288 564 288 435 288 c 0,7,8
 413 288 413 288 365 286 c 0,9,10
 331 284 331 284 278 284 c 0,11,12
 219 284 219 284 207 290 c 0,13,14
 189 301 189 301 189 318 c 0,15,16
 189 340 189 340 212 355 c 0,17,18
 228 365 228 365 237 365 c 0,19,20
 249 365 249 365 271 354 c 256,21,22
 293 343 293 343 312 343 c 0,23,24
 338 343 338 343 338 364 c 0,25,26
 338 398 338 398 227 424 c 0,27,28
 178 435 178 435 162 435 c 0,29,30
 141 435 141 435 110 425 c 0,31,32
 65 411 65 411 48 397 c 128,-1,33
 31 383 31 383 31 358 c 0,34,35
 31 318 31 318 62 287 c 128,-1,36
 93 256 93 256 157 231 c 0,37,38
 190 218 190 218 223.5 214.5 c 128,-1,39
 257 211 257 211 348 211 c 2,40,-1
 408 211 l 1,41,-1
 457 211 l 2,42,43
 544 211 544 211 586 208 c 128,-1,44
 628 205 628 205 653 197 c 0,45,0
 695 184 695 184 706 184 c 0,1,2
908 182 m 0,47,48
 935 182 935 182 943 186 c 0,49,50
 954 190 954 190 954 199 c 0,51,52
 954 209 954 209 942 213 c 0,53,54
 931 217 931 217 923 233 c 128,-1,55
 915 249 915 249 899 303 c 0,56,57
 888 340 888 340 878 358 c 128,-1,58
 868 376 868 376 853 384 c 128,-1,59
 838 392 838 392 811 396 c 0,60,61
 791 399 791 399 774 399 c 0,62,63
 753 399 753 399 738.5 395 c 128,-1,64
 724 391 724 391 721 384 c 2,65,-1
 721 382 l 2,66,67
 721 379 721 379 725 375 c 128,-1,68
 729 371 729 371 736 369 c 0,69,70
 749 364 749 364 757 348 c 128,-1,71
 765 332 765 332 782 276 c 0,72,73
 794 236 794 236 808.5 216 c 128,-1,74
 823 196 823 196 847 189 c 0,75,46
 868 182 868 182 908 182 c 0,47,48
1108 182 m 0,77,78
 1135 182 1135 182 1143 186 c 0,79,80
 1154 190 1154 190 1154 199 c 0,81,82
 1154 209 1154 209 1142 213 c 0,83,84
 1131 217 1131 217 1123.5 232.5 c 128,-1,85
 1116 248 1116 248 1099 303 c 0,86,87
 1088 339 1088 339 1078 357 c 128,-1,88
 1068 375 1068 375 1053 383.5 c 128,-1,89
 1038 392 1038 392 1011 396 c 0,90,91
 992 399 992 399 974 399 c 0,92,93
 953 399 953 399 938.5 395 c 128,-1,94
 924 391 924 391 921 384 c 2,95,-1
 921 382 l 2,96,97
 921 379 921 379 925 375 c 128,-1,98
 929 371 929 371 936 369 c 0,99,100
 949 364 949 364 957 348 c 128,-1,101
 965 332 965 332 982 276 c 0,102,103
 994 236 994 236 1008.5 216 c 128,-1,104
 1023 196 1023 196 1047 189 c 0,105,76
 1068 182 1068 182 1108 182 c 0,77,78
1214 -52 m 0,107,108
 1220 -52 1220 -52 1223 -46.5 c 128,-1,109
 1226 -41 1226 -41 1226 -32 c 0,110,111
 1226 -9 1226 -9 1211 3 c 0,112,113
 1111 88 1111 88 981 107 c 0,114,115
 957 110 957 110 856 110 c 0,116,117
 740 110 740 110 610 107 c 0,118,119
 479 104 479 104 371 104 c 0,120,121
 259 104 259 104 226 108 c 0,122,123
 90 125 90 125 57 145 c 0,124,125
 53 148 53 148 47 148 c 0,126,127
 38 148 38 148 33.5 139.5 c 128,-1,128
 29 131 29 131 31 118 c 0,129,130
 38 80 38 80 88 51 c 128,-1,131
 138 22 138 22 223 7 c 0,132,133
 318 -9 318 -9 426 -9 c 2,134,-1
 463 -9 l 2,135,136
 583 -6 583 -6 850 -6 c 0,137,138
 971 -6 971 -6 987 -7 c 0,139,140
 1089 -14 1089 -14 1145 -28 c 0,141,142
 1163 -32 1163 -32 1182 -38.5 c 128,-1,143
 1201 -45 1201 -45 1206 -49 c 0,144,106
 1211 -52 1211 -52 1214 -52 c 0,107,108
EndSplineSet
EndChar

StartChar: y
Encoding: 121 121 52
Width: 1218
GlyphClass: 1
Flags: W
LayerCount: 2
Fore
SplineSet
1032 212 m 0,1,2
 1051 212 1051 212 1049 224 c 0,3,4
 1048 234 1048 234 1008.5 256 c 128,-1,5
 969 278 969 278 931 289 c 2,6,-1
 888 302 l 1,7,-1
 922 309 l 2,8,9
 982 322 982 322 1038 364 c 128,-1,10
 1094 406 1094 406 1112 452 c 0,11,12
 1116 463 1116 463 1121 501 c 128,-1,13
 1126 539 1126 539 1128 581 c 0,14,15
 1132 655 1132 655 1142.5 689 c 128,-1,16
 1153 723 1153 723 1176 736 c 0,17,18
 1188 744 1188 744 1188 765 c 0,19,20
 1188 779 1188 779 1182.5 792.5 c 128,-1,21
 1177 806 1177 806 1167 813 c 0,22,23
 1149 827 1149 827 1128 827 c 0,24,25
 1109 827 1109 827 1084 814 c 0,26,27
 1052 797 1052 797 1033 749.5 c 128,-1,28
 1014 702 1014 702 1007 613 c 0,29,30
 998 509 998 509 973.5 457.5 c 128,-1,31
 949 406 949 406 894 374 c 0,32,33
 872 361 872 361 845 350.5 c 128,-1,34
 818 340 818 340 800 337 c 2,35,-1
 756 330 l 1,36,-1
 941 241 l 2,37,0
 1004 212 1004 212 1032 212 c 0,1,2
608 102 m 0,39,40
 635 102 635 102 643 106 c 0,41,42
 654 110 654 110 654 119 c 0,43,44
 654 129 654 129 642 133 c 0,45,46
 631 137 631 137 623 153 c 128,-1,47
 615 169 615 169 599 223 c 0,48,49
 588 260 588 260 578 278 c 128,-1,50
 568 296 568 296 553 304 c 128,-1,51
 538 312 538 312 511 316 c 0,52,53
 492 319 492 319 474 319 c 0,54,55
 453 319 453 319 438.5 315 c 128,-1,56
 424 311 424 311 421 304 c 2,57,-1
 421 302 l 2,58,59
 421 299 421 299 425 295 c 128,-1,60
 429 291 429 291 436 289 c 0,61,62
 449 284 449 284 457 268 c 128,-1,63
 465 252 465 252 482 196 c 0,64,65
 494 156 494 156 508.5 136 c 128,-1,66
 523 116 523 116 547 109 c 0,67,38
 568 102 568 102 608 102 c 0,39,40
1047 -10.5 m 128,-1,69
 1087 8 1087 8 1094 25 c 0,70,71
 1100 40 1100 40 1100 53 c 0,72,73
 1100 92 1100 92 1046 119 c 128,-1,74
 992 146 992 146 876 166 c 0,75,76
 820 176 820 176 801 176 c 0,77,78
 784 176 784 176 779 168 c 0,79,80
 772 158 772 158 772 153 c 0,81,82
 772 146 772 146 783.5 141.5 c 128,-1,83
 795 137 795 137 834 126 c 0,84,85
 883 112 883 112 906 96.5 c 128,-1,86
 929 81 929 81 929 60 c 0,87,88
 929 17 929 17 855.5 -6 c 128,-1,89
 782 -29 782 -29 652 -29 c 0,90,91
 631 -29 631 -29 583 -27 c 0,92,93
 507 -25 507 -25 461.5 -19 c 128,-1,94
 416 -13 416 -13 380 -1 c 0,95,96
 315 20 315 20 278.5 44.5 c 128,-1,97
 242 69 242 69 242 90 c 0,98,99
 242 115 242 115 292 125 c 0,100,101
 311 129 311 129 327 134 c 128,-1,102
 343 139 343 139 346 142 c 0,103,104
 354 151 354 151 329 158.5 c 128,-1,105
 304 166 304 166 260 171 c 128,-1,106
 216 176 216 176 172 176 c 0,107,108
 113 176 113 176 85 168 c 0,109,110
 49 158 49 158 39.5 150 c 128,-1,111
 30 142 30 142 30 120 c 0,112,113
 30 77 30 77 78 38.5 c 128,-1,114
 126 0 126 0 210 -24 c 0,115,116
 299 -49 299 -49 409.5 -62.5 c 128,-1,117
 520 -76 520 -76 634 -76 c 0,118,119
 814 -76 814 -76 945 -44 c 0,120,68
 1007 -29 1007 -29 1047 -10.5 c 128,-1,69
EndSplineSet
EndChar

StartChar: z
Encoding: 122 122 53
Width: 1127
GlyphClass: 1
Flags: W
LayerCount: 2
Fore
SplineSet
1084 -52 m 0,1,2
 1090 -52 1090 -52 1093.5 -46 c 128,-1,3
 1097 -40 1097 -40 1097 -31 c 256,4,5
 1097 -22 1097 -22 1093 -12.5 c 128,-1,6
 1089 -3 1089 -3 1081 3 c 0,7,8
 977 88 977 88 851 107 c 0,9,10
 828 111 828 111 775 111 c 0,11,12
 714 111 714 111 610 107 c 0,13,14
 479 104 479 104 371 104 c 0,15,16
 259 104 259 104 226 108 c 0,17,18
 93 125 93 125 57 145 c 0,19,20
 53 148 53 148 48 148 c 0,21,22
 40 148 40 148 35 139.5 c 128,-1,23
 30 131 30 131 31 118 c 0,24,25
 37 81 37 81 87 52.5 c 128,-1,26
 137 24 137 24 223 7 c 0,27,28
 320 -10 320 -10 419 -10 c 0,29,30
 448 -10 448 -10 463 -9 c 0,31,32
 583 -6 583 -6 756 -6 c 0,33,34
 841 -6 841 -6 857 -7 c 0,35,36
 952 -12 952 -12 1015 -28 c 0,37,38
 1033 -32 1033 -32 1052 -38.5 c 128,-1,39
 1071 -45 1071 -45 1076 -49 c 0,40,0
 1081 -52 1081 -52 1084 -52 c 0,1,2
826 -226 m 0,42,43
 847 -226 847 -226 857 -222 c 0,44,45
 867 -219 867 -219 867 -211 c 0,46,47
 867 -208 867 -208 864 -204.5 c 128,-1,48
 861 -201 861 -201 857 -200 c 0,49,50
 848 -197 848 -197 841 -183.5 c 128,-1,51
 834 -170 834 -170 821 -127 c 0,52,53
 808 -83 808 -83 794.5 -69 c 128,-1,54
 781 -55 781 -55 749 -50 c 0,55,56
 727 -48 727 -48 719 -48 c 0,57,58
 681 -48 681 -48 675 -60 c 1,59,-1
 675 -61 l 2,60,61
 675 -63 675 -63 678.5 -66.5 c 128,-1,62
 682 -70 682 -70 688 -72 c 0,63,64
 699 -76 699 -76 705.5 -89.5 c 128,-1,65
 712 -103 712 -103 725 -149 c 0,66,67
 736 -182 736 -182 748 -198 c 128,-1,68
 760 -214 760 -214 779 -220 c 0,69,41
 796 -226 796 -226 826 -226 c 0,42,43
990 -226 m 0,71,72
 1011 -226 1011 -226 1021 -222 c 0,73,74
 1031 -219 1031 -219 1031 -211 c 0,75,76
 1031 -208 1031 -208 1028 -204.5 c 128,-1,77
 1025 -201 1025 -201 1021 -200 c 0,78,79
 1012 -197 1012 -197 1005.5 -184 c 128,-1,80
 999 -171 999 -171 985 -127 c 0,81,82
 976 -97 976 -97 968 -82 c 128,-1,83
 960 -67 960 -67 948 -60.5 c 128,-1,84
 936 -54 936 -54 913 -50 c 0,85,86
 891 -48 891 -48 883 -48 c 0,87,88
 845 -48 845 -48 839 -60 c 1,89,-1
 839 -61 l 2,90,91
 839 -63 839 -63 842.5 -66.5 c 128,-1,92
 846 -70 846 -70 852 -72 c 0,93,94
 863 -76 863 -76 869.5 -89.5 c 128,-1,95
 876 -103 876 -103 889 -149 c 0,96,97
 900 -182 900 -182 912 -198 c 128,-1,98
 924 -214 924 -214 943 -220 c 0,99,70
 960 -226 960 -226 990 -226 c 0,71,72
EndSplineSet
EndChar

StartChar: uni03A9
Encoding: 937 937 54
Width: 1126
GlyphClass: 1
Flags: W
LayerCount: 2
Fore
SplineSet
1083 -52 m 0,1,2
 1089 -52 1089 -52 1092.5 -46 c 128,-1,3
 1096 -40 1096 -40 1096 -31 c 256,4,5
 1096 -22 1096 -22 1092 -12.5 c 128,-1,6
 1088 -3 1088 -3 1080 3 c 0,7,8
 976 88 976 88 850 107 c 0,9,10
 827 111 827 111 774 111 c 0,11,12
 713 111 713 111 609 107 c 0,13,14
 479 104 479 104 370 104 c 0,15,16
 258 104 258 104 225 108 c 0,17,18
 92 125 92 125 56 145 c 0,19,20
 51 148 51 148 47 148 c 0,21,22
 39 148 39 148 34 139.5 c 128,-1,23
 29 131 29 131 30 118 c 0,24,25
 36 81 36 81 86 52.5 c 128,-1,26
 136 24 136 24 222 7 c 0,27,28
 319 -10 319 -10 418 -10 c 0,29,30
 447 -10 447 -10 462 -9 c 0,31,32
 582 -6 582 -6 755 -6 c 0,33,34
 840 -6 840 -6 856 -7 c 0,35,36
 951 -12 951 -12 1014 -28 c 0,37,38
 1032 -32 1032 -32 1051 -38.5 c 128,-1,39
 1070 -45 1070 -45 1075 -49 c 0,40,0
 1080 -52 1080 -52 1083 -52 c 0,1,2
689 -222 m 0,42,43
 710 -222 710 -222 720 -218 c 0,44,45
 730 -215 730 -215 730 -207 c 0,46,47
 730 -204 730 -204 727 -200.5 c 128,-1,48
 724 -197 724 -197 720 -196 c 0,49,50
 711 -193 711 -193 704 -179.5 c 128,-1,51
 697 -166 697 -166 684 -123 c 0,52,53
 671 -79 671 -79 657.5 -65 c 128,-1,54
 644 -51 644 -51 612 -46 c 0,55,56
 590 -44 590 -44 582 -44 c 0,57,58
 544 -44 544 -44 538 -56 c 1,59,-1
 538 -57 l 2,60,61
 538 -59 538 -59 541.5 -62.5 c 128,-1,62
 545 -66 545 -66 551 -68 c 0,63,64
 562 -72 562 -72 568.5 -85.5 c 128,-1,65
 575 -99 575 -99 588 -145 c 0,66,67
 599 -178 599 -178 611 -194 c 128,-1,68
 623 -210 623 -210 642 -216 c 0,69,41
 659 -222 659 -222 689 -222 c 0,42,43
853 -222 m 0,71,72
 874 -222 874 -222 884 -218 c 0,73,74
 894 -215 894 -215 894 -207 c 0,75,76
 894 -204 894 -204 891 -200.5 c 128,-1,77
 888 -197 888 -197 884 -196 c 0,78,79
 875 -193 875 -193 868.5 -180 c 128,-1,80
 862 -167 862 -167 848 -123 c 0,81,82
 839 -93 839 -93 831 -78 c 128,-1,83
 823 -63 823 -63 811 -56.5 c 128,-1,84
 799 -50 799 -50 776 -46 c 0,85,86
 754 -44 754 -44 746 -44 c 0,87,88
 708 -44 708 -44 702 -56 c 1,89,-1
 702 -57 l 2,90,91
 702 -59 702 -59 705.5 -62.5 c 128,-1,92
 709 -66 709 -66 715 -68 c 0,93,94
 726 -72 726 -72 732.5 -85.5 c 128,-1,95
 739 -99 739 -99 752 -145 c 0,96,97
 763 -178 763 -178 775 -194 c 128,-1,98
 787 -210 787 -210 806 -216 c 0,99,70
 823 -222 823 -222 853 -222 c 0,71,72
EndSplineSet
EndChar

StartChar: zero
Encoding: 48 48 55
Width: 1102
GlyphClass: 1
Flags: W
LayerCount: 2
Fore
SplineSet
1051 -39 m 4,1,2
 1061 -39 1061 -39 1066 -32.5 c 132,-1,3
 1071 -26 1071 -26 1071 -15 c 4,4,5
 1071 0 1071 0 1060.5 17.5 c 132,-1,6
 1050 35 1050 35 1031 46 c 4,7,8
 934 102 934 102 697 102 c 4,9,10
 581 102 581 102 397 86 c 6,11,-1
 376 84 l 6,12,13
 273 75 273 75 244 75 c 4,14,15
 224 75 224 75 215.5 78 c 132,-1,16
 207 81 207 81 199 88 c 4,17,18
 181 104 181 104 181 117 c 4,19,20
 181 132 181 132 205 150 c 4,21,22
 213 157 213 157 219.5 160.5 c 132,-1,23
 226 164 226 164 232 164 c 4,24,25
 242 164 242 164 270 150 c 4,26,27
 297 136 297 136 310 136 c 4,28,29
 318 136 318 136 325 142 c 4,30,31
 334 150 334 150 334 159 c 4,32,33
 334 171 334 171 316 185 c 132,-1,34
 298 199 298 199 263 212 c 4,35,36
 206 233 206 233 163 233 c 4,37,38
 119 233 119 233 77 214 c 4,39,40
 52 203 52 203 43.5 197 c 132,-1,41
 35 191 35 191 32.5 182 c 132,-1,42
 30 173 30 173 30 149 c 4,43,44
 30 122 30 122 36.5 106.5 c 132,-1,45
 43 91 43 91 62 78.5 c 132,-1,46
 81 66 81 66 122 48 c 4,47,48
 173 25 173 25 208 14 c 132,-1,49
 243 3 243 3 288 -1.5 c 132,-1,50
 333 -6 333 -6 408 -6 c 4,51,52
 478 -6 478 -6 597 -3 c 4,53,54
 705 0 705 0 776 0 c 4,55,56
 887 0 887 0 940.5 -7.5 c 132,-1,57
 994 -15 994 -15 1030 -33 c 4,58,0
 1040 -39 1040 -39 1051 -39 c 4,1,2
EndSplineSet
EndChar

StartChar: one
Encoding: 49 49 56
Width: 1127
GlyphClass: 1
Flags: W
LayerCount: 2
Fore
SplineSet
1084 -52 m 0,1,2
 1090 -52 1090 -52 1093.5 -46 c 128,-1,3
 1097 -40 1097 -40 1097 -31 c 256,4,5
 1097 -22 1097 -22 1093 -12.5 c 128,-1,6
 1089 -3 1089 -3 1081 3 c 0,7,8
 977 88 977 88 851 107 c 0,9,10
 828 111 828 111 775 111 c 0,11,12
 714 111 714 111 610 107 c 0,13,14
 479 104 479 104 371 104 c 0,15,16
 259 104 259 104 226 108 c 0,17,18
 93 125 93 125 57 145 c 0,19,20
 53 148 53 148 48 148 c 0,21,22
 40 148 40 148 35 139.5 c 128,-1,23
 30 131 30 131 31 118 c 0,24,25
 37 81 37 81 87 52.5 c 128,-1,26
 137 24 137 24 223 7 c 0,27,28
 320 -10 320 -10 419 -10 c 0,29,30
 448 -10 448 -10 463 -9 c 0,31,32
 583 -6 583 -6 756 -6 c 0,33,34
 841 -6 841 -6 857 -7 c 0,35,36
 952 -12 952 -12 1015 -28 c 0,37,38
 1033 -32 1033 -32 1052 -38.5 c 128,-1,39
 1071 -45 1071 -45 1076 -49 c 0,40,0
 1081 -52 1081 -52 1084 -52 c 0,1,2
EndSplineSet
EndChar

StartChar: two
Encoding: 50 50 57
Width: 1127
GlyphClass: 1
Flags: W
LayerCount: 2
Fore
SplineSet
1084 -52 m 0,1,2
 1090 -52 1090 -52 1093.5 -46 c 128,-1,3
 1097 -40 1097 -40 1097 -31 c 256,4,5
 1097 -22 1097 -22 1093 -12.5 c 128,-1,6
 1089 -3 1089 -3 1081 3 c 0,7,8
 977 88 977 88 851 107 c 0,9,10
 828 111 828 111 775 111 c 0,11,12
 714 111 714 111 610 107 c 0,13,14
 479 104 479 104 371 104 c 0,15,16
 259 104 259 104 226 108 c 0,17,18
 93 125 93 125 57 145 c 0,19,20
 53 148 53 148 48 148 c 0,21,22
 40 148 40 148 35 139.5 c 128,-1,23
 30 131 30 131 31 118 c 0,24,25
 37 81 37 81 87 52.5 c 128,-1,26
 137 24 137 24 223 7 c 0,27,28
 320 -10 320 -10 419 -10 c 0,29,30
 448 -10 448 -10 463 -9 c 0,31,32
 583 -6 583 -6 756 -6 c 0,33,34
 841 -6 841 -6 857 -7 c 0,35,36
 952 -12 952 -12 1015 -28 c 0,37,38
 1033 -32 1033 -32 1052 -38.5 c 128,-1,39
 1071 -45 1071 -45 1076 -49 c 0,40,0
 1081 -52 1081 -52 1084 -52 c 0,1,2
863 -223 m 0,42,43
 885 -223 885 -223 895 -219 c 0,44,45
 904 -216 904 -216 904 -208 c 0,46,47
 904 -205 904 -205 901 -201.5 c 128,-1,48
 898 -198 898 -198 894 -197 c 0,49,50
 885 -194 885 -194 878.5 -180.5 c 128,-1,51
 872 -167 872 -167 859 -124 c 0,52,53
 846 -80 846 -80 832.5 -66 c 128,-1,54
 819 -52 819 -52 787 -47 c 0,55,56
 765 -45 765 -45 756 -45 c 0,57,58
 719 -45 719 -45 713 -57 c 1,59,-1
 713 -59 l 2,60,61
 713 -65 713 -65 725 -69 c 0,62,63
 736 -73 736 -73 742.5 -86.5 c 128,-1,64
 749 -100 749 -100 763 -146 c 0,65,66
 773 -179 773 -179 785 -195 c 128,-1,67
 797 -211 797 -211 816 -217 c 0,68,41
 833 -223 833 -223 863 -223 c 0,42,43
EndSplineSet
EndChar

StartChar: four
Encoding: 52 52 59
Width: 1142
GlyphClass: 1
Flags: W
LayerCount: 2
Fore
SplineSet
956 172 m 0,1,2
 975 172 975 172 973 184 c 0,3,4
 972 194 972 194 932.5 216 c 128,-1,5
 893 238 893 238 855 249 c 2,6,-1
 812 262 l 1,7,-1
 846 269 l 2,8,9
 906 282 906 282 962 324 c 128,-1,10
 1018 366 1018 366 1036 412 c 0,11,12
 1040 423 1040 423 1045 461 c 128,-1,13
 1050 499 1050 499 1052 541 c 0,14,15
 1056 615 1056 615 1066.5 649 c 128,-1,16
 1077 683 1077 683 1100 696 c 0,17,18
 1112 704 1112 704 1112 725 c 0,19,20
 1112 739 1112 739 1106.5 752.5 c 128,-1,21
 1101 766 1101 766 1091 773 c 0,22,23
 1073 787 1073 787 1052 787 c 0,24,25
 1033 787 1033 787 1008 774 c 0,26,27
 976 757 976 757 957 709.5 c 128,-1,28
 938 662 938 662 931 573 c 0,29,30
 922 469 922 469 897.5 417.5 c 128,-1,31
 873 366 873 366 818 334 c 0,32,33
 796 321 796 321 769 310.5 c 128,-1,34
 742 300 742 300 724 297 c 2,35,-1
 680 290 l 1,36,-1
 865 201 l 2,37,0
 928 172 928 172 956 172 c 0,1,2
1084 -52 m 0,39,40
 1090 -52 1090 -52 1093.5 -46 c 128,-1,41
 1097 -40 1097 -40 1097 -31 c 256,42,43
 1097 -22 1097 -22 1093 -12.5 c 128,-1,44
 1089 -3 1089 -3 1081 3 c 0,45,46
 977 88 977 88 851 107 c 0,47,48
 828 111 828 111 775 111 c 0,49,50
 714 111 714 111 610 107 c 0,51,52
 479 104 479 104 371 104 c 0,53,54
 259 104 259 104 226 108 c 0,55,56
 93 125 93 125 57 145 c 0,57,58
 53 148 53 148 48 148 c 0,59,60
 40 148 40 148 35 139.5 c 128,-1,61
 30 131 30 131 31 118 c 0,62,63
 37 81 37 81 87 52.5 c 128,-1,64
 137 24 137 24 223 7 c 0,65,66
 320 -10 320 -10 419 -10 c 0,67,68
 448 -10 448 -10 463 -9 c 0,69,70
 583 -6 583 -6 756 -6 c 0,71,72
 841 -6 841 -6 857 -7 c 0,73,74
 952 -12 952 -12 1015 -28 c 0,75,76
 1033 -32 1033 -32 1052 -38.5 c 128,-1,77
 1071 -45 1071 -45 1076 -49 c 0,78,38
 1081 -52 1081 -52 1084 -52 c 0,39,40
EndSplineSet
EndChar

StartChar: five
Encoding: 53 53 60
Width: 1127
GlyphClass: 1
Flags: W
LayerCount: 2
Fore
SplineSet
306 172 m 0,1,2
 325 172 325 172 323 184 c 0,3,4
 322 194 322 194 282.5 216 c 128,-1,5
 243 238 243 238 205 249 c 2,6,-1
 162 262 l 1,7,-1
 196 269 l 2,8,9
 256 282 256 282 312 324 c 128,-1,10
 368 366 368 366 386 412 c 0,11,12
 390 423 390 423 395 461 c 128,-1,13
 400 499 400 499 402 541 c 0,14,15
 406 615 406 615 416.5 649 c 128,-1,16
 427 683 427 683 450 696 c 0,17,18
 462 704 462 704 462 725 c 0,19,20
 462 739 462 739 456.5 752.5 c 128,-1,21
 451 766 451 766 441 773 c 0,22,23
 423 787 423 787 402 787 c 0,24,25
 383 787 383 787 358 774 c 0,26,27
 326 757 326 757 307 709.5 c 128,-1,28
 288 662 288 662 281 573 c 0,29,30
 272 469 272 469 247.5 417.5 c 128,-1,31
 223 366 223 366 168 334 c 0,32,33
 146 321 146 321 119 310.5 c 128,-1,34
 92 300 92 300 74 297 c 2,35,-1
 30 290 l 1,36,-1
 215 201 l 2,37,0
 278 172 278 172 306 172 c 0,1,2
1084 -52 m 0,39,40
 1090 -52 1090 -52 1093.5 -46 c 128,-1,41
 1097 -40 1097 -40 1097 -31 c 256,42,43
 1097 -22 1097 -22 1093 -12.5 c 128,-1,44
 1089 -3 1089 -3 1081 3 c 0,45,46
 977 88 977 88 851 107 c 0,47,48
 828 111 828 111 775 111 c 0,49,50
 714 111 714 111 610 107 c 0,51,52
 479 104 479 104 371 104 c 0,53,54
 259 104 259 104 226 108 c 0,55,56
 93 125 93 125 57 145 c 0,57,58
 53 148 53 148 48 148 c 0,59,60
 40 148 40 148 35 139.5 c 128,-1,61
 30 131 30 131 31 118 c 0,62,63
 37 81 37 81 87 52.5 c 128,-1,64
 137 24 137 24 223 7 c 0,65,66
 320 -10 320 -10 419 -10 c 0,67,68
 448 -10 448 -10 463 -9 c 0,69,70
 583 -6 583 -6 756 -6 c 0,71,72
 841 -6 841 -6 857 -7 c 0,73,74
 952 -12 952 -12 1015 -28 c 0,75,76
 1033 -32 1033 -32 1052 -38.5 c 128,-1,77
 1071 -45 1071 -45 1076 -49 c 0,78,38
 1081 -52 1081 -52 1084 -52 c 0,39,40
EndSplineSet
EndChar

StartChar: seven
Encoding: 55 55 62
Width: 1127
GlyphClass: 1
Flags: W
LayerCount: 2
Fore
SplineSet
646 402 m 0,1,2
 665 402 665 402 663 414 c 0,3,4
 662 424 662 424 622.5 446 c 128,-1,5
 583 468 583 468 545 479 c 2,6,-1
 502 492 l 1,7,-1
 536 499 l 2,8,9
 596 512 596 512 652 554 c 128,-1,10
 708 596 708 596 726 642 c 0,11,12
 730 653 730 653 735 691 c 128,-1,13
 740 729 740 729 742 771 c 0,14,15
 746 845 746 845 756.5 879 c 128,-1,16
 767 913 767 913 790 926 c 0,17,18
 802 934 802 934 802 955 c 0,19,20
 802 969 802 969 796.5 982.5 c 128,-1,21
 791 996 791 996 781 1003 c 0,22,23
 763 1017 763 1017 742 1017 c 0,24,25
 723 1017 723 1017 698 1004 c 0,26,27
 666 987 666 987 647 939.5 c 128,-1,28
 628 892 628 892 621 803 c 0,29,30
 612 699 612 699 587.5 647.5 c 128,-1,31
 563 596 563 596 508 564 c 0,32,33
 486 551 486 551 459 540.5 c 128,-1,34
 432 530 432 530 414 527 c 2,35,-1
 370 520 l 1,36,-1
 555 431 l 2,37,0
 618 402 618 402 646 402 c 0,1,2
588 172 m 0,39,40
 615 172 615 172 623 176 c 0,41,42
 634 180 634 180 634 189 c 0,43,44
 634 199 634 199 622 203 c 0,45,46
 611 207 611 207 603 223 c 128,-1,47
 595 239 595 239 579 293 c 0,48,49
 568 330 568 330 558 348 c 128,-1,50
 548 366 548 366 533 374 c 128,-1,51
 518 382 518 382 491 386 c 0,52,53
 472 389 472 389 454 389 c 0,54,55
 433 389 433 389 418.5 385 c 128,-1,56
 404 381 404 381 401 374 c 2,57,-1
 401 372 l 2,58,59
 401 369 401 369 405 365 c 128,-1,60
 409 361 409 361 416 359 c 0,61,62
 429 354 429 354 437 338 c 128,-1,63
 445 322 445 322 462 266 c 0,64,65
 474 226 474 226 488.5 206 c 128,-1,66
 503 186 503 186 527 179 c 0,67,38
 548 172 548 172 588 172 c 0,39,40
1084 -52 m 0,69,70
 1090 -52 1090 -52 1093.5 -46 c 128,-1,71
 1097 -40 1097 -40 1097 -31 c 256,72,73
 1097 -22 1097 -22 1093 -12.5 c 128,-1,74
 1089 -3 1089 -3 1081 3 c 0,75,76
 977 88 977 88 851 107 c 0,77,78
 828 111 828 111 775 111 c 0,79,80
 714 111 714 111 610 107 c 0,81,82
 479 104 479 104 371 104 c 0,83,84
 259 104 259 104 226 108 c 0,85,86
 93 125 93 125 57 145 c 0,87,88
 53 148 53 148 48 148 c 0,89,90
 40 148 40 148 35 139.5 c 128,-1,91
 30 131 30 131 31 118 c 0,92,93
 37 81 37 81 87 52.5 c 128,-1,94
 137 24 137 24 223 7 c 0,95,96
 320 -10 320 -10 419 -10 c 0,97,98
 448 -10 448 -10 463 -9 c 0,99,100
 583 -6 583 -6 756 -6 c 0,101,102
 841 -6 841 -6 857 -7 c 0,103,104
 952 -12 952 -12 1015 -28 c 0,105,106
 1033 -32 1033 -32 1052 -38.5 c 128,-1,107
 1071 -45 1071 -45 1076 -49 c 0,108,68
 1081 -52 1081 -52 1084 -52 c 0,69,70
EndSplineSet
EndChar

StartChar: eight
Encoding: 56 56 63
Width: 1142
GlyphClass: 1
Flags: W
LayerCount: 2
Fore
SplineSet
306 172 m 0,1,2
 325 172 325 172 323 184 c 0,3,4
 322 194 322 194 282.5 216 c 128,-1,5
 243 238 243 238 205 249 c 2,6,-1
 162 262 l 1,7,-1
 196 269 l 2,8,9
 256 282 256 282 312 324 c 128,-1,10
 368 366 368 366 386 412 c 0,11,12
 390 423 390 423 395 461 c 128,-1,13
 400 499 400 499 402 541 c 0,14,15
 406 615 406 615 416.5 649 c 128,-1,16
 427 683 427 683 450 696 c 0,17,18
 462 704 462 704 462 725 c 0,19,20
 462 739 462 739 456.5 752.5 c 128,-1,21
 451 766 451 766 441 773 c 0,22,23
 423 787 423 787 402 787 c 0,24,25
 383 787 383 787 358 774 c 0,26,27
 326 757 326 757 307 709.5 c 128,-1,28
 288 662 288 662 281 573 c 0,29,30
 272 469 272 469 247.5 417.5 c 128,-1,31
 223 366 223 366 168 334 c 0,32,33
 146 321 146 321 119 310.5 c 128,-1,34
 92 300 92 300 74 297 c 2,35,-1
 30 290 l 1,36,-1
 215 201 l 2,37,0
 278 172 278 172 306 172 c 0,1,2
956 172 m 0,39,40
 975 172 975 172 973 184 c 0,41,42
 972 194 972 194 932.5 216 c 128,-1,43
 893 238 893 238 855 249 c 2,44,-1
 812 262 l 1,45,-1
 846 269 l 2,46,47
 906 282 906 282 962 324 c 128,-1,48
 1018 366 1018 366 1036 412 c 0,49,50
 1040 423 1040 423 1045 461 c 128,-1,51
 1050 499 1050 499 1052 541 c 0,52,53
 1056 615 1056 615 1066.5 649 c 128,-1,54
 1077 683 1077 683 1100 696 c 0,55,56
 1112 704 1112 704 1112 725 c 0,57,58
 1112 739 1112 739 1106.5 752.5 c 128,-1,59
 1101 766 1101 766 1091 773 c 0,60,61
 1073 787 1073 787 1052 787 c 0,62,63
 1033 787 1033 787 1008 774 c 0,64,65
 976 757 976 757 957 709.5 c 128,-1,66
 938 662 938 662 931 573 c 0,67,68
 922 469 922 469 897.5 417.5 c 128,-1,69
 873 366 873 366 818 334 c 0,70,71
 796 321 796 321 769 310.5 c 128,-1,72
 742 300 742 300 724 297 c 2,73,-1
 680 290 l 1,74,-1
 865 201 l 2,75,38
 928 172 928 172 956 172 c 0,39,40
1084 -52 m 0,77,78
 1090 -52 1090 -52 1093.5 -46 c 128,-1,79
 1097 -40 1097 -40 1097 -31 c 256,80,81
 1097 -22 1097 -22 1093 -12.5 c 128,-1,82
 1089 -3 1089 -3 1081 3 c 0,83,84
 977 88 977 88 851 107 c 0,85,86
 828 111 828 111 775 111 c 0,87,88
 714 111 714 111 610 107 c 0,89,90
 479 104 479 104 371 104 c 0,91,92
 259 104 259 104 226 108 c 0,93,94
 93 125 93 125 57 145 c 0,95,96
 53 148 53 148 48 148 c 0,97,98
 40 148 40 148 35 139.5 c 128,-1,99
 30 131 30 131 31 118 c 0,100,101
 37 81 37 81 87 52.5 c 128,-1,102
 137 24 137 24 223 7 c 0,103,104
 320 -10 320 -10 419 -10 c 0,105,106
 448 -10 448 -10 463 -9 c 0,107,108
 583 -6 583 -6 756 -6 c 0,109,110
 841 -6 841 -6 857 -7 c 0,111,112
 952 -12 952 -12 1015 -28 c 0,113,114
 1033 -32 1033 -32 1052 -38.5 c 128,-1,115
 1071 -45 1071 -45 1076 -49 c 0,116,76
 1081 -52 1081 -52 1084 -52 c 0,77,78
EndSplineSet
EndChar

StartChar: nine
Encoding: 57 57 64
Width: 1142
GlyphClass: 1
Flags: W
LayerCount: 2
Fore
SplineSet
646 402 m 0,1,2
 665 402 665 402 663 414 c 0,3,4
 662 424 662 424 622.5 446 c 128,-1,5
 583 468 583 468 545 479 c 2,6,-1
 502 492 l 1,7,-1
 536 499 l 2,8,9
 596 512 596 512 652 554 c 128,-1,10
 708 596 708 596 726 642 c 0,11,12
 730 653 730 653 735 691 c 128,-1,13
 740 729 740 729 742 771 c 0,14,15
 746 845 746 845 756.5 879 c 128,-1,16
 767 913 767 913 790 926 c 0,17,18
 802 934 802 934 802 955 c 0,19,20
 802 969 802 969 796.5 982.5 c 128,-1,21
 791 996 791 996 781 1003 c 0,22,23
 763 1017 763 1017 742 1017 c 0,24,25
 723 1017 723 1017 698 1004 c 0,26,27
 666 987 666 987 647 939.5 c 128,-1,28
 628 892 628 892 621 803 c 0,29,30
 612 699 612 699 587.5 647.5 c 128,-1,31
 563 596 563 596 508 564 c 0,32,33
 486 551 486 551 459 540.5 c 128,-1,34
 432 530 432 530 414 527 c 2,35,-1
 370 520 l 1,36,-1
 555 431 l 2,37,0
 618 402 618 402 646 402 c 0,1,2
956 172 m 0,39,40
 975 172 975 172 973 184 c 0,41,42
 972 194 972 194 932.5 216 c 128,-1,43
 893 238 893 238 855 249 c 2,44,-1
 812 262 l 1,45,-1
 846 269 l 2,46,47
 906 282 906 282 962 324 c 128,-1,48
 1018 366 1018 366 1036 412 c 0,49,50
 1040 423 1040 423 1045 461 c 128,-1,51
 1050 499 1050 499 1052 541 c 0,52,53
 1056 615 1056 615 1066.5 649 c 128,-1,54
 1077 683 1077 683 1100 696 c 0,55,56
 1112 704 1112 704 1112 725 c 0,57,58
 1112 739 1112 739 1106.5 752.5 c 128,-1,59
 1101 766 1101 766 1091 773 c 0,60,61
 1073 787 1073 787 1052 787 c 0,62,63
 1033 787 1033 787 1008 774 c 0,64,65
 976 757 976 757 957 709.5 c 128,-1,66
 938 662 938 662 931 573 c 0,67,68
 922 469 922 469 897.5 417.5 c 128,-1,69
 873 366 873 366 818 334 c 0,70,71
 796 321 796 321 769 310.5 c 128,-1,72
 742 300 742 300 724 297 c 2,73,-1
 680 290 l 1,74,-1
 865 201 l 2,75,38
 928 172 928 172 956 172 c 0,39,40
548 172 m 0,77,78
 575 172 575 172 583 176 c 0,79,80
 594 180 594 180 594 189 c 0,81,82
 594 199 594 199 582 203 c 0,83,84
 571 207 571 207 563 223 c 128,-1,85
 555 239 555 239 539 293 c 0,86,87
 528 330 528 330 518 348 c 128,-1,88
 508 366 508 366 493 374 c 128,-1,89
 478 382 478 382 451 386 c 0,90,91
 431 389 431 389 414 389 c 0,92,93
 393 389 393 389 378.5 385 c 128,-1,94
 364 381 364 381 361 374 c 2,95,-1
 361 372 l 2,96,97
 361 369 361 369 365 365 c 128,-1,98
 369 361 369 361 376 359 c 0,99,100
 389 354 389 354 397 338 c 128,-1,101
 405 322 405 322 422 266 c 0,102,103
 434 226 434 226 448.5 206 c 128,-1,104
 463 186 463 186 487 179 c 0,105,76
 508 172 508 172 548 172 c 0,77,78
1084 -52 m 0,107,108
 1090 -52 1090 -52 1093.5 -46 c 128,-1,109
 1097 -40 1097 -40 1097 -31 c 256,110,111
 1097 -22 1097 -22 1093 -12.5 c 128,-1,112
 1089 -3 1089 -3 1081 3 c 0,113,114
 977 88 977 88 851 107 c 0,115,116
 828 111 828 111 775 111 c 0,117,118
 714 111 714 111 610 107 c 0,119,120
 479 104 479 104 371 104 c 0,121,122
 259 104 259 104 226 108 c 0,123,124
 93 125 93 125 57 145 c 0,125,126
 53 148 53 148 48 148 c 0,127,128
 40 148 40 148 35 139.5 c 128,-1,129
 30 131 30 131 31 118 c 0,130,131
 37 81 37 81 87 52.5 c 128,-1,132
 137 24 137 24 223 7 c 0,133,134
 320 -10 320 -10 419 -10 c 0,135,136
 448 -10 448 -10 463 -9 c 0,137,138
 583 -6 583 -6 756 -6 c 0,139,140
 841 -6 841 -6 857 -7 c 0,141,142
 952 -12 952 -12 1015 -28 c 0,143,144
 1033 -32 1033 -32 1052 -38.5 c 128,-1,145
 1071 -45 1071 -45 1076 -49 c 0,146,106
 1081 -52 1081 -52 1084 -52 c 0,107,108
EndSplineSet
EndChar

StartChar: one.alt
Encoding: 65537 -1 65
Width: 1127
GlyphClass: 1
Flags: W
LayerCount: 2
Fore
SplineSet
1102 -48 m 0,1,2
 1112 -48 1112 -48 1118.5 -42 c 128,-1,3
 1125 -36 1125 -36 1125 -25 c 0,4,5
 1125 -11 1125 -11 1097.5 12 c 128,-1,6
 1070 35 1070 35 1028.5 57 c 128,-1,7
 987 79 987 79 949 91 c 0,8,9
 916 101 916 101 879.5 105.5 c 128,-1,10
 843 110 843 110 767.5 111.5 c 128,-1,11
 692 113 692 113 514 114 c 0,12,13
 349 115 349 115 271.5 116.5 c 128,-1,14
 194 118 194 118 158 122 c 128,-1,15
 122 126 122 126 97 134 c 0,16,17
 62 145 62 145 48 145 c 0,18,19
 30 145 30 145 30 131 c 0,20,21
 30 123 30 123 40 101 c 0,22,23
 55 73 55 73 95 51.5 c 128,-1,24
 135 30 135 30 203 13 c 0,25,26
 245 2 245 2 318 -1 c 128,-1,27
 391 -4 391 -4 606 -5 c 0,28,29
 845 -6 845 -6 945 -13.5 c 128,-1,30
 1045 -21 1045 -21 1080 -41 c 0,31,0
 1094 -48 1094 -48 1102 -48 c 0,1,2
EndSplineSet
EndChar

StartChar: period
Encoding: 46 46 66
Width: 1028
GlyphClass: 1
Flags: W
LayerCount: 2
Fore
SplineSet
697 -280 m 0,1,2
 714 -280 714 -280 714 -273 c 0,3,4
 714 -269 714 -269 691.5 -256.5 c 128,-1,5
 669 -244 669 -244 636 -230 c 0,6,7
 552 -192 552 -192 500 -138 c 128,-1,8
 448 -84 448 -84 420 -5 c 0,9,10
 363 157 363 157 278 210 c 0,11,12
 242 233 242 233 196.5 245.5 c 128,-1,13
 151 258 151 258 111 258 c 0,14,15
 85 258 85 258 65.5 252 c 128,-1,16
 46 246 46 246 37 234 c 0,17,18
 30 226 30 226 30 216 c 0,19,20
 30 205 30 205 43.5 197.5 c 128,-1,21
 57 190 57 190 80 190 c 0,22,23
 121 190 121 190 151.5 171.5 c 128,-1,24
 182 153 182 153 211 110 c 128,-1,25
 240 67 240 67 276 -12 c 0,26,27
 299 -62 299 -62 347.5 -116 c 128,-1,28
 396 -170 396 -170 442 -197 c 0,29,30
 459 -207 459 -207 497 -223 c 128,-1,31
 535 -239 535 -239 572 -251 c 0,32,0
 661 -280 661 -280 697 -280 c 0,1,2
504 27.5 m 128,-1,34
 522 25 522 25 547 25 c 0,35,36
 579 25 579 25 590.5 26.5 c 128,-1,37
 602 28 602 28 607.5 34.5 c 128,-1,38
 613 41 613 41 621 59 c 0,39,40
 627 73 627 73 636.5 86.5 c 128,-1,41
 646 100 646 100 653 104 c 0,42,43
 663 110 663 110 653 112 c 128,-1,44
 643 114 643 114 604 115 c 0,45,46
 568 115 568 115 555.5 113.5 c 128,-1,47
 543 112 543 112 537.5 106.5 c 128,-1,48
 532 101 532 101 527 85 c 0,49,50
 522 72 522 72 515 61.5 c 128,-1,51
 508 51 508 51 501 49 c 0,52,53
 495 47 495 47 490.5 42.5 c 128,-1,54
 486 38 486 38 486 34 c 256,55,33
 486 30 486 30 504 27.5 c 128,-1,34
674 27.5 m 128,-1,57
 692 25 692 25 717 25 c 0,58,59
 749 25 749 25 760.5 26.5 c 128,-1,60
 772 28 772 28 777.5 34.5 c 128,-1,61
 783 41 783 41 791 59 c 0,62,63
 797 73 797 73 806.5 86.5 c 128,-1,64
 816 100 816 100 823 104 c 0,65,66
 833 110 833 110 823 112 c 128,-1,67
 813 114 813 114 774 115 c 0,68,69
 738 115 738 115 725.5 113.5 c 128,-1,70
 713 112 713 112 707.5 106.5 c 128,-1,71
 702 101 702 101 697 85 c 0,72,73
 692 72 692 72 685 61.5 c 128,-1,74
 678 51 678 51 671 49 c 0,75,76
 665 47 665 47 660.5 42.5 c 128,-1,77
 656 38 656 38 656 34 c 256,78,56
 656 30 656 30 674 27.5 c 128,-1,57
844 27.5 m 128,-1,80
 862 25 862 25 887 25 c 0,81,82
 919 25 919 25 930.5 26.5 c 128,-1,83
 942 28 942 28 947.5 34.5 c 128,-1,84
 953 41 953 41 961 59 c 0,85,86
 967 73 967 73 976.5 86.5 c 128,-1,87
 986 100 986 100 993 104 c 0,88,89
 1003 110 1003 110 993 112 c 128,-1,90
 983 114 983 114 944 115 c 0,91,92
 908 115 908 115 895.5 113.5 c 128,-1,93
 883 112 883 112 877.5 106.5 c 128,-1,94
 872 101 872 101 867 85 c 0,95,96
 862 72 862 72 855 61.5 c 128,-1,97
 848 51 848 51 841 49 c 0,98,99
 835 47 835 47 830.5 42.5 c 128,-1,100
 826 38 826 38 826 34 c 256,101,79
 826 30 826 30 844 27.5 c 128,-1,80
EndSplineSet
EndChar

StartChar: comma
Encoding: 44 44 67
Width: 744
GlyphClass: 1
Flags: W
LayerCount: 2
Fore
SplineSet
697 -280 m 0,1,2
 714 -280 714 -280 714 -273 c 0,3,4
 714 -269 714 -269 691.5 -256.5 c 128,-1,5
 669 -244 669 -244 636 -230 c 0,6,7
 552 -192 552 -192 500 -138 c 128,-1,8
 448 -84 448 -84 420 -5 c 0,9,10
 363 157 363 157 278 210 c 0,11,12
 242 233 242 233 196.5 245.5 c 128,-1,13
 151 258 151 258 111 258 c 0,14,15
 85 258 85 258 65.5 252 c 128,-1,16
 46 246 46 246 37 234 c 0,17,18
 30 226 30 226 30 216 c 0,19,20
 30 205 30 205 43.5 197.5 c 128,-1,21
 57 190 57 190 80 190 c 0,22,23
 121 190 121 190 151.5 171.5 c 128,-1,24
 182 153 182 153 211 110 c 128,-1,25
 240 67 240 67 276 -12 c 0,26,27
 299 -62 299 -62 347.5 -116 c 128,-1,28
 396 -170 396 -170 442 -197 c 0,29,30
 459 -207 459 -207 497 -223 c 128,-1,31
 535 -239 535 -239 572 -251 c 0,32,0
 661 -280 661 -280 697 -280 c 0,1,2
504 27.5 m 128,-1,34
 522 25 522 25 547 25 c 0,35,36
 579 25 579 25 590.5 26.5 c 128,-1,37
 602 28 602 28 607.5 34.5 c 128,-1,38
 613 41 613 41 621 59 c 0,39,40
 627 73 627 73 636.5 86.5 c 128,-1,41
 646 100 646 100 653 104 c 0,42,43
 663 110 663 110 653 112 c 128,-1,44
 643 114 643 114 604 115 c 0,45,46
 568 115 568 115 555.5 113.5 c 128,-1,47
 543 112 543 112 537.5 106.5 c 128,-1,48
 532 101 532 101 527 85 c 0,49,50
 522 72 522 72 515 61.5 c 128,-1,51
 508 51 508 51 501 49 c 0,52,53
 495 47 495 47 490.5 42.5 c 128,-1,54
 486 38 486 38 486 34 c 256,55,33
 486 30 486 30 504 27.5 c 128,-1,34
EndSplineSet
EndChar

StartChar: colon
Encoding: 58 58 68
Width: 0
GlyphClass: 1
Flags: W
LayerCount: 2
Fore
SplineSet
324 -523.5 m 128,-1,1
 348 -528 348 -528 368 -528 c 2,2,-1
 417 -528 l 1,3,-1
 430 -481 l 2,4,5
 434 -461 434 -461 444 -433 c 128,-1,6
 454 -405 454 -405 464 -386 c 0,7,8
 484 -349 484 -349 484 -333 c 0,9,10
 484 -320 484 -320 471 -315.5 c 128,-1,11
 458 -311 458 -311 425 -311 c 0,12,13
 413 -311 413 -311 365 -313 c 0,14,15
 293 -316 293 -316 166.5 -319.5 c 128,-1,16
 40 -323 40 -323 -111 -325 c 0,17,18
 -240 -327 -240 -327 -328.5 -329.5 c 128,-1,19
 -417 -332 -417 -332 -447 -336 c 128,-1,20
 -477 -340 -477 -340 -477 -348 c 0,21,22
 -477 -353 -477 -353 -462 -366 c 0,23,24
 -452 -373 -452 -373 -377 -376 c 128,-1,25
 -302 -379 -302 -379 -85 -381 c 0,26,27
 -50 -381 -50 -381 -33 -382 c 0,28,29
 111 -383 111 -383 170 -384.5 c 128,-1,30
 229 -386 229 -386 253 -391 c 128,-1,31
 277 -396 277 -396 277 -408 c 0,32,33
 277 -414 277 -414 271.5 -424 c 128,-1,34
 266 -434 266 -434 263 -441 c 0,35,36
 253 -461 253 -461 253 -475 c 0,37,38
 253 -499 253 -499 288 -514 c 0,39,0
 300 -519 300 -519 324 -523.5 c 128,-1,1
EndSplineSet
EndChar

StartChar: semicolon
Encoding: 59 59 69
Width: 0
GlyphClass: 1
Flags: W
LayerCount: 2
Fore
SplineSet
324 -393.5 m 128,-1,1
 348 -398 348 -398 368 -398 c 2,2,-1
 417 -398 l 1,3,-1
 430 -351 l 2,4,5
 434 -331 434 -331 444 -303 c 128,-1,6
 454 -275 454 -275 464 -256 c 0,7,8
 484 -219 484 -219 484 -203 c 0,9,10
 484 -190 484 -190 471 -185.5 c 128,-1,11
 458 -181 458 -181 425 -181 c 0,12,13
 413 -181 413 -181 365 -183 c 0,14,15
 293 -186 293 -186 166.5 -189.5 c 128,-1,16
 40 -193 40 -193 -111 -195 c 0,17,18
 -240 -197 -240 -197 -328.5 -199 c 128,-1,19
 -417 -201 -417 -201 -447 -205 c 128,-1,20
 -477 -209 -477 -209 -477 -218 c 0,21,22
 -477 -223 -477 -223 -462 -236 c 0,23,24
 -452 -243 -452 -243 -377 -246 c 128,-1,25
 -302 -249 -302 -249 -85 -251 c 0,26,27
 -50 -251 -50 -251 -33 -252 c 0,28,29
 111 -253 111 -253 170 -254.5 c 128,-1,30
 229 -256 229 -256 253 -261 c 128,-1,31
 277 -266 277 -266 277 -278 c 0,32,33
 277 -284 277 -284 271.5 -294 c 128,-1,34
 266 -304 266 -304 263 -311 c 0,35,36
 253 -331 253 -331 253 -346 c 0,37,38
 253 -359 253 -359 261.5 -367.5 c 128,-1,39
 270 -376 270 -376 288 -384 c 0,40,0
 300 -389 300 -389 324 -393.5 c 128,-1,1
EndSplineSet
EndChar

StartChar: exclam
Encoding: 33 33 70
Width: 641
GlyphClass: 1
Flags: W
LayerCount: 2
Fore
SplineSet
400 -59 m 0,1,2
 471 -59 471 -59 522 -44 c 0,3,4
 611 -17 611 -17 611 21 c 0,5,6
 611 42 611 42 582 69 c 256,7,8
 553 96 553 96 463.5 124.5 c 128,-1,9
 374 153 374 153 270 172 c 128,-1,10
 166 191 166 191 100 191 c 0,11,12
 41 191 41 191 34 174 c 0,13,14
 30 165 30 165 30 156 c 0,15,16
 30 138 30 138 58.5 130.5 c 128,-1,17
 87 123 87 123 162 119 c 0,18,19
 259 114 259 114 309.5 102.5 c 128,-1,20
 360 91 360 91 382 69 c 0,21,22
 402 49 402 49 402 34 c 0,23,24
 402 12 402 12 354 4 c 0,25,26
 329 0 329 0 315 -9 c 128,-1,27
 301 -18 301 -18 301 -28 c 0,28,29
 301 -40 301 -40 323 -49 c 0,30,0
 346 -59 346 -59 400 -59 c 0,1,2
EndSplineSet
EndChar

StartChar: question
Encoding: 63 63 71
Width: 817
GlyphClass: 1
Flags: W
LayerCount: 2
Fore
SplineSet
576 208 m 0,1,2
 595 208 595 208 609 225 c 0,3,4
 614 230 614 230 614 238 c 0,5,6
 614 248 614 248 594 272 c 2,7,-1
 566 305 l 1,8,-1
 674 310 l 2,9,10
 787 314 787 314 787 328 c 0,11,12
 787 335 787 335 750 337.5 c 128,-1,13
 713 340 713 340 615 340 c 0,14,15
 439 340 439 340 439 329 c 0,16,17
 439 325 439 325 454.5 305.5 c 128,-1,18
 470 286 470 286 490 264 c 0,19,0
 543 208 543 208 576 208 c 0,1,2
697 -280 m 0,21,22
 714 -280 714 -280 714 -273 c 0,23,24
 714 -269 714 -269 691.5 -256.5 c 128,-1,25
 669 -244 669 -244 636 -230 c 0,26,27
 552 -192 552 -192 500 -138 c 128,-1,28
 448 -84 448 -84 420 -5 c 0,29,30
 363 157 363 157 278 210 c 0,31,32
 242 233 242 233 196.5 245.5 c 128,-1,33
 151 258 151 258 111 258 c 0,34,35
 85 258 85 258 65.5 252 c 128,-1,36
 46 246 46 246 37 234 c 0,37,38
 30 226 30 226 30 216 c 0,39,40
 30 205 30 205 43.5 197.5 c 128,-1,41
 57 190 57 190 80 190 c 0,42,43
 121 190 121 190 151.5 171.5 c 128,-1,44
 182 153 182 153 211 110 c 128,-1,45
 240 67 240 67 276 -12 c 0,46,47
 299 -62 299 -62 347.5 -116 c 128,-1,48
 396 -170 396 -170 442 -197 c 0,49,50
 459 -207 459 -207 497 -223 c 128,-1,51
 535 -239 535 -239 572 -251 c 0,52,20
 661 -280 661 -280 697 -280 c 0,21,22
504 28.5 m 128,-1,54
 522 26 522 26 547 26 c 0,55,56
 579 26 579 26 590.5 27.5 c 128,-1,57
 602 29 602 29 607.5 35.5 c 128,-1,58
 613 42 613 42 621 60 c 0,59,60
 627 74 627 74 636.5 87.5 c 128,-1,61
 646 101 646 101 653 105 c 0,62,63
 664 111 664 111 653 113.5 c 128,-1,64
 642 116 642 116 604 116 c 0,65,66
 569 116 569 116 556 114.5 c 128,-1,67
 543 113 543 113 538 107.5 c 128,-1,68
 533 102 533 102 527 86 c 0,69,70
 523 73 523 73 515.5 62.5 c 128,-1,71
 508 52 508 52 501 50 c 0,72,73
 495 48 495 48 490.5 43.5 c 128,-1,74
 486 39 486 39 486 35 c 256,75,53
 486 31 486 31 504 28.5 c 128,-1,54
EndSplineSet
EndChar

StartChar: numbersign
Encoding: 35 35 73
Width: 1126
GlyphClass: 1
Flags: W
LayerCount: 2
Fore
SplineSet
333 -78 m 0,1,2
 347 -78 347 -78 353 -74.5 c 128,-1,3
 359 -71 359 -71 362 -63 c 0,4,5
 364 -55 364 -55 364 -53 c 0,6,7
 364 -43 364 -43 351.5 -37 c 128,-1,8
 339 -31 339 -31 309 -26 c 0,9,10
 265 -18 265 -18 236.5 3 c 128,-1,11
 208 24 208 24 208 49 c 0,12,13
 208 98 208 98 276 121 c 128,-1,14
 344 144 344 144 488 144 c 0,15,16
 635 144 635 144 727 120.5 c 128,-1,17
 819 97 819 97 870 45 c 0,18,19
 893 22 893 22 893 9 c 0,20,21
 893 -2 893 -2 874.5 -10 c 128,-1,22
 856 -18 856 -18 816 -25 c 0,23,24
 800 -27 800 -27 789 -32 c 128,-1,25
 778 -37 778 -37 778 -41 c 0,26,27
 778 -55 778 -55 838 -66.5 c 128,-1,28
 898 -78 898 -78 964 -78 c 0,29,30
 1024 -78 1024 -78 1053 -68 c 0,31,32
 1073 -62 1073 -62 1081 -57 c 128,-1,33
 1089 -52 1089 -52 1091.5 -43 c 128,-1,34
 1094 -34 1094 -34 1096 -14 c 0,35,36
 1101 57 1101 57 1014.5 102.5 c 128,-1,37
 928 148 928 148 736 175 c 0,38,39
 579 197 579 197 468 197 c 0,40,41
 372 197 372 197 285 181 c 0,42,43
 149 157 149 157 89.5 127.5 c 128,-1,44
 30 98 30 98 30 55 c 0,45,46
 30 43 30 43 32 36 c 0,47,48
 40 3 40 3 99.5 -25 c 128,-1,49
 159 -53 159 -53 259 -69 c 0,50,0
 313 -78 313 -78 333 -78 c 0,1,2
573 -117 m 0,52,53
 610 -117 610 -117 648.5 -111 c 128,-1,54
 687 -105 687 -105 704 -96 c 0,55,56
 736 -80 736 -80 736 -53 c 0,57,58
 736 -29 736 -29 710.5 -4 c 128,-1,59
 685 21 685 21 639 41 c 0,60,61
 594 60 594 60 512.5 80 c 128,-1,62
 431 100 431 100 398 100 c 0,63,64
 380 100 380 100 368 92.5 c 128,-1,65
 356 85 356 85 356 74 c 0,66,67
 356 66 356 66 364 58 c 0,68,69
 369 53 369 53 390.5 47.5 c 128,-1,70
 412 42 412 42 438 38 c 0,71,72
 506 29 506 29 538.5 11 c 128,-1,73
 571 -7 571 -7 574 -37 c 0,74,75
 575 -43 575 -43 575 -52 c 0,76,77
 575 -63 575 -63 569 -66.5 c 128,-1,78
 563 -70 563 -70 544 -72 c 0,79,80
 527 -73 527 -73 517 -80 c 128,-1,81
 507 -87 507 -87 507 -96 c 0,82,83
 507 -109 507 -109 528 -113 c 0,84,51
 552 -117 552 -117 573 -117 c 0,52,53
EndSplineSet
EndChar

StartChar: slash
Encoding: 47 47 74
Width: 354
GlyphClass: 1
Flags: W
LayerCount: 2
Fore
SplineSet
587 -280 m 0,1,2
 604 -280 604 -280 604 -273 c 0,3,4
 604 -269 604 -269 581.5 -256.5 c 128,-1,5
 559 -244 559 -244 526 -230 c 0,6,7
 442 -192 442 -192 390 -138 c 128,-1,8
 338 -84 338 -84 310 -5 c 0,9,10
 253 157 253 157 168 210 c 0,11,12
 132 233 132 233 86.5 245.5 c 128,-1,13
 41 258 41 258 1 258 c 0,14,15
 -25 258 -25 258 -44.5 252 c 128,-1,16
 -64 246 -64 246 -73 234 c 0,17,18
 -80 226 -80 226 -80 216 c 0,19,20
 -80 205 -80 205 -66.5 197.5 c 128,-1,21
 -53 190 -53 190 -30 190 c 0,22,23
 11 190 11 190 41.5 171.5 c 128,-1,24
 72 153 72 153 101 110 c 128,-1,25
 130 67 130 67 166 -12 c 0,26,27
 189 -62 189 -62 237.5 -116 c 128,-1,28
 286 -170 286 -170 332 -197 c 0,29,30
 349 -207 349 -207 387 -223 c 128,-1,31
 425 -239 425 -239 462 -251 c 0,32,0
 551 -280 551 -280 587 -280 c 0,1,2
EndSplineSet
EndChar

StartChar: backslash
Encoding: 92 92 75
Width: 85
GlyphClass: 1
Flags: W
LayerCount: 2
Fore
SplineSet
45 -84.5 m 128,-1,1
 50 -81 50 -81 54 -77 c 256,2,3
 58 -73 58 -73 58.5 -60 c 128,-1,4
 59 -47 59 -47 59 -19 c 2,5,-1
 59 50 l 2,6,7
 58 133 58 133 56.5 152.5 c 128,-1,8
 55 172 55 172 49 183 c 0,9,10
 47 186 47 186 42.5 187 c 128,-1,11
 38 188 38 188 35 186 c 0,12,13
 30 181 30 181 30 181 c 2,14,15
 28 175 28 175 26.5 114 c 128,-1,16
 25 53 25 53 25 -8 c 0,17,18
 27 -52 27 -52 29 -70 c 128,-1,19
 31 -88 31 -88 37 -88 c 0,20,0
 40 -88 40 -88 45 -84.5 c 128,-1,1
EndSplineSet
EndChar

StartChar: exclam.alt
Encoding: 65538 -1 76
Width: 670
GlyphClass: 1
Flags: W
LayerCount: 2
Fore
SplineSet
417 -64 m 0,1,2
 476 -64 476 -64 542 -49.5 c 128,-1,3
 608 -35 608 -35 628 -15 c 0,4,5
 640 -3 640 -3 640 18 c 256,6,7
 640 39 640 39 626 59 c 0,8,9
 605 85 605 85 532.5 112.5 c 128,-1,10
 460 140 460 140 357 161.5 c 128,-1,11
 254 183 254 183 147 192 c 0,12,13
 91 196 91 196 82 196 c 0,14,15
 50 196 50 196 40 188 c 128,-1,16
 30 180 30 180 30 158 c 0,17,18
 30 142 30 142 35.5 136.5 c 128,-1,19
 41 131 41 131 62.5 128.5 c 128,-1,20
 84 126 84 126 151 123 c 0,21,22
 221 120 221 120 292 110.5 c 128,-1,23
 363 101 363 101 382 90 c 0,24,25
 428 65 428 65 428 30 c 0,26,27
 428 18 428 18 425.5 14 c 128,-1,28
 423 10 423 10 414.5 7.5 c 128,-1,29
 406 5 406 5 381 1 c 0,30,31
 361 -3 361 -3 344.5 -7.5 c 128,-1,32
 328 -12 328 -12 325 -15 c 0,33,34
 321 -19 321 -19 321 -24 c 0,35,36
 321 -33 321 -33 331 -42 c 128,-1,37
 341 -51 341 -51 358 -57 c 0,38,0
 378 -64 378 -64 417 -64 c 0,1,2
EndSplineSet
EndChar

StartChar: numbersign.alt
Encoding: 65539 -1 77
Width: 1045
GlyphClass: 1
Flags: W
LayerCount: 2
Fore
SplineSet
303.5 -91 m 128,-1,1
 314 -93 314 -93 317.5 -93.5 c 128,-1,2
 321 -94 321 -94 325 -92 c 0,3,4
 331 -89 331 -89 335.5 -80 c 128,-1,5
 340 -71 340 -71 340 -63 c 0,6,7
 340 -56 340 -56 337 -53 c 0,8,9
 332 -46 332 -46 310 -43 c 0,10,11
 250 -33 250 -33 220 -8.5 c 128,-1,12
 190 16 190 16 193 47 c 0,13,14
 198 94 198 94 266 119 c 128,-1,15
 334 144 334 144 456 144 c 0,16,17
 709 144 709 144 797 47 c 0,18,19
 812 29 812 29 818 19.5 c 128,-1,20
 824 10 824 10 824 2 c 0,21,22
 824 -31 824 -31 771 -34 c 0,23,24
 748 -36 748 -36 737.5 -38.5 c 128,-1,25
 727 -41 727 -41 723 -47 c 0,26,27
 720 -51 720 -51 720 -54 c 0,28,29
 720 -61 720 -61 732 -68 c 0,30,31
 743 -76 743 -76 799.5 -84.5 c 128,-1,32
 856 -93 856 -93 895 -93 c 0,33,34
 910 -93 910 -93 916 -92 c 0,35,36
 962 -86 962 -86 980.5 -81 c 128,-1,37
 999 -76 999 -76 1007 -64.5 c 128,-1,38
 1015 -53 1015 -53 1015 -28 c 0,39,40
 1015 4 1015 4 1006.5 24.5 c 128,-1,41
 998 45 998 45 977 65 c 0,42,43
 899 145 899 145 675 174 c 0,44,45
 589 185 589 185 532.5 190.5 c 128,-1,46
 476 196 476 196 426 196 c 0,47,48
 356 196 356 196 288.5 184.5 c 128,-1,49
 221 173 221 173 137 146 c 0,50,51
 87 130 87 130 64.5 114 c 128,-1,52
 42 98 42 98 35 74 c 0,53,54
 30 59 30 59 30 44 c 0,55,56
 30 0 30 0 90 -34.5 c 128,-1,57
 150 -69 150 -69 268 -86 c 0,58,0
 293 -89 293 -89 303.5 -91 c 128,-1,1
515 -105 m 0,60,61
 549 -105 549 -105 584 -100 c 128,-1,62
 619 -95 619 -95 634 -86 c 0,63,64
 663 -71 663 -71 663 -48 c 0,65,66
 663 -27 663 -27 639.5 -4 c 128,-1,67
 616 19 616 19 575 37 c 0,68,69
 534 54 534 54 461 72 c 128,-1,70
 388 90 388 90 358 90 c 0,71,72
 342 90 342 90 331.5 83 c 128,-1,73
 321 76 321 76 321 67 c 0,74,75
 321 59 321 59 328 52 c 0,76,77
 332 48 332 48 351 43 c 128,-1,78
 370 38 370 38 394 34 c 0,79,80
 455 26 455 26 484.5 10 c 128,-1,81
 514 -6 514 -6 517 -33 c 0,82,83
 519 -53 519 -53 515 -58 c 128,-1,84
 511 -63 511 -63 490 -65 c 0,85,86
 475 -66 475 -66 465.5 -72.5 c 128,-1,87
 456 -79 456 -79 456 -86 c 0,88,89
 456 -98 456 -98 475 -102 c 0,90,59
 490 -105 490 -105 515 -105 c 0,60,61
EndSplineSet
EndChar

StartChar: braceright
Encoding: 125 125 80
Width: 0
GlyphClass: 1
Flags: W
LayerCount: 2
Fore
SplineSet
-1037 171 m 128,-1,1
 -1032 174 -1032 174 -1028 177 c 0,2,3
 -1024 181 -1024 181 -1023.5 191 c 128,-1,4
 -1023 201 -1023 201 -1023 225 c 2,5,-1
 -1023 282 l 2,6,7
 -1024 349 -1024 349 -1025 365.5 c 128,-1,8
 -1026 382 -1026 382 -1033 391 c 0,9,10
 -1035 394 -1035 394 -1039.5 394.5 c 128,-1,11
 -1044 395 -1044 395 -1047 393 c 0,12,13
 -1051 391 -1051 391 -1052 389 c 0,14,15
 -1054 385 -1054 385 -1055.5 334.5 c 128,-1,16
 -1057 284 -1057 284 -1057 234 c 0,17,18
 -1055 197 -1055 197 -1053 182.5 c 128,-1,19
 -1051 168 -1051 168 -1045 168 c 0,20,0
 -1042 168 -1042 168 -1037 171 c 128,-1,1
EndSplineSet
EndChar

StartChar: bracketleft
Encoding: 91 91 81
Width: 0
GlyphClass: 1
Flags: W
LayerCount: 2
Fore
SplineSet
690 -349 m 0,1,2
 748 -349 748 -349 802 -337 c 0,3,4
 856 -326 856 -326 882 -308 c 128,-1,5
 908 -290 908 -290 908 -262 c 0,6,7
 908 -248 908 -248 903 -235 c 0,8,9
 894 -211 894 -211 865.5 -194 c 128,-1,10
 837 -177 837 -177 806 -177 c 0,11,12
 792 -177 792 -177 781 -181 c 0,13,14
 768 -186 768 -186 768 -198 c 0,15,16
 768 -208 768 -208 781 -232 c 0,17,18
 791 -249 791 -249 791 -263 c 0,19,20
 791 -298 791 -298 715 -298 c 0,21,22
 625 -298 625 -298 438 -251 c 0,23,24
 275 -211 275 -211 196.5 -198 c 128,-1,25
 118 -185 118 -185 45 -185 c 0,26,27
 -16 -186 -16 -186 -71.5 -197.5 c 128,-1,28
 -127 -209 -127 -209 -281 -254 c 0,29,30
 -316 -265 -316 -265 -367 -273.5 c 128,-1,31
 -418 -282 -418 -282 -442 -282 c 0,32,33
 -476 -282 -476 -282 -501.5 -273.5 c 128,-1,34
 -527 -265 -527 -265 -529 -251 c 0,35,36
 -530 -247 -530 -247 -522 -235 c 128,-1,37
 -514 -223 -514 -223 -510 -216 c 0,38,39
 -502 -202 -502 -202 -496.5 -187.5 c 128,-1,40
 -491 -173 -491 -173 -491 -168 c 0,41,42
 -491 -157 -491 -157 -500.5 -151 c 128,-1,43
 -510 -145 -510 -145 -525 -145 c 0,44,45
 -552 -145 -552 -145 -577 -162 c 0,46,47
 -590 -171 -590 -171 -594 -181 c 128,-1,48
 -598 -191 -598 -191 -598 -212 c 0,49,50
 -598 -247 -598 -247 -580.5 -273.5 c 128,-1,51
 -563 -300 -563 -300 -529 -316 c 0,52,53
 -483 -339 -483 -339 -420 -339 c 0,54,55
 -344 -339 -344 -339 -240 -303 c 0,56,57
 -175 -280 -175 -280 -114.5 -269 c 128,-1,58
 -54 -258 -54 -258 16 -258 c 0,59,60
 95 -258 95 -258 197 -272 c 128,-1,61
 299 -286 299 -286 443 -317 c 0,62,0
 597 -349 597 -349 690 -349 c 0,1,2
EndSplineSet
EndChar

StartChar: bracketright
Encoding: 93 93 82
Width: 0
GlyphClass: 1
Flags: W
LayerCount: 2
Fore
SplineSet
908 -262 m 0,1,2
 908 -290 908 -290 882 -308 c 128,-1,3
 856 -326 856 -326 802 -337 c 0,4,5
 748 -349 748 -349 690 -349 c 0,6,7
 597 -349 597 -349 443 -317 c 0,8,9
 351 -298 351 -298 264 -283 c 1,10,11
 249 -309 249 -309 221 -325 c 0,12,13
 202 -337 202 -337 165.5 -345 c 128,-1,14
 129 -353 129 -353 92 -353 c 0,15,16
 56 -353 56 -353 31 -345 c 0,17,18
 -13 -331 -13 -331 -33.5 -312 c 128,-1,19
 -54 -293 -54 -293 -57 -261 c 1,20,21
 -147 -269 -147 -269 -240 -303 c 0,22,23
 -344 -339 -344 -339 -420 -339 c 0,24,25
 -483 -339 -483 -339 -529 -316 c 0,26,27
 -563 -300 -563 -300 -580.5 -273.5 c 128,-1,28
 -598 -247 -598 -247 -598 -212 c 0,29,30
 -598 -191 -598 -191 -594 -181 c 128,-1,31
 -590 -171 -590 -171 -577 -162 c 0,32,33
 -552 -145 -552 -145 -525 -145 c 0,34,35
 -510 -145 -510 -145 -500.5 -151 c 128,-1,36
 -491 -157 -491 -157 -491 -168 c 0,37,38
 -491 -173 -491 -173 -496.5 -187.5 c 128,-1,39
 -502 -202 -502 -202 -510 -216 c 0,40,41
 -514 -223 -514 -223 -522 -235 c 128,-1,42
 -530 -247 -530 -247 -529 -251 c 0,43,44
 -527 -265 -527 -265 -501.5 -273.5 c 128,-1,45
 -476 -282 -476 -282 -442 -282 c 0,46,47
 -418 -282 -418 -282 -367 -273.5 c 128,-1,48
 -316 -265 -316 -265 -281 -254 c 0,49,50
 -200 -231 -200 -231 -140.5 -215 c 128,-1,51
 -81 -199 -81 -199 -49 -193 c 1,52,53
 -35 -160 -35 -160 1 -135 c 0,54,55
 14 -126 14 -126 42.5 -119.5 c 128,-1,56
 71 -113 71 -113 103 -113 c 0,57,58
 138 -113 138 -113 173.5 -117 c 128,-1,59
 209 -121 209 -121 222 -127 c 0,60,61
 281 -157 281 -157 281 -215 c 1,62,63
 329 -225 329 -225 438 -251 c 0,64,65
 625 -298 625 -298 715 -298 c 0,66,67
 791 -298 791 -298 791 -263 c 0,68,69
 791 -249 791 -249 781 -232 c 0,70,71
 768 -208 768 -208 768 -198 c 0,72,73
 768 -186 768 -186 781 -181 c 0,74,75
 792 -177 792 -177 806 -177 c 0,76,77
 837 -177 837 -177 865.5 -194 c 128,-1,78
 894 -211 894 -211 903 -235 c 0,79,0
 908 -248 908 -248 908 -262 c 0,1,2
60.5 -158.5 m 128,-1,81
 46 -164 46 -164 28 -185 c 1,82,-1
 45 -185 l 2,83,84
 123 -185 123 -185 202 -199 c 1,85,86
 187 -153 187 -153 106 -153 c 0,87,80
 75 -153 75 -153 60.5 -158.5 c 128,-1,81
179 -270 m 1,88,89
 77 -257 77 -257 1 -258 c 1,90,91
 4 -273 4 -273 11 -282 c 256,92,93
 18 -291 18 -291 34 -296 c 128,-1,94
 50 -301 50 -301 71 -301 c 0,95,96
 100 -301 100 -301 129.5 -293.5 c 128,-1,97
 159 -286 159 -286 175 -273 c 2,98,-1
 179 -270 l 1,88,89
EndSplineSet
EndChar

StartChar: hyphen
Encoding: 45 45 83
Width: 388
GlyphClass: 1
Flags: W
LayerCount: 2
Fore
SplineSet
110 -67 m 128,-1,1
 140 -69 140 -69 170 -69 c 256,2,3
 200 -69 200 -69 214.5 -64.5 c 128,-1,4
 229 -60 229 -60 240 -49 c 0,5,6
 250 -39 250 -39 253.5 -30 c 128,-1,7
 257 -21 257 -21 257 -2 c 256,8,9
 257 17 257 17 254 56 c 1,10,11
 254 50 254 50 250 94 c 2,12,-1
 248 119 l 2,13,14
 248 131 248 131 254.5 135.5 c 128,-1,15
 261 140 261 140 279 140 c 0,16,17
 295 140 295 140 301.5 142.5 c 128,-1,18
 308 145 308 145 308 152 c 0,19,20
 308 162 308 162 302.5 167 c 128,-1,21
 297 172 297 172 280 174 c 128,-1,22
 263 176 263 176 225 178 c 0,23,24
 211 179 211 179 187 179 c 0,25,26
 147 179 147 179 133.5 169 c 128,-1,27
 120 159 120 159 120 126 c 0,28,29
 120 108 120 108 123 81 c 0,30,31
 125 47 125 47 125 38 c 0,32,33
 125 3 125 3 114 -8.5 c 128,-1,34
 103 -20 103 -20 72 -20 c 0,35,36
 52 -20 52 -20 45.5 -23.5 c 128,-1,37
 39 -27 39 -27 41 -37 c 0,38,39
 43 -44 43 -44 51 -51 c 128,-1,40
 59 -58 59 -58 69 -61 c 0,41,0
 80 -65 80 -65 110 -67 c 128,-1,1
EndSplineSet
EndChar

StartChar: quotedblleft
Encoding: 8220 8220 85
Width: 0
GlyphClass: 1
Flags: W
LayerCount: 2
Fore
SplineSet
464 -345 m 0,1,2
 513 -345 513 -345 560.5 -333.5 c 128,-1,3
 608 -322 608 -322 627 -307 c 0,4,5
 641 -295 641 -295 641 -274 c 0,6,7
 641 -255 641 -255 629.5 -235 c 128,-1,8
 618 -215 618 -215 600 -206 c 0,9,10
 584 -197 584 -197 567 -197 c 0,11,12
 553 -197 553 -197 544.5 -202.5 c 128,-1,13
 536 -208 536 -208 536 -218 c 0,14,15
 536 -223 536 -223 539 -229 c 0,16,17
 543 -237 543 -237 546 -248.5 c 128,-1,18
 549 -260 549 -260 549 -269 c 0,19,20
 549 -300 549 -300 487 -300 c 0,21,22
 411 -300 411 -300 268 -255 c 0,23,24
 209 -236 209 -236 180 -229.5 c 128,-1,25
 151 -223 151 -223 126 -223 c 0,26,27
 116 -223 116 -223 90 -225 c 256,28,29
 64 -227 64 -227 27 -235 c 128,-1,30
 -10 -243 -10 -243 -35 -251 c 0,31,32
 -136 -285 -136 -285 -207 -285 c 0,33,34
 -234 -285 -234 -285 -249.5 -278.5 c 128,-1,35
 -265 -272 -265 -272 -265 -260 c 0,36,37
 -265 -244 -265 -244 -253 -220 c 0,38,39
 -242 -196 -242 -196 -242 -191 c 0,40,41
 -242 -187 -242 -187 -246 -183 c 128,-1,42
 -250 -179 -250 -179 -256 -174 c 0,43,44
 -268 -165 -268 -165 -275 -165 c 0,45,46
 -281 -165 -281 -165 -294 -173 c 0,47,48
 -323 -193 -323 -193 -323 -225 c 0,49,50
 -323 -241 -323 -241 -317 -260 c 0,51,52
 -293 -331 -293 -331 -192 -331 c 0,53,54
 -129 -331 -129 -331 -51 -305 c 0,55,56
 41 -275 41 -275 117 -275 c 0,57,58
 199 -275 199 -275 299 -307 c 0,59,60
 402 -339 402 -339 424 -343 c 0,61,0
 437 -345 437 -345 464 -345 c 0,1,2
EndSplineSet
EndChar

StartChar: quoteleft
Encoding: 8216 8216 87
Width: 0
GlyphClass: 1
Flags: W
LayerCount: 2
Fore
SplineSet
623 -548 m 256,1,2
 651 -548 651 -548 701 -546 c 0,3,4
 771 -542 771 -542 829.5 -524.5 c 128,-1,5
 888 -507 888 -507 954 -470 c 128,-1,6
 1020 -433 1020 -433 1113 -366 c 0,7,8
 1180 -317 1180 -317 1262 -265 c 0,9,10
 1294 -245 1294 -245 1310 -228 c 128,-1,11
 1326 -211 1326 -211 1318 -204 c 0,12,13
 1313 -199 1313 -199 1269 -199 c 0,14,15
 1238 -199 1238 -199 1202 -202 c 128,-1,16
 1166 -205 1166 -205 1145 -209 c 0,17,18
 1099 -219 1099 -219 1074 -228 c 128,-1,19
 1049 -237 1049 -237 1035 -252 c 0,20,21
 1015 -272 1015 -272 963 -312.5 c 128,-1,22
 911 -353 911 -353 874 -376 c 0,23,24
 775 -438 775 -438 696 -465 c 0,25,26
 639 -484 639 -484 574 -484 c 0,27,28
 476 -484 476 -484 355 -441 c 0,29,30
 345 -438 345 -438 318.5 -428.5 c 128,-1,31
 292 -419 292 -419 284 -419 c 0,32,33
 275 -419 275 -419 271 -426 c 0,34,35
 268 -431 268 -431 268 -435 c 0,36,37
 268 -452 268 -452 326 -477 c 0,38,39
 448 -533 448 -533 587 -547 c 0,40,0
 595 -548 595 -548 623 -548 c 256,1,2
EndSplineSet
EndChar

StartChar: guillemotleft
Encoding: 171 171 88
Width: 0
GlyphClass: 1
Flags: W
LayerCount: 2
Fore
SplineSet
-270 171 m 128,-1,1
 -265 174 -265 174 -261 177 c 0,2,3
 -257 181 -257 181 -256.5 191 c 128,-1,4
 -256 201 -256 201 -256 225 c 2,5,-1
 -256 282 l 2,6,7
 -257 349 -257 349 -258 365.5 c 128,-1,8
 -259 382 -259 382 -266 391 c 0,9,10
 -268 394 -268 394 -272.5 394.5 c 128,-1,11
 -277 395 -277 395 -280 393 c 0,12,13
 -284 391 -284 391 -285 389 c 0,14,15
 -287 385 -287 385 -288.5 334.5 c 128,-1,16
 -290 284 -290 284 -290 234 c 0,17,18
 -288 197 -288 197 -286 182.5 c 128,-1,19
 -284 168 -284 168 -278 168 c 0,20,0
 -275 168 -275 168 -270 171 c 128,-1,1
EndSplineSet
EndChar

StartChar: quotedbl
Encoding: 34 34 89
Width: 0
GlyphClass: 1
Flags: W
LayerCount: 2
Fore
SplineSet
-206 -523.5 m 128,-1,1
 -182 -528 -182 -528 -162 -528 c 2,2,-1
 -113 -528 l 1,3,-1
 -100 -481 l 2,4,5
 -96 -461 -96 -461 -86 -433 c 128,-1,6
 -76 -405 -76 -405 -66 -386 c 0,7,8
 -46 -349 -46 -349 -46 -333 c 0,9,10
 -46 -320 -46 -320 -59 -315.5 c 128,-1,11
 -72 -311 -72 -311 -105 -311 c 0,12,13
 -117 -311 -117 -311 -165 -313 c 0,14,15
 -237 -316 -237 -316 -363.5 -319.5 c 128,-1,16
 -490 -323 -490 -323 -641 -325 c 0,17,18
 -770 -327 -770 -327 -858.5 -329.5 c 128,-1,19
 -947 -332 -947 -332 -977 -336 c 128,-1,20
 -1007 -340 -1007 -340 -1007 -348 c 0,21,22
 -1007 -353 -1007 -353 -992 -366 c 0,23,24
 -982 -373 -982 -373 -907 -376 c 128,-1,25
 -832 -379 -832 -379 -615 -381 c 0,26,27
 -580 -381 -580 -381 -563 -382 c 0,28,29
 -419 -383 -419 -383 -360 -384.5 c 128,-1,30
 -301 -386 -301 -386 -277 -391 c 128,-1,31
 -253 -396 -253 -396 -253 -408 c 0,32,33
 -253 -414 -253 -414 -258.5 -424 c 128,-1,34
 -264 -434 -264 -434 -267 -441 c 0,35,36
 -277 -461 -277 -461 -277 -475 c 0,37,38
 -277 -499 -277 -499 -242 -514 c 0,39,0
 -230 -519 -230 -519 -206 -523.5 c 128,-1,1
EndSplineSet
EndChar

StartChar: quotesingle
Encoding: 39 39 90
Width: 0
GlyphClass: 1
Flags: W
LayerCount: 2
Fore
SplineSet
-206 -393.5 m 128,-1,1
 -182 -398 -182 -398 -162 -398 c 2,2,-1
 -113 -398 l 1,3,-1
 -100 -351 l 2,4,5
 -96 -331 -96 -331 -86 -303 c 128,-1,6
 -76 -275 -76 -275 -66 -256 c 0,7,8
 -46 -219 -46 -219 -46 -203 c 0,9,10
 -46 -190 -46 -190 -59 -185.5 c 128,-1,11
 -72 -181 -72 -181 -105 -181 c 0,12,13
 -117 -181 -117 -181 -165 -183 c 0,14,15
 -237 -186 -237 -186 -363.5 -189.5 c 128,-1,16
 -490 -193 -490 -193 -641 -195 c 0,17,18
 -770 -197 -770 -197 -858.5 -199.5 c 128,-1,19
 -947 -202 -947 -202 -977 -206 c 128,-1,20
 -1007 -210 -1007 -210 -1007 -218 c 0,21,22
 -1007 -223 -1007 -223 -992 -236 c 0,23,24
 -982 -243 -982 -243 -907 -246 c 128,-1,25
 -832 -249 -832 -249 -615 -251 c 0,26,27
 -580 -251 -580 -251 -563 -252 c 0,28,29
 -419 -253 -419 -253 -360 -254.5 c 128,-1,30
 -301 -256 -301 -256 -277 -261 c 128,-1,31
 -253 -266 -253 -266 -253 -278 c 0,32,33
 -253 -284 -253 -284 -258.5 -294 c 128,-1,34
 -264 -304 -264 -304 -267 -311 c 0,35,36
 -277 -331 -277 -331 -277 -345 c 0,37,38
 -277 -369 -277 -369 -242 -384 c 0,39,0
 -230 -389 -230 -389 -206 -393.5 c 128,-1,1
EndSplineSet
EndChar

StartChar: dollar
Encoding: 36 36 91
Width: 1165
GlyphClass: 1
Flags: W
LayerCount: 2
Fore
SplineSet
658 -30 m 128,-1,1
 676 -5 676 -5 680 22 c 0,2,3
 680 25 680 25 692 25 c 2,4,-1
 732 24 l 2,5,6
 752 23 752 23 864 19 c 0,7,8
 985 16 985 16 1024 13.5 c 128,-1,9
 1063 11 1063 11 1083 3 c 0,10,11
 1107 -6 1107 -6 1118 -6 c 0,12,13
 1135 -6 1135 -6 1135 16 c 256,14,15
 1135 38 1135 38 1108 52 c 128,-1,16
 1081 66 1081 66 1020 74 c 128,-1,17
 959 82 959 82 852 87 c 0,18,19
 795 90 795 90 747.5 94 c 128,-1,20
 700 98 700 98 685 100 c 0,21,22
 683 102 683 102 683 105 c 2,23,-1
 686 126 l 2,24,25
 688 134 688 134 690 136.5 c 128,-1,26
 692 139 692 139 696.5 140.5 c 128,-1,27
 701 142 701 142 704 147 c 0,28,29
 710 158 710 158 710 167 c 0,30,31
 710 180 710 180 693 187 c 128,-1,32
 676 194 676 194 635 196 c 0,33,34
 578 199 578 199 577 136 c 0,35,36
 577 129 577 129 577 122 c 128,-1,37
 577 115 577 115 576 111.5 c 128,-1,38
 575 108 575 108 573 108 c 0,39,40
 549 108 549 108 532 111 c 0,41,42
 460 122 460 122 408.5 166 c 128,-1,43
 357 210 357 210 338 277 c 0,44,45
 322 335 322 335 272.5 373 c 128,-1,46
 223 411 223 411 146 424 c 0,47,48
 95 433 95 433 68 433 c 0,49,50
 31 433 31 433 31 414 c 0,51,52
 31 407 31 407 36 394 c 0,53,54
 43 379 43 379 52 374.5 c 128,-1,55
 61 370 61 370 87 370 c 0,56,57
 125 370 125 370 148.5 345 c 128,-1,58
 172 320 172 320 197 251 c 0,59,60
 223 181 223 181 264.5 142 c 128,-1,61
 306 103 306 103 378 78 c 0,62,63
 405 69 405 69 439.5 61.5 c 128,-1,64
 474 54 474 54 495 51 c 0,65,66
 531 46 531 46 532 46 c 0,67,68
 548 45 548 45 557 43.5 c 128,-1,69
 566 42 566 42 566 39 c 0,70,71
 566 30 566 30 557 7 c 0,72,73
 554 1 554 1 547.5 -14 c 128,-1,74
 541 -29 541 -29 541 -35 c 256,75,76
 541 -41 541 -41 545.5 -43.5 c 128,-1,77
 550 -46 550 -46 558 -48 c 128,-1,78
 566 -50 566 -50 570 -51 c 0,79,80
 594 -57 594 -57 625 -56 c 0,81,0
 640 -55 640 -55 658 -30 c 128,-1,1
EndSplineSet
EndChar

StartChar: plus
Encoding: 43 43 93
Width: 332
GlyphClass: 1
Flags: W
LayerCount: 2
Fore
SplineSet
163.5 -88.5 m 128,-1,1
 174 -85 174 -85 179 -81 c 0,2,3
 186 -76 186 -76 187.5 -67 c 128,-1,4
 189 -58 189 -58 189 -21 c 0,5,6
 189 7 189 7 189.5 16.5 c 128,-1,7
 190 26 190 26 190 27 c 0,8,9
 204 29 204 29 241 32 c 128,-1,10
 278 35 278 35 296 35 c 2,11,-1
 312 35 l 1,12,-1
 314 39 l 2,13,14
 316 42 316 42 316 46 c 0,15,16
 316 52 316 52 314 58 c 2,17,-1
 308 76 l 1,18,-1
 304 81 l 1,19,-1
 247 82 l 1,20,-1
 190 82 l 1,21,-1
 188 112 l 2,22,23
 187 145 187 145 183 161.5 c 128,-1,24
 179 178 179 178 170 186 c 0,25,26
 164 191 164 191 158 191 c 2,27,-1
 145 189 l 2,28,29
 138 188 138 188 134 184 c 0,30,31
 131 181 131 181 129 162 c 128,-1,32
 127 143 127 143 127 117 c 2,33,-1
 125 83 l 1,34,35
 120 82 120 82 61 77 c 2,36,-1
 38 75 l 2,37,38
 17 73 17 73 17 73 c 2,39,40
 15 71 15 71 15 65 c 0,41,42
 15 50 15 50 23 23 c 0,43,44
 24 21 24 21 24.5 18.5 c 128,-1,45
 25 16 25 16 26.5 15 c 128,-1,46
 28 14 28 14 32 14 c 0,47,48
 42 14 42 14 66 18 c 2,49,-1
 99 22 l 2,50,51
 123 24 123 24 123 23 c 1,52,53
 124 23 124 23 126 -10 c 0,54,55
 128 -50 128 -50 132 -71 c 128,-1,56
 136 -92 136 -92 147 -92 c 0,57,0
 153 -92 153 -92 163.5 -88.5 c 128,-1,1
EndSplineSet
EndChar

StartChar: equal
Encoding: 61 61 94
Width: 160
GlyphClass: 1
Flags: W
LayerCount: 2
Fore
SplineSet
35 446 m 0,1,2
 45 446 45 446 57.5 453 c 128,-1,3
 70 460 70 460 80 470 c 0,4,5
 116 507 116 507 135.5 549 c 128,-1,6
 155 591 155 591 155 626 c 0,7,8
 155 665 155 665 138.5 700 c 128,-1,9
 122 735 122 735 98 746 c 0,10,11
 83 752 83 752 69 752 c 0,12,13
 42 752 42 752 23.5 734 c 128,-1,14
 5 716 5 716 5 685 c 0,15,16
 5 660 5 660 20.5 647.5 c 128,-1,17
 36 635 36 635 63 635 c 0,18,19
 75 635 75 635 90 638 c 2,20,-1
 91 638 l 2,21,22
 96 638 96 638 96 628 c 2,23,-1
 94 609 l 2,24,25
 89 570 89 570 77.5 544 c 128,-1,26
 66 518 66 518 38 487 c 0,27,28
 20 468 20 468 20 458 c 0,29,30
 20 451 20 451 27 448 c 0,31,0
 31 446 31 446 35 446 c 0,1,2
EndSplineSet
EndChar

StartChar: notequal
Encoding: 8800 8800 95
Width: 0
GlyphClass: 1
Flags: W
LayerCount: 2
Fore
SplineSet
10 482 m 0,1,2
 -32 539 -32 539 -72 567 c 0,3,4
 -128 608 -128 608 -197.5 630 c 128,-1,5
 -267 652 -267 652 -342 652 c 0,6,7
 -389 652 -389 652 -435 643 c 0,8,9
 -583 615 -583 615 -683 491 c 0,10,11
 -709 458 -709 458 -719.5 443 c 128,-1,12
 -730 428 -730 428 -730 422 c 0,13,14
 -730 414 -730 414 -715 414 c 0,15,16
 -703 414 -703 414 -692.5 422 c 128,-1,17
 -682 430 -682 430 -670 443 c 128,-1,18
 -658 456 -658 456 -653 461 c 0,19,20
 -615 500 -615 500 -574.5 529.5 c 128,-1,21
 -534 559 -534 559 -497 572 c 0,22,23
 -431 596 -431 596 -361 596 c 0,24,25
 -272 596 -272 596 -180 557 c 0,26,27
 -139 540 -139 540 -102.5 515 c 128,-1,28
 -66 490 -66 490 -48 466 c 0,29,30
 -39 453 -39 453 -25 439.5 c 128,-1,31
 -11 426 -11 426 -2 419 c 0,32,33
 9 411 9 411 23 411 c 0,34,35
 39 411 39 411 43 422 c 0,36,0
 47 432 47 432 10 482 c 0,1,2
-342 435 m 0,38,39
 -326 435 -326 435 -319 439 c 256,40,41
 -312 443 -312 443 -302.5 452 c 128,-1,42
 -293 461 -293 461 -290 470 c 0,43,44
 -286 482 -286 482 -286 490 c 0,45,46
 -286 503 -286 503 -291 513 c 0,47,48
 -298 527 -298 527 -311 534.5 c 128,-1,49
 -324 542 -324 542 -339 542 c 256,50,51
 -354 542 -354 542 -367.5 534 c 128,-1,52
 -381 526 -381 526 -388 511 c 0,53,54
 -391 504 -391 504 -391 489 c 0,55,56
 -391 469 -391 469 -387 462 c 256,57,58
 -383 455 -383 455 -375.5 448 c 128,-1,59
 -368 441 -368 441 -361 438 c 0,60,37
 -355 435 -355 435 -342 435 c 0,38,39
EndSplineSet
EndChar

StartChar: greater
Encoding: 62 62 96
Width: 1198
GlyphClass: 1
Flags: W
LayerCount: 2
Fore
SplineSet
697 -280 m 0,1,2
 714 -280 714 -280 714 -273 c 0,3,4
 714 -269 714 -269 691.5 -256.5 c 128,-1,5
 669 -244 669 -244 636 -230 c 0,6,7
 552 -192 552 -192 500 -138 c 128,-1,8
 448 -84 448 -84 420 -5 c 0,9,10
 363 157 363 157 278 210 c 0,11,12
 242 233 242 233 196.5 245.5 c 128,-1,13
 151 258 151 258 111 258 c 0,14,15
 85 258 85 258 65.5 252 c 128,-1,16
 46 246 46 246 37 234 c 0,17,18
 30 226 30 226 30 216 c 0,19,20
 30 205 30 205 43.5 197.5 c 128,-1,21
 57 190 57 190 80 190 c 0,22,23
 121 190 121 190 151.5 171.5 c 128,-1,24
 182 153 182 153 211 110 c 128,-1,25
 240 67 240 67 276 -12 c 0,26,27
 299 -62 299 -62 347.5 -116 c 128,-1,28
 396 -170 396 -170 442 -197 c 0,29,30
 459 -207 459 -207 497 -223 c 128,-1,31
 535 -239 535 -239 572 -251 c 0,32,0
 661 -280 661 -280 697 -280 c 0,1,2
504 27.5 m 128,-1,34
 522 25 522 25 547 25 c 0,35,36
 579 25 579 25 590.5 26.5 c 128,-1,37
 602 28 602 28 607.5 34.5 c 128,-1,38
 613 41 613 41 621 59 c 0,39,40
 627 73 627 73 636.5 86.5 c 128,-1,41
 646 100 646 100 653 104 c 0,42,43
 663 110 663 110 653 112 c 128,-1,44
 643 114 643 114 604 115 c 0,45,46
 568 115 568 115 555.5 113.5 c 128,-1,47
 543 112 543 112 537.5 106.5 c 128,-1,48
 532 101 532 101 527 85 c 0,49,50
 522 72 522 72 515 61.5 c 128,-1,51
 508 51 508 51 501 49 c 0,52,53
 495 47 495 47 490.5 42.5 c 128,-1,54
 486 38 486 38 486 34 c 256,55,33
 486 30 486 30 504 27.5 c 128,-1,34
674 27.5 m 128,-1,57
 692 25 692 25 717 25 c 0,58,59
 749 25 749 25 760.5 26.5 c 128,-1,60
 772 28 772 28 777.5 34.5 c 128,-1,61
 783 41 783 41 791 59 c 0,62,63
 797 73 797 73 806.5 86.5 c 128,-1,64
 816 100 816 100 823 104 c 0,65,66
 833 110 833 110 823 112 c 128,-1,67
 813 114 813 114 774 115 c 0,68,69
 738 115 738 115 725.5 113.5 c 128,-1,70
 713 112 713 112 707.5 106.5 c 128,-1,71
 702 101 702 101 697 85 c 0,72,73
 692 72 692 72 685 61.5 c 128,-1,74
 678 51 678 51 671 49 c 0,75,76
 665 47 665 47 660.5 42.5 c 128,-1,77
 656 38 656 38 656 34 c 256,78,56
 656 30 656 30 674 27.5 c 128,-1,57
844 27.5 m 128,-1,80
 862 25 862 25 887 25 c 0,81,82
 919 25 919 25 930.5 26.5 c 128,-1,83
 942 28 942 28 947.5 34.5 c 128,-1,84
 953 41 953 41 961 59 c 0,85,86
 967 73 967 73 976.5 86.5 c 128,-1,87
 986 100 986 100 993 104 c 0,88,89
 1003 110 1003 110 993 112 c 128,-1,90
 983 114 983 114 944 115 c 0,91,92
 908 115 908 115 895.5 113.5 c 128,-1,93
 883 112 883 112 877.5 106.5 c 128,-1,94
 872 101 872 101 867 85 c 0,95,96
 862 72 862 72 855 61.5 c 128,-1,97
 848 51 848 51 841 49 c 0,98,99
 835 47 835 47 830.5 42.5 c 128,-1,100
 826 38 826 38 826 34 c 256,101,79
 826 30 826 30 844 27.5 c 128,-1,80
1014 27.5 m 128,-1,103
 1032 25 1032 25 1057 25 c 0,104,105
 1089 25 1089 25 1100.5 26.5 c 128,-1,106
 1112 28 1112 28 1117.5 34.5 c 128,-1,107
 1123 41 1123 41 1131 59 c 0,108,109
 1137 73 1137 73 1146.5 86.5 c 128,-1,110
 1156 100 1156 100 1163 104 c 0,111,112
 1173 110 1173 110 1163 112 c 128,-1,113
 1153 114 1153 114 1114 115 c 0,114,115
 1078 115 1078 115 1065.5 113.5 c 128,-1,116
 1053 112 1053 112 1047.5 106.5 c 128,-1,117
 1042 101 1042 101 1037 85 c 0,118,119
 1032 72 1032 72 1025 61.5 c 128,-1,120
 1018 51 1018 51 1011 49 c 0,121,122
 1005 47 1005 47 1000.5 42.5 c 128,-1,123
 996 38 996 38 996 34 c 256,124,102
 996 30 996 30 1014 27.5 c 128,-1,103
EndSplineSet
EndChar

StartChar: less
Encoding: 60 60 97
Width: 843
GlyphClass: 1
Flags: W
LayerCount: 2
Fore
SplineSet
697 -280 m 0,1,2
 714 -280 714 -280 714 -273 c 0,3,4
 714 -269 714 -269 691.5 -256.5 c 128,-1,5
 669 -244 669 -244 636 -230 c 0,6,7
 552 -192 552 -192 500 -138 c 128,-1,8
 448 -84 448 -84 420 -5 c 0,9,10
 363 157 363 157 278 210 c 0,11,12
 242 233 242 233 196.5 245.5 c 128,-1,13
 151 258 151 258 111 258 c 0,14,15
 85 258 85 258 65.5 252 c 128,-1,16
 46 246 46 246 37 234 c 0,17,18
 30 226 30 226 30 216 c 0,19,20
 30 205 30 205 43.5 197.5 c 128,-1,21
 57 190 57 190 80 190 c 0,22,23
 121 190 121 190 151.5 171.5 c 128,-1,24
 182 153 182 153 211 110 c 128,-1,25
 240 67 240 67 276 -12 c 0,26,27
 299 -62 299 -62 347.5 -116 c 128,-1,28
 396 -170 396 -170 442 -197 c 0,29,30
 459 -207 459 -207 497 -223 c 128,-1,31
 535 -239 535 -239 572 -251 c 0,32,0
 661 -280 661 -280 697 -280 c 0,1,2
504 27.5 m 128,-1,34
 522 25 522 25 547 25 c 0,35,36
 579 25 579 25 590.5 26.5 c 128,-1,37
 602 28 602 28 607.5 34.5 c 128,-1,38
 613 41 613 41 621 59 c 0,39,40
 627 73 627 73 636.5 86.5 c 128,-1,41
 646 100 646 100 653 104 c 0,42,43
 663 110 663 110 653 112 c 128,-1,44
 643 114 643 114 604 115 c 0,45,46
 568 115 568 115 555.5 113.5 c 128,-1,47
 543 112 543 112 537.5 106.5 c 128,-1,48
 532 101 532 101 527 85 c 0,49,50
 522 72 522 72 515 61.5 c 128,-1,51
 508 51 508 51 501 49 c 0,52,53
 495 47 495 47 490.5 42.5 c 128,-1,54
 486 38 486 38 486 34 c 256,55,33
 486 30 486 30 504 27.5 c 128,-1,34
674 27.5 m 128,-1,57
 692 25 692 25 717 25 c 0,58,59
 749 25 749 25 760.5 26.5 c 128,-1,60
 772 28 772 28 777.5 34.5 c 128,-1,61
 783 41 783 41 791 59 c 0,62,63
 797 73 797 73 806.5 86.5 c 128,-1,64
 816 100 816 100 823 104 c 0,65,66
 833 110 833 110 823 112 c 128,-1,67
 813 114 813 114 774 115 c 0,68,69
 738 115 738 115 725.5 113.5 c 128,-1,70
 713 112 713 112 707.5 106.5 c 128,-1,71
 702 101 702 101 697 85 c 0,72,73
 692 72 692 72 685 61.5 c 128,-1,74
 678 51 678 51 671 49 c 0,75,76
 665 47 665 47 660.5 42.5 c 128,-1,77
 656 38 656 38 656 34 c 256,78,56
 656 30 656 30 674 27.5 c 128,-1,57
EndSplineSet
EndChar

StartChar: asciitilde
Encoding: 126 126 98
Width: 214
GlyphClass: 1
Flags: W
LayerCount: 2
Fore
SplineSet
138 -68 m 0,1,2
 165 -68 165 -68 173 -64 c 0,3,4
 184 -60 184 -60 184 -51 c 256,5,6
 184 -42 184 -42 172 -37 c 0,7,8
 161 -33 161 -33 153 -17 c 128,-1,9
 145 -1 145 -1 129 53 c 0,10,11
 118 90 118 90 108 108 c 128,-1,12
 98 126 98 126 83 134 c 128,-1,13
 68 142 68 142 41 146 c 0,14,15
 22 149 22 149 4 149 c 0,16,17
 -17 149 -17 149 -31.5 145 c 128,-1,18
 -46 141 -46 141 -49 134 c 2,19,-1
 -49 132 l 2,20,21
 -49 129 -49 129 -45 125 c 128,-1,22
 -41 121 -41 121 -34 119 c 0,23,24
 -21 114 -21 114 -13 98 c 128,-1,25
 -5 82 -5 82 12 26 c 0,26,27
 24 -14 24 -14 38.5 -34 c 128,-1,28
 53 -54 53 -54 77 -61 c 0,29,0
 98 -68 98 -68 138 -68 c 0,1,2
EndSplineSet
EndChar

StartChar: partialdiff
Encoding: 8706 8706 100
Width: 0
GlyphClass: 1
Flags: W
LayerCount: 2
Fore
SplineSet
-289 -231.5 m 128,-1,1
 -271 -234 -271 -234 -246 -234 c 0,2,3
 -214 -234 -214 -234 -202.5 -232.5 c 128,-1,4
 -191 -231 -191 -231 -185.5 -224.5 c 128,-1,5
 -180 -218 -180 -218 -172 -200 c 0,6,7
 -166 -186 -166 -186 -156.5 -172.5 c 128,-1,8
 -147 -159 -147 -159 -140 -155 c 0,9,10
 -129 -149 -129 -149 -140 -146.5 c 128,-1,11
 -151 -144 -151 -144 -189 -144 c 0,12,13
 -224 -144 -224 -144 -237 -145.5 c 128,-1,14
 -250 -147 -250 -147 -255 -152.5 c 128,-1,15
 -260 -158 -260 -158 -266 -174 c 0,16,17
 -270 -187 -270 -187 -277.5 -197.5 c 128,-1,18
 -285 -208 -285 -208 -292 -210 c 0,19,20
 -298 -212 -298 -212 -302.5 -216.5 c 128,-1,21
 -307 -221 -307 -221 -307 -225 c 256,22,0
 -307 -229 -307 -229 -289 -231.5 c 128,-1,1
EndSplineSet
EndChar

StartChar: percent
Encoding: 37 37 101
Width: 1165
GlyphClass: 1
Flags: W
LayerCount: 2
Fore
SplineSet
637 227 m 128,-1,1
 655 237 655 237 668.5 254 c 128,-1,2
 682 271 682 271 682 286 c 0,3,4
 682 292 682 292 689.5 294.5 c 128,-1,5
 697 297 697 297 724 298 c 128,-1,6
 751 299 751 299 792 299 c 2,7,-1
 864 299 l 2,8,9
 970 298 970 298 1015.5 294.5 c 128,-1,10
 1061 291 1061 291 1083 283 c 0,11,12
 1107 274 1107 274 1118 274 c 0,13,14
 1135 274 1135 274 1135 296 c 256,15,16
 1135 318 1135 318 1108 332 c 128,-1,17
 1081 346 1081 346 1020.5 354 c 128,-1,18
 960 362 960 362 852 367 c 0,19,20
 786 370 786 370 736.5 374 c 128,-1,21
 687 378 687 378 685 380 c 0,22,23
 684 381 684 381 684 384 c 0,24,25
 684 394 684 394 694 409 c 0,26,27
 707 429 707 429 707 443 c 256,28,29
 707 457 707 457 690 463 c 128,-1,30
 673 469 673 469 635 469 c 0,31,32
 607 469 607 469 595.5 458.5 c 128,-1,33
 584 448 584 448 577 416 c 0,34,35
 573 398 573 398 569.5 393 c 128,-1,36
 566 388 566 388 557 388 c 0,37,38
 549 388 549 388 532 391 c 0,39,40
 459 403 459 403 408 446.5 c 128,-1,41
 357 490 357 490 338 557 c 0,42,43
 322 615 322 615 272.5 653 c 128,-1,44
 223 691 223 691 146 704 c 0,45,46
 95 713 95 713 67 713 c 0,47,48
 30 713 30 713 30 694 c 0,49,50
 30 686 30 686 36 674 c 0,51,52
 43 659 43 659 52 654.5 c 128,-1,53
 61 650 61 650 87 650 c 256,54,55
 113 650 113 650 130.5 639.5 c 128,-1,56
 148 629 148 629 163.5 604 c 128,-1,57
 179 579 179 579 197 531 c 0,58,59
 223 461 223 461 264.5 421.5 c 128,-1,60
 306 382 306 382 378 358 c 0,61,62
 408 348 408 348 442.5 339 c 128,-1,63
 477 330 477 330 495 328 c 0,64,65
 541 322 541 322 554 319 c 128,-1,66
 567 316 567 316 567 308 c 0,67,68
 567 301 567 301 559 287 c 0,69,70
 546 264 546 264 546 250 c 0,71,72
 546 233 546 233 570 227 c 0,73,74
 581 226 581 226 592 223 c 128,-1,75
 603 220 603 220 605 220 c 0,76,0
 619 217 619 217 637 227 c 128,-1,1
640 -59 m 0,78,79
 711 -59 711 -59 762 -44 c 0,80,81
 851 -17 851 -17 851 21 c 0,82,83
 851 42 851 42 822 69 c 256,84,85
 793 96 793 96 703.5 124.5 c 128,-1,86
 614 153 614 153 510 172 c 128,-1,87
 406 191 406 191 340 191 c 0,88,89
 281 191 281 191 274 174 c 0,90,91
 270 165 270 165 270 156 c 0,92,93
 270 138 270 138 298.5 130.5 c 128,-1,94
 327 123 327 123 402 119 c 0,95,96
 499 114 499 114 549.5 102.5 c 128,-1,97
 600 91 600 91 622 69 c 0,98,99
 642 49 642 49 642 34 c 0,100,101
 642 12 642 12 594 4 c 0,102,103
 569 0 569 0 555 -9 c 128,-1,104
 541 -18 541 -18 541 -28 c 0,105,106
 541 -40 541 -40 563 -49 c 0,107,77
 586 -59 586 -59 640 -59 c 0,78,79
EndSplineSet
EndChar

StartChar: asciitilde.alt
Encoding: 65540 -1 102
Width: 232
GlyphClass: 1
Flags: W
LayerCount: 2
Fore
SplineSet
159 -76 m 0,1,2
 196 -76 196 -76 201 -68 c 0,3,4
 202 -67 202 -67 202 -64 c 0,5,6
 202 -55 202 -55 190 -43 c 0,7,8
 183 -36 183 -36 172.5 -13.5 c 128,-1,9
 162 9 162 9 155 34 c 0,10,11
 141 82 141 82 129.5 101.5 c 128,-1,12
 118 121 118 121 99.5 127.5 c 128,-1,13
 81 134 81 134 41 134 c 0,14,15
 10 134 10 134 -9 129.5 c 128,-1,16
 -28 125 -28 125 -28 119 c 0,17,18
 -28 114 -28 114 -11 108 c 0,19,20
 8 102 8 102 21 53 c 0,21,22
 38 -6 38 -6 55 -33 c 128,-1,23
 72 -60 72 -60 96 -68 c 0,24,0
 126 -76 126 -76 159 -76 c 0,1,2
EndSplineSet
EndChar

StartChar: at
Encoding: 64 64 103
Width: 1126
GlyphClass: 1
Flags: W
LayerCount: 2
Fore
SplineSet
333 -78 m 0,1,2
 347 -78 347 -78 353 -74.5 c 128,-1,3
 359 -71 359 -71 362 -63 c 0,4,5
 364 -55 364 -55 364 -53 c 0,6,7
 364 -43 364 -43 351.5 -37 c 128,-1,8
 339 -31 339 -31 309 -26 c 0,9,10
 265 -18 265 -18 236.5 3 c 128,-1,11
 208 24 208 24 208 49 c 0,12,13
 208 98 208 98 276 121 c 128,-1,14
 344 144 344 144 488 144 c 0,15,16
 635 144 635 144 727 120.5 c 128,-1,17
 819 97 819 97 870 45 c 0,18,19
 893 22 893 22 893 9 c 0,20,21
 893 -2 893 -2 874.5 -10 c 128,-1,22
 856 -18 856 -18 816 -25 c 0,23,24
 800 -27 800 -27 789 -32 c 128,-1,25
 778 -37 778 -37 778 -41 c 0,26,27
 778 -55 778 -55 838 -66.5 c 128,-1,28
 898 -78 898 -78 964 -78 c 0,29,30
 1024 -78 1024 -78 1053 -68 c 0,31,32
 1073 -62 1073 -62 1081 -57 c 128,-1,33
 1089 -52 1089 -52 1091.5 -43 c 128,-1,34
 1094 -34 1094 -34 1096 -14 c 0,35,36
 1101 57 1101 57 1014.5 102.5 c 128,-1,37
 928 148 928 148 736 175 c 0,38,39
 579 197 579 197 468 197 c 0,40,41
 372 197 372 197 285 181 c 0,42,43
 149 157 149 157 89.5 127.5 c 128,-1,44
 30 98 30 98 30 55 c 0,45,46
 30 43 30 43 32 36 c 0,47,48
 40 3 40 3 99.5 -25 c 128,-1,49
 159 -53 159 -53 259 -69 c 0,50,0
 313 -78 313 -78 333 -78 c 0,1,2
EndSplineSet
EndChar

StartChar: trademark
Encoding: 8482 8482 105
Width: 1127
GlyphClass: 1
Flags: W
LayerCount: 2
Fore
SplineSet
1084 -52 m 0,1,2
 1090 -52 1090 -52 1093.5 -46 c 128,-1,3
 1097 -40 1097 -40 1097 -31 c 256,4,5
 1097 -22 1097 -22 1093 -12.5 c 128,-1,6
 1089 -3 1089 -3 1081 3 c 0,7,8
 977 88 977 88 851 107 c 0,9,10
 828 111 828 111 775 111 c 0,11,12
 714 111 714 111 610 107 c 0,13,14
 479 104 479 104 371 104 c 0,15,16
 259 104 259 104 226 108 c 0,17,18
 93 125 93 125 57 145 c 0,19,20
 53 148 53 148 48 148 c 0,21,22
 40 148 40 148 35 139.5 c 128,-1,23
 30 131 30 131 31 118 c 0,24,25
 37 81 37 81 87 52.5 c 128,-1,26
 137 24 137 24 223 7 c 0,27,28
 320 -10 320 -10 419 -10 c 0,29,30
 448 -10 448 -10 463 -9 c 0,31,32
 583 -6 583 -6 756 -6 c 0,33,34
 841 -6 841 -6 857 -7 c 0,35,36
 952 -12 952 -12 1015 -28 c 0,37,38
 1033 -32 1033 -32 1052 -38.5 c 128,-1,39
 1071 -45 1071 -45 1076 -49 c 0,40,0
 1081 -52 1081 -52 1084 -52 c 0,1,2
849 -224 m 0,42,43
 871 -224 871 -224 881 -220 c 0,44,45
 890 -217 890 -217 890 -209 c 0,46,47
 890 -206 890 -206 887 -202.5 c 128,-1,48
 884 -199 884 -199 880 -198 c 0,49,50
 871 -195 871 -195 864.5 -181.5 c 128,-1,51
 858 -168 858 -168 845 -125 c 0,52,53
 832 -81 832 -81 818.5 -67 c 128,-1,54
 805 -53 805 -53 773 -48 c 0,55,56
 751 -46 751 -46 742 -46 c 0,57,58
 705 -46 705 -46 699 -58 c 1,59,-1
 699 -60 l 2,60,61
 699 -66 699 -66 711 -70 c 0,62,63
 722 -74 722 -74 728.5 -87.5 c 128,-1,64
 735 -101 735 -101 749 -147 c 0,65,66
 759 -180 759 -180 771 -196 c 128,-1,67
 783 -212 783 -212 802 -218 c 0,68,41
 819 -224 819 -224 849 -224 c 0,42,43
EndSplineSet
EndChar

StartChar: bar
Encoding: 124 124 106
Width: 0
GlyphClass: 1
Flags: W
LayerCount: 2
Fore
SplineSet
-650 171 m 128,-1,1
 -645 174 -645 174 -641 177 c 0,2,3
 -637 181 -637 181 -636.5 191 c 128,-1,4
 -636 201 -636 201 -636 225 c 2,5,-1
 -636 282 l 2,6,7
 -637 349 -637 349 -638 365.5 c 128,-1,8
 -639 382 -639 382 -646 391 c 0,9,10
 -648 394 -648 394 -652.5 394.5 c 128,-1,11
 -657 395 -657 395 -660 393 c 0,12,13
 -664 391 -664 391 -665 389 c 0,14,15
 -667 385 -667 385 -668.5 334.5 c 128,-1,16
 -670 284 -670 284 -670 234 c 0,17,18
 -668 197 -668 197 -666 182.5 c 128,-1,19
 -664 168 -664 168 -658 168 c 0,20,0
 -655 168 -655 168 -650 171 c 128,-1,1
EndSplineSet
EndChar

StartChar: at.alt
Encoding: 65541 -1 107
Width: 1045
GlyphClass: 1
Flags: W
LayerCount: 2
Fore
SplineSet
303.5 -91 m 128,-1,1
 314 -93 314 -93 317.5 -93.5 c 128,-1,2
 321 -94 321 -94 325 -92 c 0,3,4
 331 -89 331 -89 335.5 -80 c 128,-1,5
 340 -71 340 -71 340 -63 c 0,6,7
 340 -56 340 -56 337 -53 c 0,8,9
 332 -46 332 -46 310 -43 c 0,10,11
 250 -33 250 -33 220 -8.5 c 128,-1,12
 190 16 190 16 193 47 c 0,13,14
 198 94 198 94 266 119 c 128,-1,15
 334 144 334 144 456 144 c 0,16,17
 709 144 709 144 797 47 c 0,18,19
 812 29 812 29 818 19.5 c 128,-1,20
 824 10 824 10 824 2 c 0,21,22
 824 -31 824 -31 771 -34 c 0,23,24
 748 -36 748 -36 737.5 -38.5 c 128,-1,25
 727 -41 727 -41 723 -47 c 0,26,27
 720 -51 720 -51 720 -54 c 0,28,29
 720 -61 720 -61 732 -68 c 0,30,31
 743 -76 743 -76 799.5 -84.5 c 128,-1,32
 856 -93 856 -93 895 -93 c 0,33,34
 910 -93 910 -93 916 -92 c 0,35,36
 962 -86 962 -86 980.5 -81 c 128,-1,37
 999 -76 999 -76 1007 -64.5 c 128,-1,38
 1015 -53 1015 -53 1015 -28 c 0,39,40
 1015 4 1015 4 1006.5 24.5 c 128,-1,41
 998 45 998 45 977 65 c 0,42,43
 899 145 899 145 675 174 c 0,44,45
 589 185 589 185 532.5 190.5 c 128,-1,46
 476 196 476 196 426 196 c 0,47,48
 356 196 356 196 288.5 184.5 c 128,-1,49
 221 173 221 173 137 146 c 0,50,51
 87 130 87 130 64.5 114 c 128,-1,52
 42 98 42 98 35 74 c 0,53,54
 30 59 30 59 30 44 c 0,55,56
 30 0 30 0 90 -34.5 c 128,-1,57
 150 -69 150 -69 268 -86 c 0,58,0
 293 -89 293 -89 303.5 -91 c 128,-1,1
EndSplineSet
EndChar

StartChar: grave
Encoding: 96 96 108
Width: 494
GlyphClass: 1
Flags: W
LayerCount: 2
Fore
SplineSet
218 -68 m 0,1,2
 245 -68 245 -68 253 -64 c 0,3,4
 264 -60 264 -60 264 -51 c 256,5,6
 264 -42 264 -42 252 -37 c 0,7,8
 241 -33 241 -33 233 -17 c 128,-1,9
 225 -1 225 -1 209 53 c 0,10,11
 198 90 198 90 188 108 c 128,-1,12
 178 126 178 126 163 134 c 128,-1,13
 148 142 148 142 121 146 c 0,14,15
 101 149 101 149 84 149 c 0,16,17
 63 149 63 149 48.5 145 c 128,-1,18
 34 141 34 141 31 134 c 2,19,-1
 31 132 l 2,20,21
 31 129 31 129 35 125 c 128,-1,22
 39 121 39 121 46 119 c 0,23,24
 59 114 59 114 67 98 c 128,-1,25
 75 82 75 82 92 26 c 0,26,27
 104 -14 104 -14 118.5 -34 c 128,-1,28
 133 -54 133 -54 157 -61 c 0,29,0
 178 -68 178 -68 218 -68 c 0,1,2
418 -68 m 0,31,32
 445 -68 445 -68 453 -64 c 0,33,34
 464 -60 464 -60 464 -51 c 256,35,36
 464 -42 464 -42 452 -37 c 0,37,38
 441 -33 441 -33 433.5 -17.5 c 128,-1,39
 426 -2 426 -2 409 53 c 0,40,41
 398 89 398 89 388 107 c 128,-1,42
 378 125 378 125 363 133.5 c 128,-1,43
 348 142 348 142 321 146 c 0,44,45
 302 149 302 149 284 149 c 0,46,47
 263 149 263 149 248.5 145 c 128,-1,48
 234 141 234 141 231 134 c 2,49,-1
 231 132 l 2,50,51
 231 129 231 129 235 125 c 128,-1,52
 239 121 239 121 246 119 c 0,53,54
 259 114 259 114 267 98 c 128,-1,55
 275 82 275 82 292 26 c 0,56,57
 304 -14 304 -14 318.5 -34 c 128,-1,58
 333 -54 333 -54 357 -61 c 0,59,30
 378 -68 378 -68 418 -68 c 0,31,32
EndSplineSet
EndChar

